<svg id="Layer_1" data-name="Layer 1" xmlns="http://www.w3.org/2000/svg" viewBox="0 0 432.06 109.82"><defs><style>.cls-1,.cls-2{fill:#fff;}.cls-1{stroke:#231f20;stroke-miterlimit:10;}.cls-2{stroke:#010101;stroke-width:0.84px;}.cls-2,.cls-6{stroke-linecap:round;stroke-linejoin:round;}.cls-3,.cls-6{fill:#69bd45;}.cls-4{fill:#85c441;}.cls-5{fill:#010101;}.cls-6{fill-opacity:0.2;stroke:#69bd45;stroke-width:2.82px;}</style></defs><title>case-b</title><rect class="cls-1" x="235.24" y="2.44" width="79" height="104.95"/><path class="cls-2" d="M1.45,1.41H78.39a1,1,0,0,1,1,1V107.38a1,1,0,0,1-1,1H1.45a1,1,0,0,1-1-1V2.44a1,1,0,0,1,1-1Z"/><path class="cls-3" d="M39.88,75.91h-.66c-.6,1.79-.84,3.34-.9,3.34a.76.76,0,0,1-.72.66h-.12a.86.86,0,0,1-.6-1,30.3,30.3,0,0,1,1-3.88,8.48,8.48,0,0,1,.36-8.42,7.54,7.54,0,0,1,7.64-3.46.69.69,0,0,1,.54.36,8.57,8.57,0,0,1-.18,8.78,7.61,7.61,0,0,1-6.39,3.58Z"/><path class="cls-3" d="M45.24,65.11a5.74,5.74,0,0,0-5.59,2.74,6.54,6.54,0,0,0-.8,5.25,11.84,11.84,0,0,1,1.71-2.85.73.73,0,0,1,1-.11.86.86,0,0,1,.06,1.08,11.2,11.2,0,0,0-1.77,3.14,5.73,5.73,0,0,0,5-2.74,6.62,6.62,0,0,0,.34-6.51Z"/><path class="cls-3" d="M38,79.27c-.11.06-.17.11-.29.11a.58.58,0,0,1-.68-.34c-.06,0-1-1.37-2.4-3.14a12.17,12.17,0,0,1-4,1.48,12.31,12.31,0,0,1-9.25-2.23A13.81,13.81,0,0,1,16.18,61.8a.83.83,0,0,1,.34-.51,12.14,12.14,0,0,1,13.7.51,13.8,13.8,0,0,1,5.31,12.84c1.6,1.94,2.57,3.42,2.68,3.54A.8.8,0,0,1,38,79.27Z"/><path class="cls-3" d="M29.43,63.06a10.62,10.62,0,0,0-11.87-.63A12.08,12.08,0,0,0,22.23,74a10.86,10.86,0,0,0,11.42.86,24.11,24.11,0,0,0-7.19-5.88.71.71,0,0,1-.4-1,.76.76,0,0,1,1-.4,25.07,25.07,0,0,1,7.19,5.65,12.14,12.14,0,0,0-4.79-10.16Z"/><path class="cls-3" d="M56.46,46.91h-.67a26.6,26.6,0,0,0-.91,3.39.72.72,0,0,1-.73.61H54a.77.77,0,0,1-.61-.91,22.27,22.27,0,0,1,1-3.94,8.61,8.61,0,0,1,.36-8.55A7.65,7.65,0,0,1,62.58,34a.58.58,0,0,1,.55.36,8.7,8.7,0,0,1-.18,8.91,7.72,7.72,0,0,1-6.48,3.64Z"/><path class="cls-3" d="M54.66,50.5c-.11.11-.23.11-.29.17a.92.92,0,0,1-.74-.34s-.91-1.37-2.34-3.14a13.59,13.59,0,0,1-4,1.48A12.31,12.31,0,0,1,38,46.45a13.69,13.69,0,0,1-5.25-13.36.83.83,0,0,1,.34-.51,12.14,12.14,0,0,1,13.7.51,13.59,13.59,0,0,1,5.25,12.84,41.83,41.83,0,0,1,2.74,3.54.79.79,0,0,1-.17,1Z"/><path class="cls-4" d="M61.83,93.91h1.43c.11.09.17.14.67.26v9c-.49.11-.55.17-.67-.22H61.83c-.11.39-.17.33.09.22v-9c-.26-.11-.21-.17-.09-.17Z"/><path class="cls-4" d="M66.28,93.91H65.14c-.06.09-.17.14-.22.26v9c0,.11.16.17.22-.22h1.14c.11.39.17.33-.36.22v-9c.53-.11.47-.17.36-.17Z"/><path class="cls-4" d="M67.82,93.91H70c.06.09.17.14-.07.26v9c.24.11.13.17.07-.28H67.82c-.11.45-.17.39-.9.28v-9c.73-.11.79-.17.9-.17Z"/><path class="cls-4" d="M71.53,93.91h1.08a.78.78,0,0,0,.3.26v9c-.19.11-.25.17-.3-.28H71.53c-.06.45-.11.39.39.28v-9c-.5-.11-.45-.17-.39-.17Z"/><path class="cls-4" d="M58.86,93.91h1c.06.09.17.14,0,.26v9c.14.11,0,.17,0-.28h-1c-.11.45-.17.39.06.28v-9c-.23-.11-.17-.17-.06-.17Z"/><path class="cls-3" d="M57.92,91.91h1v-3h-1v-.67a2.14,2.14,0,0,0,.69-.11,5.39,5.39,0,0,0,.56-.22h.75v4h1v1h-3Z"/><path class="cls-3" d="M61.92,92.23c.25-.34.59-.63.82-.91l.74-.74a2.14,2.14,0,0,0,.4-.69,1.1,1.1,0,0,0,.17-.57.78.78,0,0,0-.23-.63.66.66,0,0,0-.57-.23.92.92,0,0,0-.51.17,2.88,2.88,0,0,0-.46.4l-.46-.51a6.09,6.09,0,0,1,.68-.57,1.91,1.91,0,0,1,.86-.17,2.05,2.05,0,0,1,.63.11,2.29,2.29,0,0,1,.51.29,1.24,1.24,0,0,1,.29.46,2.43,2.43,0,0,1,.11.63,1.52,1.52,0,0,1-.17.68,2.54,2.54,0,0,1-.34.69c-.17.17-.34.46-.57.68a8.78,8.78,0,0,0-.68.74.73.73,0,0,0,.4-.15h1.38v1h-3Z"/><path class="cls-3" d="M67.31,92.86a2.44,2.44,0,0,1-1-.23,2.06,2.06,0,0,1-.68-.46l.46-.57a2,2,0,0,0,.51.34,1.15,1.15,0,0,0,.63.17.92.92,0,0,0,.63-.17.79.79,0,0,0,.29-.57c0-.11-.06-.23-.06-.34s-.17-.17-.23-.29a1.07,1.07,0,0,0-.46-.11,1.72,1.72,0,0,0-.5-.06v-.69a1.26,1.26,0,0,0,.39-.06.82.82,0,0,0,.4-.11,1,1,0,0,0,.23-.29.51.51,0,0,0,.06-.29.7.7,0,0,0-.17-.51,1,1,0,0,0-.57-.17,1.67,1.67,0,0,0-.51.11c-.17.11-.29.23-.46.34l-.46-.51a2.4,2.4,0,0,1,.68-.46,1.83,1.83,0,0,1,.8-.17,2.14,2.14,0,0,1,.63.06,1.1,1.1,0,0,1,.51.29,2.5,2.5,0,0,1,.34.4,1.67,1.67,0,0,1,.11.51,1.62,1.62,0,0,1-.23.74,1.78,1.78,0,0,1-.76.4v.06a1.09,1.09,0,0,1,.81.4,1,1,0,0,1,.29.8.94.94,0,0,1-.11.57,1.37,1.37,0,0,1-.34.46,1.78,1.78,0,0,1-.57.29,2.45,2.45,0,0,1-.68.11Z"/><path class="cls-3" d="M70.92,90.91V89.72c.78-.17.84-.34,1-.51v-.51h0a.84.84,0,0,0-.39.34,2.76,2.76,0,0,1-.17.4l-.91,1.48Zm2,1h0v1h-1v-1h-2V90.86l1.61-2.95h.39v3h1Z"/><path class="cls-2" d="M118.86,1.41H195.8a1,1,0,0,1,1,1V107.38a1,1,0,0,1-1,1H118.86a1,1,0,0,1-1-1V2.44a1,1,0,0,1,1-1Z"/><path class="cls-5" d="M179.26,93.91h1.43c.11-.1.17,0,.64.08v9c-.47.11-.53.17-.64,0h-1.43c-.06.21-.17.15.07,0V94c-.24-.11-.13-.17-.07-.17Z"/><path class="cls-5" d="M183.71,93.91h-1.14c-.06-.1-.11,0-.24.08v9c.13.11.18.17.24,0h1.14c.11.21.17.15-.38,0V94c.55-.11.5-.17.38-.17Z"/><path class="cls-5" d="M185.25,93.91h2.17c.06-.1.17,0,.91.08v9c-.74.11-.85.17-.91-.09h-2.17c-.11.27-.17.21.08.09V94c-.25-.11-.19-.17-.08-.17Z"/><path class="cls-5" d="M189,93.91h1c.06-.1.11,0,.28.08v9c-.17.11-.22.17-.28-.09h-1c-.11.27-.17.21.31.09V94c-.48-.11-.42-.17-.31-.17Z"/><path class="cls-5" d="M176.29,93.91h1c.06-.1.17,0,0,.08v9c.16.11,0,.17,0-.09h-1c-.11.27-.17.21,0,.09V94c-.21-.11-.15-.17,0-.17Z"/><path class="cls-5" d="M175.33,91.91h1v-3h-1v-.67a3,3,0,0,0,.75-.11,4,4,0,0,0,.5-.22h.75v4h1v1h-3Z"/><path class="cls-5" d="M179.33,92c.27-.34.62-.63.84-.91l.74-.74a2.14,2.14,0,0,0,.4-.69,1.1,1.1,0,0,0,.17-.57.78.78,0,0,0-.23-.63.6.6,0,0,0-.57-.23.92.92,0,0,0-.51.17,2.88,2.88,0,0,0-.46.4l-.46-.51a6.09,6.09,0,0,1,.68-.57,1.91,1.91,0,0,1,.86-.17,2.05,2.05,0,0,1,.63.11,2.29,2.29,0,0,1,.51.29,1.24,1.24,0,0,1,.29.46,2.43,2.43,0,0,1,.11.63,1.52,1.52,0,0,1-.17.68,2.54,2.54,0,0,1-.34.69c-.17.17-.34.46-.57.68a8.78,8.78,0,0,0-.68.74c.11,0,.29-.06.4,0h1.36v1h-3Z"/><path class="cls-5" d="M184.8,92.67a2.73,2.73,0,0,1-1-.23,1.79,1.79,0,0,1-.63-.46l.4-.57a4,4,0,0,0,.51.34,1.15,1.15,0,0,0,.63.17,1.22,1.22,0,0,0,.68-.17,1,1,0,0,0,.23-.57.72.72,0,0,0-.06-.34,1,1,0,0,0-.23-.29,1.07,1.07,0,0,0-.46-.11,1.79,1.79,0,0,0-.52-.06V89.7a1.14,1.14,0,0,0,.41-.06.82.82,0,0,0,.4-.11,1,1,0,0,0,.23-.29.51.51,0,0,0,.06-.29.7.7,0,0,0-.17-.51.8.8,0,0,0-.51-.17,1.69,1.69,0,0,0-.57.11,3.13,3.13,0,0,1-.46.34l-.46-.51a2.4,2.4,0,0,1,.68-.46,1.83,1.83,0,0,1,.8-.17,2.14,2.14,0,0,1,.63.06,1.1,1.1,0,0,1,.51.29,2.5,2.5,0,0,1,.34.4,1.67,1.67,0,0,1,.11.51,1.62,1.62,0,0,1-.23.74,1.75,1.75,0,0,1-.78.4V90a1.1,1.1,0,0,1,.84.4,1,1,0,0,1,.34.8,1,1,0,0,1-.17.57,1.37,1.37,0,0,1-.34.46,1.78,1.78,0,0,1-.57.29,2.05,2.05,0,0,1-.63.11Z"/><path class="cls-5" d="M189.33,90.91V88.8h0a1.19,1.19,0,0,1-.23.34,2.76,2.76,0,0,1-.17.4L188,90.91Zm1,1h0v1h-1v-1h-2V90.68L189,87.91h.37v3h1Z"/><path class="cls-3" d="M157.29,75.91h-.66c-.6,1.79-.84,3.34-.9,3.34a.76.76,0,0,1-.72.66h-.12a.86.86,0,0,1-.6-1,30.3,30.3,0,0,1,1-3.88,8.48,8.48,0,0,1,.36-8.42,7.54,7.54,0,0,1,7.64-3.46.69.69,0,0,1,.54.36,8.57,8.57,0,0,1-.18,8.78,7.61,7.61,0,0,1-6.39,3.58Z"/><path class="cls-3" d="M162.65,64.93a5.74,5.74,0,0,0-5.59,2.74,6.54,6.54,0,0,0-.8,5.25A11.84,11.84,0,0,1,158,70.07a.73.73,0,0,1,1-.11.86.86,0,0,1,.06,1.08,11.2,11.2,0,0,0-1.77,3.14,5.73,5.73,0,0,0,5-2.74,6.62,6.62,0,0,0,.34-6.51Z"/><path class="cls-3" d="M155.46,79.09c-.11.06-.17.11-.29.11a.58.58,0,0,1-.68-.34c-.06,0-1-1.37-2.4-3.14a12.17,12.17,0,0,1-4,1.48A12.31,12.31,0,0,1,138.85,75a13.81,13.81,0,0,1-5.25-13.36.83.83,0,0,1,.34-.51,12.14,12.14,0,0,1,13.7.51,13.8,13.8,0,0,1,5.31,12.84c1.6,1.94,2.57,3.42,2.68,3.54a.8.8,0,0,1-.17,1.08Z"/><path class="cls-3" d="M146.84,62.88A10.62,10.62,0,0,0,135,62.25a12.08,12.08,0,0,0,4.68,11.53,10.86,10.86,0,0,0,11.42.86,24.11,24.11,0,0,0-7.19-5.88.71.71,0,0,1-.4-1,.76.76,0,0,1,1-.4A25.07,25.07,0,0,1,151.63,73a12.14,12.14,0,0,0-4.79-10.16Z"/><path class="cls-3" d="M173.87,46.91h-.67a26.6,26.6,0,0,0-.91,3.39.72.72,0,0,1-.73.61h-.12a.77.77,0,0,1-.61-.91,22.27,22.27,0,0,1,1-3.94,8.61,8.61,0,0,1,.36-8.55A7.65,7.65,0,0,1,180,34a.58.58,0,0,1,.55.36,8.7,8.7,0,0,1-.18,8.91,7.72,7.72,0,0,1-6.48,3.64Z"/><path class="cls-3" d="M179.26,36.22a5.69,5.69,0,0,0-5.59,2.68,6.71,6.71,0,0,0-.8,5.31,13.46,13.46,0,0,1,1.71-2.91.66.66,0,0,1,1-.06.8.8,0,0,1,.11,1.08,11.2,11.2,0,0,0-1.77,3.14,5.78,5.78,0,0,0,5-2.8,6.52,6.52,0,0,0,.34-6.45Z"/><path class="cls-3" d="M172.07,50.32c-.11.11-.23.11-.29.17a.92.92,0,0,1-.74-.34s-.91-1.37-2.34-3.14a13.59,13.59,0,0,1-4,1.48,12.31,12.31,0,0,1-9.25-2.23,13.69,13.69,0,0,1-5.25-13.36.83.83,0,0,1,.34-.51,12.14,12.14,0,0,1,13.7.51,13.59,13.59,0,0,1,5.25,12.84,41.83,41.83,0,0,1,2.74,3.54.79.79,0,0,1-.17,1Z"/><path class="cls-3" d="M163.45,34.11a10.83,10.83,0,0,0-11.87-.63A12,12,0,0,0,156.26,45a10.63,10.63,0,0,0,11.42.86A24.33,24.33,0,0,0,160.42,40a.75.75,0,0,1-.34-1,.71.71,0,0,1,1-.4,25.05,25.05,0,0,1,7.19,5.65,12.32,12.32,0,0,0-4.79-10.22Z"/><path class="cls-2" d="M353.67,1.41h76.94a1,1,0,0,1,1,1V107.38a1,1,0,0,1-1,1H353.67a1,1,0,0,1-1-1V2.44a1,1,0,0,1,1-1Z"/><path class="cls-5" d="M414.12,93.91h1.43c.11-.1.17,0,.6.08v9c-.43.11-.48.17-.6,0h-1.43c-.06.21-.17.15,0,0V94c-.19-.11-.08-.17,0-.17Z"/><path class="cls-5" d="M418.57,93.91h-1.14c-.06-.1-.11,0-.29.08v9c.17.11.23.17.29,0h1.14c.11.21.17.15-.43,0V94c.6-.11.54-.17.43-.17Z"/><path class="cls-5" d="M420.11,93.91h2.17c.11-.1.17,0,.86.08v9c-.69.11-.75.17-.86-.09h-2.17c-.11.27-.17.21,0,.09V94c-.2-.11-.14-.17,0-.17Z"/><path class="cls-5" d="M423.88,93.91h1c.06-.1.11,0,.24.08v9c-.12.11-.18.17-.24-.09h-1c-.11.27-.17.21.26.09V94c-.43-.11-.38-.17-.26-.17Z"/><path class="cls-5" d="M411.15,93.91h1c.11-.1.17,0,0,.08v9c.21.11.15.17,0-.09h-1c-.11.27-.17.21,0,.09V94c-.16-.11-.11-.17,0-.17Z"/><path class="cls-5" d="M410.14,91.91h0v-3h1V88s0-.06.18-.11.34-.17.46,0h.36v4h1v1h-3Z"/><path class="cls-5" d="M414.14,92c.32-.34.66-.63.89-.91l.74-.74a2.14,2.14,0,0,0,.4-.69,1.1,1.1,0,0,0,.17-.57,1,1,0,0,0-.17-.63.78.78,0,0,0-.63-.23.92.92,0,0,0-.51.17,2.88,2.88,0,0,0-.46.4l-.46-.51a6.09,6.09,0,0,1,.68-.57,1.91,1.91,0,0,1,.86-.17,2.05,2.05,0,0,1,.63.11,1.49,1.49,0,0,1,.51.29,1.24,1.24,0,0,1,.29.46,2.43,2.43,0,0,1,.11.63,2.86,2.86,0,0,1-.11.68c-.11.23-.23.4-.4.69s-.34.46-.57.68a8.77,8.77,0,0,0-.68.74c.11,0,.29-.06.4,0h1.31v1h-3Z"/><path class="cls-5" d="M419.66,92.67a2.73,2.73,0,0,1-1-.23A2.55,2.55,0,0,1,418,92l.4-.57.51.34a1.15,1.15,0,0,0,.63.17,1.22,1.22,0,0,0,.68-.17.73.73,0,0,0,.23-.57.72.72,0,0,0-.06-.34,1,1,0,0,0-.23-.29,1.07,1.07,0,0,0-.46-.11,1.94,1.94,0,0,0-.57-.06V89.7a1.25,1.25,0,0,0,.46-.06.67.67,0,0,0,.4-.11,1,1,0,0,0,.23-.29.51.51,0,0,0,.06-.29.61.61,0,0,0-.68-.69,1.69,1.69,0,0,0-.57.11,3.13,3.13,0,0,1-.46.34l-.46-.51a2.4,2.4,0,0,1,.68-.46,1.83,1.83,0,0,1,.8-.17,2.14,2.14,0,0,1,.63.06,1.1,1.1,0,0,1,.51.29,1.17,1.17,0,0,1,.34.4,1.67,1.67,0,0,1,.11.51,1.62,1.62,0,0,1-.23.74,1.47,1.47,0,0,1-.83.4V90a1.38,1.38,0,0,1,.94.4,1.24,1.24,0,0,1,.29.8,1,1,0,0,1-.17.57.89.89,0,0,1-.34.46,1.78,1.78,0,0,1-.57.29,2.05,2.05,0,0,1-.63.11Z"/><path class="cls-5" d="M424.14,90.91V88.8h0a1.19,1.19,0,0,1-.23.34,2.76,2.76,0,0,1-.17.4l-.91,1.37Zm2,1h-1v1h-1v-1h-2V90.68l1.68-2.77h1.32v3h1Z"/><path class="cls-3" d="M392.15,75.91h-.66a22.79,22.79,0,0,0-.84,3.34.89.89,0,0,1-.78.66h-.12a.86.86,0,0,1-.6-1,30.3,30.3,0,0,1,1-3.88,8.48,8.48,0,0,1,.36-8.42,7.58,7.58,0,0,1,7.7-3.46c.18,0,.36.18.48.36a8.44,8.44,0,0,1-.18,8.78,7.61,7.61,0,0,1-6.39,3.58Z"/><path class="cls-3" d="M397.51,64.93a5.74,5.74,0,0,0-5.59,2.74,6.54,6.54,0,0,0-.8,5.25,11.84,11.84,0,0,1,1.71-2.85.73.73,0,0,1,1-.11.86.86,0,0,1,.06,1.08,11.2,11.2,0,0,0-1.77,3.14,5.89,5.89,0,0,0,5.08-2.74,6.76,6.76,0,0,0,.29-6.51Z"/><path class="cls-3" d="M390.32,79.09c-.11.06-.17.11-.29.11a.58.58,0,0,1-.68-.34c-.06,0-1-1.37-2.4-3.14a11.72,11.72,0,0,1-4,1.48A12.31,12.31,0,0,1,373.71,75a13.81,13.81,0,0,1-5.25-13.36.83.83,0,0,1,.34-.51,12.14,12.14,0,0,1,13.7.51,13.68,13.68,0,0,1,5.31,12.84c1.6,1.94,2.57,3.42,2.68,3.54a.8.8,0,0,1-.17,1.08Z"/><path class="cls-3" d="M381.7,62.88a10.62,10.62,0,0,0-11.87-.63,12.2,12.2,0,0,0,4.68,11.53,10.86,10.86,0,0,0,11.42.86,24.11,24.11,0,0,0-7.19-5.88.76.76,0,0,1-.4-1,.78.78,0,0,1,1-.4A25.07,25.07,0,0,1,386.49,73a12.14,12.14,0,0,0-4.79-10.16Z"/><path class="cls-3" d="M408.73,46.91h-.67c-.61,1.82-.85,3.33-.91,3.39a.72.72,0,0,1-.73.61h-.12a.77.77,0,0,1-.61-.91,30.78,30.78,0,0,1,1-3.94,8.61,8.61,0,0,1,.36-8.55A7.65,7.65,0,0,1,414.85,34a.58.58,0,0,1,.55.36,8.7,8.7,0,0,1-.18,8.91,7.72,7.72,0,0,1-6.48,3.64Z"/><path class="cls-3" d="M414.12,36.22a5.69,5.69,0,0,0-5.59,2.68,6.71,6.71,0,0,0-.8,5.31,13.46,13.46,0,0,1,1.71-2.91.72.72,0,0,1,1-.06.86.86,0,0,1,.06,1.08,11.2,11.2,0,0,0-1.77,3.14,5.78,5.78,0,0,0,5-2.8,6.52,6.52,0,0,0,.34-6.45Z"/><path class="cls-3" d="M406.93,50.32a.76.76,0,0,1-.29.17.75.75,0,0,1-.68-.34c-.06,0-1-1.37-2.4-3.14a13.59,13.59,0,0,1-4,1.48,12.31,12.31,0,0,1-9.25-2.23,13.81,13.81,0,0,1-5.25-13.36.83.83,0,0,1,.34-.51,12.14,12.14,0,0,1,13.7.51,13.75,13.75,0,0,1,5.31,12.84c1.6,1.88,2.57,3.42,2.68,3.54a.73.73,0,0,1-.17,1Z"/><path class="cls-3" d="M398.31,34.11a10.83,10.83,0,0,0-11.87-.63A12,12,0,0,0,391.12,45a10.63,10.63,0,0,0,11.42.86A24.82,24.82,0,0,0,395.34,40a.73.73,0,0,1-.4-1,.71.71,0,0,1,1-.4,25.05,25.05,0,0,1,7.19,5.65,12.32,12.32,0,0,0-4.79-10.22Z"/><path class="cls-6" d="M236.27,1.41h76.94a1,1,0,0,1,1,1V107.38a1,1,0,0,1-1,1H236.26a1,1,0,0,1-1-1V2.44a1,1,0,0,1,1-1Z"/><path class="cls-3" d="M274.72,75.91h-.66a22.79,22.79,0,0,0-.84,3.34.83.83,0,0,1-.78.66h-.12a.86.86,0,0,1-.6-1c.06-.12.36-1.85,1-3.88a8.48,8.48,0,0,1,.36-8.42,7.58,7.58,0,0,1,7.7-3.46c.18,0,.36.18.48.36a8.44,8.44,0,0,1-.18,8.78,7.53,7.53,0,0,1-6.39,3.58Z"/><path class="cls-3" d="M280.08,64.93a5.79,5.79,0,0,0-5.59,2.74,6.54,6.54,0,0,0-.8,5.25,14,14,0,0,1,1.71-2.85.73.73,0,0,1,1-.11.86.86,0,0,1,.06,1.08,12.82,12.82,0,0,0-1.77,3.14,5.89,5.89,0,0,0,5.08-2.74,6.76,6.76,0,0,0,.29-6.51Z"/><path class="cls-3" d="M272.89,79.09c-.11.06-.17.11-.29.11a.61.61,0,0,1-.68-.34c-.06,0-.91-1.37-2.4-3.14a11.72,11.72,0,0,1-4,1.48A12.31,12.31,0,0,1,256.28,75,13.81,13.81,0,0,1,251,61.62a.83.83,0,0,1,.34-.51,12.14,12.14,0,0,1,13.7.51,13.68,13.68,0,0,1,5.31,12.84A44.14,44.14,0,0,1,273.06,78a.8.8,0,0,1-.17,1.08Z"/><path class="cls-3" d="M264.27,62.88a10.62,10.62,0,0,0-11.87-.63,12.2,12.2,0,0,0,4.68,11.53,10.87,10.87,0,0,0,11.42.86,24.11,24.11,0,0,0-7.19-5.88.76.76,0,0,1-.4-1,.78.78,0,0,1,1-.4A25.07,25.07,0,0,1,269.06,73a12.14,12.14,0,0,0-4.79-10.16Z"/><path class="cls-3" d="M291.3,46.91h-.67a21.3,21.3,0,0,0-.85,3.39.84.84,0,0,1-.79.61h-.12a.77.77,0,0,1-.61-.91,30.78,30.78,0,0,1,1-3.94,8.61,8.61,0,0,1,.36-8.55A7.7,7.7,0,0,1,297.48,34a.57.57,0,0,1,.48.36,8.56,8.56,0,0,1-.18,8.91,7.72,7.72,0,0,1-6.48,3.64Z"/><path class="cls-3" d="M296.69,36.22a5.69,5.69,0,0,0-5.59,2.68,6.71,6.71,0,0,0-.8,5.31A13.46,13.46,0,0,1,292,41.3a.72.72,0,0,1,1-.06.86.86,0,0,1,.06,1.08,11.2,11.2,0,0,0-1.77,3.14,6,6,0,0,0,5.08-2.8,6.66,6.66,0,0,0,.29-6.45Z"/><path class="cls-3" d="M289.5,50.32a.76.76,0,0,1-.29.17.75.75,0,0,1-.68-.34c-.06,0-1-1.37-2.4-3.14a13,13,0,0,1-4,1.48,12.31,12.31,0,0,1-9.25-2.23,13.81,13.81,0,0,1-5.25-13.36.83.83,0,0,1,.34-.51,12.14,12.14,0,0,1,13.7.51A13.62,13.62,0,0,1,287,45.75c1.6,1.88,2.57,3.42,2.68,3.54a.73.73,0,0,1-.17,1Z"/><path class="cls-3" d="M280.88,34.11A10.83,10.83,0,0,0,269,33.48,12.15,12.15,0,0,0,273.69,45a10.63,10.63,0,0,0,11.42.86A24.82,24.82,0,0,0,277.91,40a.78.78,0,0,1-.4-1,.73.73,0,0,1,1-.4,25.05,25.05,0,0,1,7.19,5.65,12.32,12.32,0,0,0-4.79-10.22Z"/><path class="cls-5" d="M295.25,92.91h1.43c.11-.1.17,0,.06.08v9c.11.11.06.17-.06,0h-1.43c-.06.21-.17.15-.52,0V93a4.56,4.56,0,0,1,.52-.17Z"/><path class="cls-5" d="M299.7,92.91h-1.14c-.06-.1-.11,0,.17.08v9c-.29.11-.23.17-.17,0h1.14c.11.21.17.15,0,0V93c.14-.11.08-.17,0-.17Z"/><path class="cls-5" d="M301.24,92.91h2.17c.11-.1.17,0,.32.08v9c-.15.11-.21.17-.32-.09h-2.17c-.11.27-.17.21-.51.09V93c.34-.11.39-.17.51-.17Z"/><path class="cls-5" d="M305,92.91h1c.06-.1.11,0-.3.08v9c.42.11.36.17.3-.09h-1c-.11.27-.17.21-.28.09V93c.1-.11.16-.17.28-.17Z"/><path class="cls-5" d="M292.28,92.91h1c.11-.1.17,0,.43.08v9c-.25.11-.31.17-.43-.09h-1c-.11.27-.17.21.45.09V93c-.62-.11-.57-.17-.45-.17Z"/><path class="cls-5" d="M291.74,90.91h1v-3h-1V87a5.78,5.78,0,0,0,.72-.11c.17-.06.34-.17.46,0h.83v4h1v1h-3Z"/><path class="cls-5" d="M295.74,91c-.14-.34.2-.63.43-.91l.74-.74a2.14,2.14,0,0,0,.4-.69,1.1,1.1,0,0,0,.17-.57,1,1,0,0,0-.17-.63.78.78,0,0,0-.63-.23.92.92,0,0,0-.51.17,2.88,2.88,0,0,0-.46.4l-.46-.51a6.09,6.09,0,0,1,.68-.57,1.91,1.91,0,0,1,.86-.17,2.05,2.05,0,0,1,.63.11,1.49,1.49,0,0,1,.51.29,1.24,1.24,0,0,1,.29.46,2.43,2.43,0,0,1,.11.63,2.86,2.86,0,0,1-.11.68c-.11.23-.23.4-.4.69s-.34.46-.57.68a8.77,8.77,0,0,0-.68.74c.11,0,.29-.06.4,0h1.77v1h-3Z"/><path class="cls-5" d="M300.79,91.67a2.73,2.73,0,0,1-1-.23,2.55,2.55,0,0,1-.63-.46l.4-.57.51.34a1.15,1.15,0,0,0,.63.17,1.22,1.22,0,0,0,.68-.17.73.73,0,0,0,.23-.57.72.72,0,0,0-.06-.34,1,1,0,0,0-.23-.29,1.07,1.07,0,0,0-.46-.11c-.17-.06-.4-.06-.11-.06V88.7c-.35,0-.12,0,0-.06a.67.67,0,0,0,.4-.11,1,1,0,0,0,.23-.29.51.51,0,0,0,.06-.29.61.61,0,0,0-.68-.69,1.69,1.69,0,0,0-.57.11,3.13,3.13,0,0,1-.46.34l-.46-.51a2.4,2.4,0,0,1,.68-.46,1.83,1.83,0,0,1,.8-.17,2.14,2.14,0,0,1,.63.06,1.1,1.1,0,0,1,.51.29,1.17,1.17,0,0,1,.34.4,1.67,1.67,0,0,1,.11.51,1.62,1.62,0,0,1-.23.74c-.17.17-.34.29-.36.4V89c0,.06.25.17.48.4a1.24,1.24,0,0,1,.29.8,1,1,0,0,1-.17.57.89.89,0,0,1-.34.46,1.78,1.78,0,0,1-.57.29,2.05,2.05,0,0,1-.63.11Z"/><path class="cls-5" d="M304.74,89.91V87.8h0a1.19,1.19,0,0,1-.23.34,2.76,2.76,0,0,1-.17.4l-.91,1.37Zm2,1h-1v1h-1v-1h-2V89.68L305,86.91h.78v3h1Z"/></svg>