<svg id="Layer_1" data-name="Layer 1" xmlns="http://www.w3.org/2000/svg" viewBox="0 0 432.41 109.82"><defs><style>.cls-1,.cls-8,.cls-9{fill:#fff;}.cls-1{stroke:#010101;stroke-width:0.84px;}.cls-1,.cls-10,.cls-11,.cls-3,.cls-7{stroke-linecap:round;}.cls-1,.cls-10{stroke-linejoin:round;}.cls-2{fill:#f26722;}.cls-3,.cls-7{fill:none;}.cls-3{stroke:#f26722;}.cls-11,.cls-3,.cls-7,.cls-8{stroke-miterlimit:10;}.cls-11,.cls-3,.cls-7{stroke-width:1.08px;}.cls-10,.cls-11,.cls-4,.cls-5{fill:#69bd45;}.cls-4{fill-rule:evenodd;}.cls-6{fill:#010101;}.cls-10,.cls-11,.cls-7{stroke:#69bd45;}.cls-8{stroke:#231f20;}.cls-10{fill-opacity:0.2;stroke-width:2.82px;}</style></defs><title>case-h</title><path class="cls-1" d="M1.45,1.41H78.39a1,1,0,0,1,1,1V107.38a1,1,0,0,1-1,1H1.45a1,1,0,0,1-1-1V2.44a1,1,0,0,1,1-1Z"/><path class="cls-2" d="M16.11,63.8c0-9.34,4.41-16.86,9.85-16.86"/><path class="cls-3" d="M16.11,63.8c0-9.34,4.41-16.86,9.85-16.86"/><path class="cls-2" d="M16.11,63.8c0-5.76,4.18-10.48,9.39-10.48"/><path class="cls-3" d="M16.11,63.8c0-5.76,4.18-10.48,9.39-10.48"/><path class="cls-2" d="M16.11,63.8c0-2.91,3.61-5.24,8.07-5.24"/><path class="cls-3" d="M16.11,63.8c0-2.91,3.61-5.24,8.07-5.24"/><path class="cls-2" d="M16.11,63.8c0-9.34-4.41-16.86-9.85-16.86"/><path class="cls-3" d="M16.11,63.8c0-9.34-4.41-16.86-9.85-16.86"/><path class="cls-2" d="M16.11,63.8c0-5.76-4.18-10.48-9.39-10.48"/><path class="cls-3" d="M16.11,63.8c0-5.76-4.18-10.48-9.39-10.48"/><path class="cls-2" d="M16.11,63.8c0-2.91-3.61-5.24-8.07-5.24"/><path class="cls-3" d="M16.11,63.8c0-2.91-3.61-5.24-8.07-5.24"/><line class="cls-2" x1="16.11" y1="63.8" x2="16.11" y2="42.26"/><line class="cls-3" x1="16.11" y1="63.8" x2="16.11" y2="42.26"/><path class="cls-4" d="M12.73,75.65c-.63-.51-.92-1.6-1.32-5.75-.46-4.56-.4-5.36.46-5.87.46-.34,3.38-.86,16.72-3.08,8.47-1.42,12-2.17,12.88-2.62s.86-.74,3.38-10.2c1.77-6.67,2-7.29,2.46-7.46.63-.17,1.14.4,1.2,1.42.06.51-.11,3.59-.4,7-.63,8.38-.63,8.26-.17,8.43s13.74-1.14,21.87-2.05l3.49-.4.34.68a6.21,6.21,0,0,1,.4,1.82c.11,1.42-.17,1.88-1.77,2.51-1.89.74-11.16,3.25-19.46,5.24-26,6.27-26,6.27-33.95,8.89C13.3,76,13.24,76,12.73,75.65Z"/><path class="cls-5" d="M60.36,49a3.27,3.27,0,0,0-.86-1.31,4.39,4.39,0,0,0-1.2-.8,4.24,4.24,0,0,0-1.2-.4,4.41,4.41,0,0,0-1.2-.17H54.75a17.14,17.14,0,0,0,3.32-2.11l.11.17c.11.11.23.28.4.46s.34.34.52.57a4.08,4.08,0,0,0,.8.57,4.59,4.59,0,0,0,.92.46,3.75,3.75,0,0,0,1.14.28,9.32,9.32,0,0,0,1.26-.11A4.41,4.41,0,0,0,64.65,46a9,9,0,0,0,1.55-1.14,4.77,4.77,0,0,0-.92-1.37,3.57,3.57,0,0,0-1.09-.8,3.73,3.73,0,0,0-1.2-.34,7.78,7.78,0,0,0-1.09-.06,6.42,6.42,0,0,0-1,.17,3,3,0,0,0-.63.17,2.51,2.51,0,0,0-.29.06l.69-.68c.29-.28.46-.46.52-.46l.17-.11a2.59,2.59,0,0,0,.57-.28c.17-.11.46-.23.74-.4a4.3,4.3,0,0,0,.8-.63c.29-.28.57-.51.86-.85a8.05,8.05,0,0,0,.69-1,7.33,7.33,0,0,0,.4-1.2,5.91,5.91,0,0,0,0-1.42A4.6,4.6,0,0,0,64.88,34a5.46,5.46,0,0,0-1.89.74,5.14,5.14,0,0,0-1.32,1.08,5.38,5.38,0,0,0-.8,1.37,5.09,5.09,0,0,0-.4,1.37,4.32,4.32,0,0,0-.17,1.2V41c-.46.46-1.09,1-1.95,1.77l.11-.17c.06-.17.17-.34.23-.51s.23-.51.34-.8.17-.63.23-1,.06-.68.11-1a3.56,3.56,0,0,0-.17-1.08,6.18,6.18,0,0,0-.46-1.08,5.21,5.21,0,0,0-1-1,7.25,7.25,0,0,0-1.49-.74,11,11,0,0,0-1,1.48,4.13,4.13,0,0,0-.4,1.37,4.59,4.59,0,0,0,0,1.25,6,6,0,0,0,.29,1.08c.17.34.34.63.52,1s.46.57.63.8l.57.57a3.52,3.52,0,0,1,.4.34.84.84,0,0,0,.17.11,19.07,19.07,0,0,1-3.43,2.17,9.92,9.92,0,0,0,.29-1.25,4.28,4.28,0,0,0,0-1.48,4,4,0,0,0-.52-1.6,6,6,0,0,0-1.32-1.48,7.89,7.89,0,0,0-2.4-1.2,17.33,17.33,0,0,0-.74,2,6.3,6.3,0,0,0-.23,1.65,3.43,3.43,0,0,0,.23,1.37,2.89,2.89,0,0,0,.52,1,3.26,3.26,0,0,0,.74.8c.29.23.57.4.8.57s.52.28.86.4a11.21,11.21,0,0,1-5,.68s-1.77.86.46,1a26.25,26.25,0,0,0,5.38-.85v.23a4.58,4.58,0,0,1,.17.63,6.61,6.61,0,0,1,.34.86,3.68,3.68,0,0,0,.52.91,9.92,9.92,0,0,0,.74.86,4,4,0,0,0,1,.74,8.82,8.82,0,0,0,1.32.4,5.44,5.44,0,0,0,1.6-.11,7.25,7.25,0,0,0,1.95-.68,4.57,4.57,0,0,0-.4-1.88Z"/><path class="cls-5" d="M57.21,75.14h1.43c.06,0,.11.06.11.17v8.95c0,.11-.06.17-.11.17H57.21a.15.15,0,0,1-.17-.17V75.31a.15.15,0,0,1,.17-.17Z"/><path class="cls-5" d="M61.67,75.14H60.53a.15.15,0,0,0-.17.17v8.95a.15.15,0,0,0,.17.17h1.14a.18.18,0,0,0,.17-.17V75.31a.18.18,0,0,0-.17-.17Z"/><path class="cls-5" d="M63.16,75.14h2.23c.06,0,.11.06.11.17v9c0,.11-.06.17-.11.17H63.16c-.06,0-.11-.06-.11-.17v-9c0-.11.06-.17.11-.17Z"/><path class="cls-5" d="M66.94,75.14h1a.15.15,0,0,1,.17.17v9a.15.15,0,0,1-.17.17h-1a.18.18,0,0,1-.17-.17v-9a.18.18,0,0,1,.17-.17Z"/><path class="cls-5" d="M54.17,75.14h1.09c.06,0,.11.06.11.17v9c0,.11-.06.17-.11.17H54.17c-.06,0-.11-.06-.11-.17v-9c0-.11.06-.17.11-.17Z"/><path class="cls-5" d="M54.8,74a1.65,1.65,0,0,1-1-.23,2.05,2.05,0,0,1-.69-.46l.4-.57.52.34a1.37,1.37,0,0,0,.69.17,1.17,1.17,0,0,0,.63-.17.73.73,0,0,0,.23-.57.72.72,0,0,0-.06-.34.45.45,0,0,0-.23-.23.56.56,0,0,0-.46-.17,2.39,2.39,0,0,0-.69-.06V71A2.14,2.14,0,0,0,54.8,71a.82.82,0,0,0,.4-.11c.06-.11.17-.17.17-.28s.11-.17.11-.28a.72.72,0,0,0-.23-.51.7.7,0,0,0-.52-.17,1.36,1.36,0,0,0-.52.11,3.11,3.11,0,0,0-.46.34l-.46-.51A1.46,1.46,0,0,1,54,69.1a1.59,1.59,0,0,1,.74-.17,2.56,2.56,0,0,1,.69.06,2.3,2.3,0,0,1,.52.28,1,1,0,0,1,.29.4.93.93,0,0,1,.11.57,1.09,1.09,0,0,1-.23.68,1.34,1.34,0,0,1-.63.4v.06a1.57,1.57,0,0,1,.74.4,1.23,1.23,0,0,1,.29.8,1.68,1.68,0,0,1-.11.57,1.53,1.53,0,0,1-.4.46,2.34,2.34,0,0,1-.52.29,2.91,2.91,0,0,1-.69.11Z"/><path class="cls-5" d="M58.75,74a1.65,1.65,0,0,1-1-.23,2.05,2.05,0,0,1-.69-.46l.4-.57.52.34a1.37,1.37,0,0,0,.69.17,1.17,1.17,0,0,0,.63-.17.73.73,0,0,0,.23-.57.72.72,0,0,0-.06-.34.45.45,0,0,0-.23-.23.56.56,0,0,0-.46-.17,2.39,2.39,0,0,0-.69-.06V71a2,2,0,0,0,.63-.06.82.82,0,0,0,.4-.11c.06-.11.17-.17.17-.28s.11-.17.11-.28a.55.55,0,0,0-.23-.51.7.7,0,0,0-.52-.17,1.66,1.66,0,0,0-.52.11,3.11,3.11,0,0,0-.46.34l-.46-.51A1.81,1.81,0,0,1,58,69.1a1.67,1.67,0,0,1,.8-.17,2.34,2.34,0,0,1,.63.06,2.3,2.3,0,0,1,.52.28,1,1,0,0,1,.29.4.93.93,0,0,1,.11.57,1.09,1.09,0,0,1-.23.68,1.34,1.34,0,0,1-.63.4v.06a1.57,1.57,0,0,1,.74.4,1.23,1.23,0,0,1,.29.8,1.68,1.68,0,0,1-.11.57,1.53,1.53,0,0,1-.4.46,1.51,1.51,0,0,1-.52.29,2.91,2.91,0,0,1-.69.11Z"/><path class="cls-5" d="M62.7,74a1.65,1.65,0,0,1-1-.23,2.05,2.05,0,0,1-.69-.46l.46-.57a3.17,3.17,0,0,0,.46.34,1.54,1.54,0,0,0,.69.17,1.16,1.16,0,0,0,.63-.17.79.79,0,0,0,.29-.57.81.81,0,0,0-.11-.34c0-.11-.11-.17-.23-.23a.52.52,0,0,0-.4-.17,3.06,3.06,0,0,0-.74-.06V71A2,2,0,0,0,62.7,71a.82.82,0,0,0,.4-.11,1,1,0,0,0,.23-.28c0-.11.06-.17.06-.28a.55.55,0,0,0-.23-.51.7.7,0,0,0-.52-.17,1.66,1.66,0,0,0-.52.11,3.11,3.11,0,0,0-.46.34l-.46-.51a2.39,2.39,0,0,1,.69-.46,1.83,1.83,0,0,1,.8-.17,2.14,2.14,0,0,1,.63.06,2.3,2.3,0,0,1,.52.28,1,1,0,0,1,.29.4.93.93,0,0,1,.11.57,1.09,1.09,0,0,1-.23.68,1.34,1.34,0,0,1-.63.4v.06a1.34,1.34,0,0,1,.74.4,1.23,1.23,0,0,1,.29.8,1.68,1.68,0,0,1-.11.57,1.53,1.53,0,0,1-.4.46,1.51,1.51,0,0,1-.52.29,2.91,2.91,0,0,1-.69.11Z"/><path class="cls-5" d="M66.65,74a1.65,1.65,0,0,1-1-.23,2.05,2.05,0,0,1-.69-.46l.46-.57a3.17,3.17,0,0,0,.46.34,1.54,1.54,0,0,0,.69.17,1,1,0,0,0,.63-.17.79.79,0,0,0,.29-.57.81.81,0,0,0-.11-.34c0-.11-.11-.17-.23-.23a.52.52,0,0,0-.4-.17,3.06,3.06,0,0,0-.74-.06V71a2,2,0,0,0,.63-.06.82.82,0,0,0,.4-.11,1,1,0,0,0,.23-.28c0-.11.06-.17.06-.28a.55.55,0,0,0-.23-.51.7.7,0,0,0-.52-.17,1.66,1.66,0,0,0-.52.11c-.17.11-.29.23-.46.34l-.46-.51a2.39,2.39,0,0,1,.69-.46,1.83,1.83,0,0,1,.8-.17,2.14,2.14,0,0,1,.63.06,2.3,2.3,0,0,1,.52.28,1,1,0,0,1,.29.4.93.93,0,0,1,.11.57,1.09,1.09,0,0,1-.23.68,1.34,1.34,0,0,1-.63.4v.06a1.34,1.34,0,0,1,.74.4,1,1,0,0,1,.29.8,1.68,1.68,0,0,1-.11.57,1.53,1.53,0,0,1-.4.46,1.51,1.51,0,0,1-.52.29,2.91,2.91,0,0,1-.69.11Z"/><path class="cls-2" d="M15.42,85.62h1.43c.06,0,.11.06.11.17v8.95c0,.11-.06.17-.11.17H15.42a.15.15,0,0,1-.17-.17V85.79a.15.15,0,0,1,.17-.17Z"/><path class="cls-2" d="M19.88,85.62H18.74a.15.15,0,0,0-.17.17v8.95a.15.15,0,0,0,.17.17h1.14a.18.18,0,0,0,.17-.17V85.79a.18.18,0,0,0-.17-.17Z"/><path class="cls-2" d="M21.43,85.62H23.6c.06,0,.11.06.11.17v9c0,.11-.06.17-.11.17H21.43a.15.15,0,0,1-.17-.17v-9a.15.15,0,0,1,.17-.17Z"/><path class="cls-2" d="M25.15,85.62h1a.15.15,0,0,1,.17.17v9a.15.15,0,0,1-.17.17h-1c-.06,0-.11-.06-.11-.17v-9c0-.11.06-.17.11-.17Z"/><path class="cls-2" d="M12.38,85.62h1.09c.06,0,.11.06.11.17v9c0,.11-.06.17-.11.17H12.38c-.06,0-.11-.06-.11-.17v-9c0-.11.06-.17.11-.17Z"/><path class="cls-2" d="M11.47,83.85l.92-.91a7.53,7.53,0,0,0,.69-.74,2.39,2.39,0,0,0,.46-.68,1.1,1.1,0,0,0,.17-.57,1,1,0,0,0-.23-.63.67.67,0,0,0-.57-.23,1,1,0,0,0-.57.17,2.66,2.66,0,0,0-.4.4l-.52-.51a6,6,0,0,1,.69-.57,2.38,2.38,0,0,1,.92-.17,1.24,1.24,0,0,1,.63.11,1.26,1.26,0,0,1,.46.28,1.38,1.38,0,0,1,.34.46,2.41,2.41,0,0,1,.11.63,1.51,1.51,0,0,1-.17.68c-.11.17-.23.4-.4.63a5.24,5.24,0,0,1-.57.74c-.17.23-.4.46-.63.74.11,0,.23-.06.4-.06h1.6v.74H11.47Z"/><path class="cls-2" d="M15.42,83.85l.92-.91A7.53,7.53,0,0,0,17,82.2a2.39,2.39,0,0,0,.46-.68,1.1,1.1,0,0,0,.17-.57.78.78,0,0,0-.23-.63.67.67,0,0,0-.57-.23,1,1,0,0,0-.57.17,2.66,2.66,0,0,0-.4.4l-.52-.51a6,6,0,0,1,.69-.57,2.38,2.38,0,0,1,.92-.17,1.24,1.24,0,0,1,.63.11,1.26,1.26,0,0,1,.46.28,1.38,1.38,0,0,1,.34.46,2.41,2.41,0,0,1,.11.63,1.51,1.51,0,0,1-.17.68c-.11.17-.23.4-.4.63s-.34.46-.52.74a8.69,8.69,0,0,0-.69.74c.11,0,.23-.06.4-.06h1.6v.74H15.42Z"/><path class="cls-2" d="M19.37,83.85l.92-.91A7.53,7.53,0,0,0,21,82.2a2.39,2.39,0,0,0,.46-.68,1.1,1.1,0,0,0,.17-.57.78.78,0,0,0-.23-.63.67.67,0,0,0-.57-.23.7.7,0,0,0-.52.17,1.55,1.55,0,0,0-.46.4l-.52-.51a6,6,0,0,1,.69-.57,2.38,2.38,0,0,1,.92-.17,1.14,1.14,0,0,1,.63.11,1.26,1.26,0,0,1,.46.28,1.38,1.38,0,0,1,.34.46,2.41,2.41,0,0,1,.11.63,1.51,1.51,0,0,1-.17.68,2.79,2.79,0,0,1-.4.63c-.11.23-.34.46-.52.74a8.69,8.69,0,0,0-.69.74c.11,0,.23-.06.4-.06h1.6v.74H19.37Z"/><path class="cls-2" d="M23.32,83.85l.92-.91a7.53,7.53,0,0,0,.69-.74,2.39,2.39,0,0,0,.46-.68,1.1,1.1,0,0,0,.17-.57.78.78,0,0,0-.23-.63.67.67,0,0,0-.57-.23.7.7,0,0,0-.52.17,1.55,1.55,0,0,0-.46.4l-.52-.51a3.65,3.65,0,0,1,.74-.57,1.92,1.92,0,0,1,.86-.17,1.14,1.14,0,0,1,.63.11,1.26,1.26,0,0,1,.46.28.89.89,0,0,1,.34.46,2.41,2.41,0,0,1,.11.63,1.51,1.51,0,0,1-.17.68c-.06.17-.23.4-.34.63a8.31,8.31,0,0,0-.57.74,8.69,8.69,0,0,0-.69.74c.11,0,.23-.06.4-.06h1.6v.74H23.32Z"/><path class="cls-1" d="M119,1.41h76.94a1,1,0,0,1,1,1V107.38a1,1,0,0,1-1,1H119a1,1,0,0,1-1-1V2.44a1,1,0,0,1,1-1Z"/><path class="cls-2" d="M133.63,63.8c0-9.34,4.41-16.86,9.85-16.86"/><path class="cls-3" d="M133.63,63.8c0-9.34,4.41-16.86,9.85-16.86"/><path class="cls-2" d="M133.63,63.8c0-5.76,4.24-10.48,9.39-10.48"/><path class="cls-3" d="M133.63,63.8c0-5.76,4.24-10.48,9.39-10.48"/><path class="cls-2" d="M133.63,63.8c0-2.91,3.61-5.24,8.07-5.24"/><path class="cls-3" d="M133.63,63.8c0-2.91,3.61-5.24,8.07-5.24"/><path class="cls-2" d="M133.63,63.8c0-9.34-4.41-16.86-9.85-16.86"/><path class="cls-3" d="M133.63,63.8c0-9.34-4.41-16.86-9.85-16.86"/><path class="cls-2" d="M133.63,63.8c0-5.76-4.18-10.48-9.39-10.48"/><path class="cls-3" d="M133.63,63.8c0-5.76-4.18-10.48-9.39-10.48"/><path class="cls-2" d="M133.63,63.8c0-2.91-3.61-5.24-8.07-5.24"/><path class="cls-3" d="M133.63,63.8c0-2.91-3.61-5.24-8.07-5.24"/><line class="cls-2" x1="133.63" y1="63.8" x2="133.63" y2="42.26"/><line class="cls-3" x1="133.63" y1="63.8" x2="133.63" y2="42.26"/><path class="cls-4" d="M130.25,75.65c-.63-.51-.86-1.6-1.32-5.75-.46-4.56-.4-5.36.46-5.87.46-.34,3.38-.86,16.72-3.08,8.47-1.42,12-2.17,12.88-2.62s.86-.74,3.38-10.2c1.77-6.67,2-7.29,2.46-7.46.69-.17,1.14.4,1.2,1.42.06.51-.11,3.59-.34,7-.69,8.38-.69,8.26-.23,8.43s13.74-1.14,21.87-2.05l3.49-.4.34.68a6.21,6.21,0,0,1,.4,1.82c.11,1.42-.17,1.88-1.77,2.51-1.89.74-11.16,3.25-19.46,5.24-26,6.27-26,6.27-33.95,8.89-5.5,1.82-5.61,1.82-6.13,1.48Z"/><path class="cls-5" d="M177.88,49a3.27,3.27,0,0,0-.86-1.31,4.39,4.39,0,0,0-1.2-.8,4.24,4.24,0,0,0-1.2-.4,4.41,4.41,0,0,0-1.2-.17h-1.09a19.07,19.07,0,0,0,3.32-2.11l.11.17a1.88,1.88,0,0,0,.34.46c.11.17.34.34.52.57a4.08,4.08,0,0,0,.8.57,6.89,6.89,0,0,0,.92.46,3.75,3.75,0,0,0,1.14.28,9.32,9.32,0,0,0,1.26-.11,4.41,4.41,0,0,0,1.43-.63,9,9,0,0,0,1.55-1.14,3.84,3.84,0,0,0-.92-1.37,3.57,3.57,0,0,0-1.09-.8,3.73,3.73,0,0,0-1.2-.34,7.78,7.78,0,0,0-1.09-.06,4.9,4.9,0,0,0-1,.17,2.86,2.86,0,0,0-.69.17,2.51,2.51,0,0,0-.29.06l.69-.68c.29-.28.46-.46.52-.46l.17-.11a1.77,1.77,0,0,0,.57-.28c.23-.11.46-.23.74-.4a8.12,8.12,0,0,0,.86-.63c.23-.28.52-.51.8-.85a4.61,4.61,0,0,0,.69-1,7.34,7.34,0,0,0,.4-1.2,5.82,5.82,0,0,0-.46-3.08,5.33,5.33,0,0,0-1.95.74,5.14,5.14,0,0,0-1.32,1.08,5.38,5.38,0,0,0-.8,1.37,5.09,5.09,0,0,0-.4,1.37,4.32,4.32,0,0,0-.17,1.2V41c-.46.46-1.09,1-1.95,1.77l.11-.17c.06-.17.17-.34.23-.51s.23-.51.34-.8a4.82,4.82,0,0,0,.23-1,6.25,6.25,0,0,0,.11-1,3.56,3.56,0,0,0-.17-1.08,3.64,3.64,0,0,0-.46-1.08,3.9,3.9,0,0,0-1-1,6.7,6.7,0,0,0-1.43-.74,7.71,7.71,0,0,0-1,1.48,4.13,4.13,0,0,0-.4,1.37,4.59,4.59,0,0,0,0,1.25,6,6,0,0,0,.29,1.08c.17.34.34.63.52,1s.46.57.63.8l.57.57a3.52,3.52,0,0,1,.4.34.69.69,0,0,1,.17.11,19.07,19.07,0,0,1-3.43,2.17,5,5,0,0,0,.29-1.25,3.23,3.23,0,0,0,0-1.48,4,4,0,0,0-.52-1.6A5,5,0,0,0,170,39.7a8.24,8.24,0,0,0-2.35-1.2,11.18,11.18,0,0,0-.8,2,6.31,6.31,0,0,0-.23,1.65,3.43,3.43,0,0,0,.23,1.37,2.89,2.89,0,0,0,.52,1,3.26,3.26,0,0,0,.74.8c.29.23.57.4.8.57s.57.28.86.4a11.21,11.21,0,0,1-5,.68s-1.77.86.46,1a26.25,26.25,0,0,0,5.38-.85v.23a4.58,4.58,0,0,1,.17.63,6.61,6.61,0,0,1,.34.86,3.68,3.68,0,0,0,.52.91,9.92,9.92,0,0,0,.74.86,3.39,3.39,0,0,0,1,.74,6.51,6.51,0,0,0,1.26.4,5.44,5.44,0,0,0,1.6-.11,7.25,7.25,0,0,0,1.95-.68,4.57,4.57,0,0,0-.4-1.88Z"/><path class="cls-6" d="M174.73,75.14h1.43a.18.18,0,0,1,.17.17v8.95a.18.18,0,0,1-.17.17h-1.43a.15.15,0,0,1-.17-.17V75.31a.15.15,0,0,1,.17-.17Z"/><path class="cls-6" d="M179.2,75.14h-1.14a.15.15,0,0,0-.17.17v8.95a.15.15,0,0,0,.17.17h1.14a.18.18,0,0,0,.17-.17V75.31a.18.18,0,0,0-.17-.17Z"/><path class="cls-6" d="M180.74,75.14h2.18c.06,0,.11.06.11.17v9c0,.11-.06.17-.11.17h-2.18a.15.15,0,0,1-.17-.17v-9a.15.15,0,0,1,.17-.17Z"/><path class="cls-6" d="M184.46,75.14h1a.15.15,0,0,1,.17.17v9a.15.15,0,0,1-.17.17h-1c-.06,0-.11-.06-.11-.17v-9c0-.11.06-.17.11-.17Z"/><path class="cls-6" d="M171.76,75.14h1c.06,0,.11.06.11.17v9c0,.11-.06.17-.11.17h-1a.15.15,0,0,1-.17-.17v-9a.15.15,0,0,1,.17-.17Z"/><path class="cls-6" d="M172.33,74a1.65,1.65,0,0,1-1-.23,2.05,2.05,0,0,1-.69-.46l.4-.57.52.34a1.37,1.37,0,0,0,.69.17,1.17,1.17,0,0,0,.63-.17.79.79,0,0,0,.29-.57.81.81,0,0,0-.11-.34.45.45,0,0,0-.23-.23.56.56,0,0,0-.46-.17,2.39,2.39,0,0,0-.69-.06V71a2,2,0,0,0,.63-.06.82.82,0,0,0,.4-.11c.06-.11.17-.17.17-.28s.11-.17.11-.28a.55.55,0,0,0-.23-.51.7.7,0,0,0-.52-.17,1.66,1.66,0,0,0-.52.11,3.11,3.11,0,0,0-.46.34l-.46-.51a1.81,1.81,0,0,1,.69-.46,1.67,1.67,0,0,1,.8-.17A2.34,2.34,0,0,1,173,69a2.3,2.3,0,0,1,.52.28,1,1,0,0,1,.29.4.93.93,0,0,1,.11.57,1.09,1.09,0,0,1-.23.68,1.33,1.33,0,0,1-.63.4v.06a1.57,1.57,0,0,1,.74.4,1.23,1.23,0,0,1,.29.8,1.68,1.68,0,0,1-.11.57,1.53,1.53,0,0,1-.4.46,1.51,1.51,0,0,1-.52.29,2.91,2.91,0,0,1-.69.11Z"/><path class="cls-6" d="M176.28,74a1.65,1.65,0,0,1-1-.23,2.05,2.05,0,0,1-.69-.46l.46-.57a3.17,3.17,0,0,0,.46.34,1.54,1.54,0,0,0,.69.17,1.17,1.17,0,0,0,.63-.17.79.79,0,0,0,.29-.57.81.81,0,0,0-.11-.34c0-.11-.11-.17-.23-.23a.52.52,0,0,0-.4-.17,3.06,3.06,0,0,0-.74-.06V71a2,2,0,0,0,.63-.06.82.82,0,0,0,.4-.11,1,1,0,0,0,.23-.28c0-.11.06-.17.06-.28a.55.55,0,0,0-.23-.51.7.7,0,0,0-.52-.17,1.66,1.66,0,0,0-.52.11,3.11,3.11,0,0,0-.46.34l-.46-.51a2.39,2.39,0,0,1,.69-.46,1.83,1.83,0,0,1,.8-.17,2.14,2.14,0,0,1,.63.06,2.3,2.3,0,0,1,.52.28,1,1,0,0,1,.29.4.93.93,0,0,1,.11.57,1.09,1.09,0,0,1-.23.68,1.33,1.33,0,0,1-.63.4v.06a1.34,1.34,0,0,1,.74.4,1.23,1.23,0,0,1,.29.8,1.68,1.68,0,0,1-.11.57,1.53,1.53,0,0,1-.4.46,1.51,1.51,0,0,1-.52.29,2.91,2.91,0,0,1-.69.11Z"/><path class="cls-6" d="M180.23,74a1.65,1.65,0,0,1-1-.23,2.05,2.05,0,0,1-.69-.46l.46-.57a3.17,3.17,0,0,0,.46.34,1.54,1.54,0,0,0,.69.17,1,1,0,0,0,.63-.17.79.79,0,0,0,.29-.57.81.81,0,0,0-.11-.34c0-.11-.11-.17-.23-.23a.52.52,0,0,0-.4-.17,3.06,3.06,0,0,0-.74-.06V71a2,2,0,0,0,.63-.06.82.82,0,0,0,.4-.11,1,1,0,0,0,.23-.28c0-.11.06-.17.06-.28a.55.55,0,0,0-.23-.51.7.7,0,0,0-.52-.17,1.66,1.66,0,0,0-.52.11c-.17.11-.29.23-.46.34l-.46-.51a2.39,2.39,0,0,1,.69-.46,1.83,1.83,0,0,1,.8-.17,2.14,2.14,0,0,1,.63.06,2.3,2.3,0,0,1,.52.28,1,1,0,0,1,.29.4.93.93,0,0,1,.11.57,1.09,1.09,0,0,1-.23.68,1.33,1.33,0,0,1-.63.4v.06a1.34,1.34,0,0,1,.74.4,1,1,0,0,1,.29.8,1.68,1.68,0,0,1-.11.57,1.53,1.53,0,0,1-.4.46,1.51,1.51,0,0,1-.52.29,2.91,2.91,0,0,1-.69.11Z"/><path class="cls-6" d="M184.18,74a1.65,1.65,0,0,1-1-.23,2.05,2.05,0,0,1-.69-.46l.46-.57a2,2,0,0,0,.52.34,1.17,1.17,0,0,0,.63.17,1,1,0,0,0,.63-.17.79.79,0,0,0,.29-.57.81.81,0,0,0-.11-.34c0-.11-.11-.17-.23-.23a.52.52,0,0,0-.4-.17,2.82,2.82,0,0,0-.69-.06V71a1.76,1.76,0,0,0,.57-.06.82.82,0,0,0,.4-.11,1,1,0,0,0,.23-.28c0-.11.06-.17.06-.28a.69.69,0,0,0-.17-.51,1,1,0,0,0-.57-.17,1.66,1.66,0,0,0-.52.11c-.17.11-.29.23-.46.34l-.46-.51a2.39,2.39,0,0,1,.69-.46,1.83,1.83,0,0,1,.8-.17,2.14,2.14,0,0,1,.63.06,2.3,2.3,0,0,1,.52.28,1,1,0,0,1,.29.4.93.93,0,0,1,.11.57,1.09,1.09,0,0,1-.23.68,1.47,1.47,0,0,1-.57.4v.06a1.38,1.38,0,0,1,.69.4,1,1,0,0,1,.29.8,1.68,1.68,0,0,1-.11.57,1.53,1.53,0,0,1-.4.46,1.11,1.11,0,0,1-.52.29,2.91,2.91,0,0,1-.69.11Z"/><path class="cls-6" d="M132.94,85.62h1.43a.18.18,0,0,1,.17.17v8.95a.18.18,0,0,1-.17.17h-1.43a.15.15,0,0,1-.17-.17V85.79a.15.15,0,0,1,.17-.17Z"/><path class="cls-6" d="M137.41,85.62h-1.14a.15.15,0,0,0-.17.17v8.95a.15.15,0,0,0,.17.17h1.14a.15.15,0,0,0,.17-.17V85.79a.15.15,0,0,0-.17-.17Z"/><path class="cls-6" d="M139,85.62h2.18c.06,0,.11.06.11.17v9c0,.11-.06.17-.11.17H139a.15.15,0,0,1-.17-.17v-9a.15.15,0,0,1,.17-.17Z"/><path class="cls-6" d="M142.67,85.62h1a.15.15,0,0,1,.17.17v9a.15.15,0,0,1-.17.17h-1c-.06,0-.11-.06-.11-.17v-9c0-.11.06-.17.11-.17Z"/><path class="cls-6" d="M130,85.62h1c.06,0,.11.06.11.17v9c0,.11-.06.17-.11.17h-1a.15.15,0,0,1-.17-.17v-9a.15.15,0,0,1,.17-.17Z"/><path class="cls-6" d="M129,83.85l.92-.91a7.54,7.54,0,0,0,.69-.74,2.39,2.39,0,0,0,.46-.68,1.1,1.1,0,0,0,.17-.57.78.78,0,0,0-.23-.63.67.67,0,0,0-.57-.23,1,1,0,0,0-.57.17,2.66,2.66,0,0,0-.4.4l-.52-.51a6,6,0,0,1,.69-.57,2.38,2.38,0,0,1,.92-.17,1.24,1.24,0,0,1,.63.11,1.26,1.26,0,0,1,.46.28,1.38,1.38,0,0,1,.34.46,2.41,2.41,0,0,1,.11.63,1.51,1.51,0,0,1-.17.68c-.11.17-.23.4-.4.63s-.34.46-.52.74a8.68,8.68,0,0,0-.69.74c.11,0,.23-.06.4-.06h1.6v.74H129Z"/><path class="cls-6" d="M132.94,83.85l.92-.91a7.53,7.53,0,0,0,.69-.74,2.39,2.39,0,0,0,.46-.68,1.1,1.1,0,0,0,.17-.57.78.78,0,0,0-.23-.63.67.67,0,0,0-.57-.23.7.7,0,0,0-.52.17,1.55,1.55,0,0,0-.46.4l-.52-.51a3.65,3.65,0,0,1,.74-.57,1.92,1.92,0,0,1,.86-.17,1.14,1.14,0,0,1,.63.11,1.26,1.26,0,0,1,.46.28,1.38,1.38,0,0,1,.34.46,2.41,2.41,0,0,1,.11.63,1.51,1.51,0,0,1-.17.68,2.79,2.79,0,0,1-.4.63c-.11.23-.34.46-.52.74a8.68,8.68,0,0,0-.69.74c.11,0,.23-.06.4-.06h1.6v.74h-3.32Z"/><path class="cls-6" d="M136.89,83.85l.92-.91a7.53,7.53,0,0,0,.69-.74,2.39,2.39,0,0,0,.46-.68,1.1,1.1,0,0,0,.17-.57.78.78,0,0,0-.23-.63.67.67,0,0,0-.57-.23.7.7,0,0,0-.52.17,1.55,1.55,0,0,0-.46.4l-.52-.51a3.65,3.65,0,0,1,.74-.57,1.92,1.92,0,0,1,.86-.17,1.14,1.14,0,0,1,.63.11,1.26,1.26,0,0,1,.46.28.89.89,0,0,1,.34.46,2.41,2.41,0,0,1,.11.63,1.51,1.51,0,0,1-.17.68c-.06.17-.23.4-.34.63a8.31,8.31,0,0,0-.57.74,8.69,8.69,0,0,0-.69.74c.11,0,.23-.06.4-.06h1.6v.74h-3.32Z"/><path class="cls-6" d="M140.84,83.85l.92-.91a7.53,7.53,0,0,0,.69-.74,2.39,2.39,0,0,0,.46-.68,1.1,1.1,0,0,0,.17-.57.78.78,0,0,0-.23-.63.67.67,0,0,0-.57-.23.8.8,0,0,0-.52.17,1.55,1.55,0,0,0-.46.4l-.46-.51a3.3,3.3,0,0,1,.69-.57,1.92,1.92,0,0,1,.86-.17,1.14,1.14,0,0,1,.63.11,1.26,1.26,0,0,1,.46.28.89.89,0,0,1,.34.46,2.41,2.41,0,0,1,.11.63,1.51,1.51,0,0,1-.17.68c-.06.17-.23.4-.34.63s-.34.46-.57.74a8.69,8.69,0,0,0-.69.74c.11,0,.23-.06.4-.06h1.6v.74h-3.32Z"/><path class="cls-1" d="M354,1.41H431a1,1,0,0,1,1,1V107.38a1,1,0,0,1-1,1H354a1,1,0,0,1-1-1V2.44a1,1,0,0,1,1-1Z"/><path class="cls-5" d="M368.68,63.8c0-9.34,4.41-16.86,9.85-16.86"/><path class="cls-7" d="M368.68,63.8c0-9.34,4.41-16.86,9.85-16.86"/><path class="cls-5" d="M368.68,63.8c0-5.76,4.24-10.48,9.39-10.48"/><path class="cls-7" d="M368.68,63.8c0-5.76,4.24-10.48,9.39-10.48"/><path class="cls-5" d="M368.68,63.8c0-2.91,3.61-5.24,8.07-5.24"/><path class="cls-7" d="M368.68,63.8c0-2.91,3.61-5.24,8.07-5.24"/><path class="cls-5" d="M368.68,63.8c0-9.34-4.41-16.86-9.85-16.86"/><path class="cls-7" d="M368.68,63.8c0-9.34-4.41-16.86-9.85-16.86"/><path class="cls-5" d="M368.68,63.8c0-5.76-4.18-10.48-9.39-10.48"/><path class="cls-7" d="M368.68,63.8c0-5.76-4.18-10.48-9.39-10.48"/><path class="cls-5" d="M368.68,63.8c0-2.91-3.61-5.24-8.07-5.24"/><path class="cls-7" d="M368.68,63.8c0-2.91-3.61-5.24-8.07-5.24"/><line class="cls-5" x1="368.68" y1="63.8" x2="368.68" y2="42.26"/><line class="cls-7" x1="368.68" y1="63.8" x2="368.68" y2="42.26"/><path class="cls-4" d="M365.3,75.65c-.63-.51-.86-1.6-1.32-5.75-.46-4.56-.4-5.36.46-5.87.46-.34,3.43-.86,16.77-3.08,8.42-1.42,12-2.17,12.82-2.62s.86-.74,3.38-10.2c1.83-6.67,2-7.29,2.46-7.46.69-.17,1.14.4,1.26,1.42,0,.51-.17,3.59-.4,7-.69,8.38-.69,8.26-.23,8.43s13.8-1.14,21.87-2.05l3.49-.4.34.68a4.8,4.8,0,0,1,.4,1.82c.11,1.42-.17,1.88-1.77,2.51-1.89.74-11.16,3.25-19.46,5.24-26,6.27-26,6.27-33.95,8.89-5.5,1.82-5.61,1.82-6.13,1.48Z"/><path class="cls-5" d="M412.93,49a3.27,3.27,0,0,0-.86-1.31,4.39,4.39,0,0,0-1.2-.8,4.24,4.24,0,0,0-1.2-.4,4.33,4.33,0,0,0-1.14-.17h-1.14a19.07,19.07,0,0,0,3.32-2.11l.11.17a1.88,1.88,0,0,0,.34.46l.57.57a2.57,2.57,0,0,0,.74.57,6.89,6.89,0,0,0,.92.46,3.75,3.75,0,0,0,1.14.28,9.32,9.32,0,0,0,1.26-.11,4.41,4.41,0,0,0,1.43-.63,9,9,0,0,0,1.55-1.14,3.84,3.84,0,0,0-.92-1.37,3.57,3.57,0,0,0-1.09-.8,3.73,3.73,0,0,0-1.2-.34,7.78,7.78,0,0,0-1.09-.06,4.9,4.9,0,0,0-1,.17,2.86,2.86,0,0,0-.69.17,2.51,2.51,0,0,0-.29.06l.69-.68c.29-.28.46-.46.52-.46l.17-.11a1.77,1.77,0,0,0,.57-.28c.23-.11.46-.23.74-.4a8.12,8.12,0,0,0,.86-.63c.29-.28.52-.51.8-.85a3.24,3.24,0,0,0,.69-1,7.33,7.33,0,0,0,.4-1.2,5.82,5.82,0,0,0-.46-3.08,5.33,5.33,0,0,0-1.95.74,5.14,5.14,0,0,0-1.32,1.08,7.83,7.83,0,0,0-.8,1.37,8.67,8.67,0,0,0-.4,1.37,4.32,4.32,0,0,0-.17,1.2V41c-.46.46-1.09,1-1.95,1.77l.11-.17c.06-.17.17-.34.23-.51s.23-.51.34-.8a4.82,4.82,0,0,0,.23-1,6.25,6.25,0,0,0,.11-1,3.56,3.56,0,0,0-.17-1.08,3.64,3.64,0,0,0-.46-1.08,3.91,3.91,0,0,0-1-1,6.7,6.7,0,0,0-1.43-.74,5.49,5.49,0,0,0-1,1.48,3.23,3.23,0,0,0-.46,1.37,4.59,4.59,0,0,0,0,1.25,6,6,0,0,0,.29,1.08,8.57,8.57,0,0,0,.57,1,9.74,9.74,0,0,0,.57.8,5.42,5.42,0,0,1,.57.57,3.52,3.52,0,0,1,.4.34.69.69,0,0,1,.17.11,19.07,19.07,0,0,1-3.43,2.17,10.26,10.26,0,0,0,.34-1.25,4.4,4.4,0,0,0-.06-1.48,4,4,0,0,0-.52-1.6,5,5,0,0,0-1.32-1.48,8.24,8.24,0,0,0-2.35-1.2,11.18,11.18,0,0,0-.8,2,6.31,6.31,0,0,0-.23,1.65,3.43,3.43,0,0,0,.23,1.37,2.89,2.89,0,0,0,.52,1,3.26,3.26,0,0,0,.74.8c.29.23.57.4.8.57s.57.28.86.4a11.21,11.21,0,0,1-5,.68s-1.77.86.46,1a26.25,26.25,0,0,0,5.38-.85l.06.23a1.72,1.72,0,0,0,.17.63c.06.23.17.51.29.86a7.34,7.34,0,0,0,.52.91,9.93,9.93,0,0,0,.74.86,3.39,3.39,0,0,0,1,.74,8.08,8.08,0,0,0,1.26.4,5.44,5.44,0,0,0,1.6-.11,8.35,8.35,0,0,0,2-.68,5.67,5.67,0,0,0-.46-1.88Z"/><path class="cls-6" d="M409.78,75.14h1.43a.18.18,0,0,1,.17.17v8.95a.18.18,0,0,1-.17.17h-1.43a.15.15,0,0,1-.17-.17V75.31a.15.15,0,0,1,.17-.17Z"/><path class="cls-6" d="M414.25,75.14H413.1a.15.15,0,0,0-.17.17v8.95a.15.15,0,0,0,.17.17h1.14a.15.15,0,0,0,.17-.17V75.31a.15.15,0,0,0-.17-.17Z"/><path class="cls-6" d="M415.79,75.14H418c.06,0,.11.06.11.17v9c0,.11-.06.17-.11.17h-2.18a.15.15,0,0,1-.17-.17v-9a.15.15,0,0,1,.17-.17Z"/><path class="cls-6" d="M419.51,75.14h1a.15.15,0,0,1,.17.17v9a.15.15,0,0,1-.17.17h-1c-.06,0-.11-.06-.11-.17v-9c0-.11.06-.17.11-.17Z"/><path class="cls-6" d="M406.8,75.14h1c.06,0,.11.06.11.17v9c0,.11-.06.17-.11.17h-1a.15.15,0,0,1-.17-.17v-9a.15.15,0,0,1,.17-.17Z"/><path class="cls-6" d="M407.38,74a1.65,1.65,0,0,1-1-.23,2.05,2.05,0,0,1-.69-.46l.46-.57a3.18,3.18,0,0,0,.46.34,1.54,1.54,0,0,0,.69.17,1,1,0,0,0,.63-.17.79.79,0,0,0,.29-.57.81.81,0,0,0-.11-.34c0-.11-.11-.17-.23-.23a.52.52,0,0,0-.4-.17,3.06,3.06,0,0,0-.74-.06V71a2,2,0,0,0,.63-.06.82.82,0,0,0,.4-.11,1,1,0,0,0,.23-.28c0-.11.06-.17.06-.28a.55.55,0,0,0-.23-.51.7.7,0,0,0-.52-.17,1.66,1.66,0,0,0-.52.11c-.17.11-.29.23-.46.34l-.46-.51a2.39,2.39,0,0,1,.69-.46,1.83,1.83,0,0,1,.8-.17A2.14,2.14,0,0,1,408,69a2.3,2.3,0,0,1,.52.28,1,1,0,0,1,.29.4.93.93,0,0,1,.11.57,1.09,1.09,0,0,1-.23.68,1.34,1.34,0,0,1-.63.4v.06a1.34,1.34,0,0,1,.74.4,1.23,1.23,0,0,1,.29.8,1.68,1.68,0,0,1-.11.57,1.53,1.53,0,0,1-.4.46,1.51,1.51,0,0,1-.52.29,2.91,2.91,0,0,1-.69.11Z"/><path class="cls-6" d="M411.33,74a1.65,1.65,0,0,1-1-.23,2.05,2.05,0,0,1-.69-.46l.46-.57a3.17,3.17,0,0,0,.46.34,1.54,1.54,0,0,0,.69.17,1,1,0,0,0,.63-.17.79.79,0,0,0,.29-.57.81.81,0,0,0-.11-.34c0-.11-.11-.17-.23-.23a.52.52,0,0,0-.4-.17,2.82,2.82,0,0,0-.69-.06V71a1.76,1.76,0,0,0,.57-.06.82.82,0,0,0,.4-.11,1,1,0,0,0,.23-.28c0-.11.06-.17.06-.28a.55.55,0,0,0-.23-.51.7.7,0,0,0-.52-.17,1.66,1.66,0,0,0-.52.11c-.17.11-.29.23-.46.34l-.46-.51a2.39,2.39,0,0,1,.69-.46,1.83,1.83,0,0,1,.8-.17A2.14,2.14,0,0,1,412,69a2.3,2.3,0,0,1,.52.28,1,1,0,0,1,.29.4.93.93,0,0,1,.11.57,1.09,1.09,0,0,1-.23.68,1.47,1.47,0,0,1-.57.4v.06a1.38,1.38,0,0,1,.69.4,1,1,0,0,1,.29.8,1.68,1.68,0,0,1-.11.57,1.53,1.53,0,0,1-.4.46,1.11,1.11,0,0,1-.52.29,2.91,2.91,0,0,1-.69.11Z"/><path class="cls-6" d="M415.28,74a1.76,1.76,0,0,1-1-.23,2.05,2.05,0,0,1-.69-.46l.46-.57a2,2,0,0,0,.52.34,1.17,1.17,0,0,0,.63.17,1,1,0,0,0,.63-.17.79.79,0,0,0,.29-.57c0-.11-.06-.23-.06-.34a.57.57,0,0,0-.29-.23.52.52,0,0,0-.4-.17,2.82,2.82,0,0,0-.69-.06V71a1.76,1.76,0,0,0,.57-.06.82.82,0,0,0,.4-.11,1,1,0,0,0,.23-.28c0-.11.06-.17.06-.28a.69.69,0,0,0-.17-.51,1,1,0,0,0-.57-.17,1.66,1.66,0,0,0-.52.11c-.17.11-.29.23-.46.34l-.46-.51a2.39,2.39,0,0,1,.69-.46,1.83,1.83,0,0,1,.8-.17,2.14,2.14,0,0,1,.63.06,2.3,2.3,0,0,1,.52.28,1,1,0,0,1,.29.4.93.93,0,0,1,.11.57,1.09,1.09,0,0,1-.23.68,1.47,1.47,0,0,1-.57.4v.06a1.38,1.38,0,0,1,.69.4,1,1,0,0,1,.29.8.93.93,0,0,1-.11.57,1.53,1.53,0,0,1-.4.46,1.11,1.11,0,0,1-.52.29,2.91,2.91,0,0,1-.69.11Z"/><path class="cls-6" d="M419.23,74a1.76,1.76,0,0,1-1-.23,2.05,2.05,0,0,1-.69-.46l.46-.57a2,2,0,0,0,.52.34,1.16,1.16,0,0,0,.63.17,1,1,0,0,0,.63-.17.79.79,0,0,0,.29-.57c0-.11-.06-.23-.06-.34a.57.57,0,0,0-.29-.23.45.45,0,0,0-.4-.17,2.6,2.6,0,0,0-.69-.06V71a1.76,1.76,0,0,0,.57-.06.82.82,0,0,0,.4-.11,1,1,0,0,0,.23-.28.51.51,0,0,0,.06-.28.69.69,0,0,0-.17-.51,1,1,0,0,0-.57-.17,1.66,1.66,0,0,0-.52.11c-.17.11-.29.23-.46.34l-.46-.51a2.39,2.39,0,0,1,.69-.46,1.83,1.83,0,0,1,.8-.17,2.14,2.14,0,0,1,.63.06,1.49,1.49,0,0,1,.52.28,2.5,2.5,0,0,1,.34.4,1.68,1.68,0,0,1,.11.57,1.62,1.62,0,0,1-.23.68,2.38,2.38,0,0,1-.63.4v.06a1.38,1.38,0,0,1,.69.4,1,1,0,0,1,.29.8.93.93,0,0,1-.11.57,3.12,3.12,0,0,1-.34.46,1.8,1.8,0,0,1-.57.29,2.49,2.49,0,0,1-.69.11Z"/><path class="cls-6" d="M368,85.62h1.43a.18.18,0,0,1,.17.17v8.95a.18.18,0,0,1-.17.17H368a.15.15,0,0,1-.17-.17V85.79a.15.15,0,0,1,.17-.17Z"/><path class="cls-6" d="M372.46,85.62h-1.14a.18.18,0,0,0-.17.17v8.95a.18.18,0,0,0,.17.17h1.14a.15.15,0,0,0,.17-.17V85.79a.15.15,0,0,0-.17-.17Z"/><path class="cls-6" d="M374,85.62h2.18c.06,0,.11.06.11.17v9c0,.11-.06.17-.11.17H374a.15.15,0,0,1-.17-.17v-9a.15.15,0,0,1,.17-.17Z"/><path class="cls-6" d="M377.72,85.62h1a.15.15,0,0,1,.17.17v9a.15.15,0,0,1-.17.17h-1c-.06,0-.11-.06-.11-.17v-9c0-.11.06-.17.11-.17Z"/><path class="cls-6" d="M365,85.62h1c.06,0,.11.06.11.17v9c0,.11-.06.17-.11.17h-1a.15.15,0,0,1-.17-.17v-9a.15.15,0,0,1,.17-.17Z"/><path class="cls-6" d="M364,83.85l.92-.91a7.53,7.53,0,0,0,.69-.74,2.39,2.39,0,0,0,.46-.68,1.1,1.1,0,0,0,.17-.57.78.78,0,0,0-.23-.63.67.67,0,0,0-.57-.23.7.7,0,0,0-.52.17,1.55,1.55,0,0,0-.46.4l-.52-.51a3.65,3.65,0,0,1,.74-.57,1.92,1.92,0,0,1,.86-.17,1.14,1.14,0,0,1,.63.11,1.26,1.26,0,0,1,.46.28,1.38,1.38,0,0,1,.34.46,2.41,2.41,0,0,1,.11.63,1.51,1.51,0,0,1-.17.68,2.8,2.8,0,0,1-.4.63c-.11.23-.34.46-.52.74a8.69,8.69,0,0,0-.69.74c.11,0,.23-.06.4-.06h1.6v.74H364Z"/><path class="cls-6" d="M368,83.85l.92-.91a7.53,7.53,0,0,0,.69-.74,2.39,2.39,0,0,0,.46-.68,1.1,1.1,0,0,0,.17-.57.78.78,0,0,0-.23-.63.67.67,0,0,0-.57-.23.7.7,0,0,0-.52.17,1.55,1.55,0,0,0-.46.4l-.52-.51a3.65,3.65,0,0,1,.74-.57,1.92,1.92,0,0,1,.86-.17,1.14,1.14,0,0,1,.63.11,1.26,1.26,0,0,1,.46.28.89.89,0,0,1,.34.46,2.41,2.41,0,0,1,.11.63,1.51,1.51,0,0,1-.17.68c-.06.17-.23.4-.34.63a8.3,8.3,0,0,0-.57.74,8.69,8.69,0,0,0-.69.74c.11,0,.23-.06.4-.06h1.6v.74H368Z"/><path class="cls-6" d="M371.94,83.85l.92-.91a7.53,7.53,0,0,0,.69-.74,2.39,2.39,0,0,0,.46-.68,1.1,1.1,0,0,0,.17-.57.78.78,0,0,0-.23-.63.67.67,0,0,0-.57-.23.8.8,0,0,0-.52.17,2.88,2.88,0,0,0-.46.4l-.46-.51a6,6,0,0,1,.69-.57,1.92,1.92,0,0,1,.86-.17,1.14,1.14,0,0,1,.63.11,1.26,1.26,0,0,1,.46.28.89.89,0,0,1,.34.46,2.41,2.41,0,0,1,.11.63,1.51,1.51,0,0,1-.17.68c-.06.17-.23.4-.34.63s-.34.46-.57.74a8.69,8.69,0,0,0-.69.74c.11,0,.23-.06.4-.06h1.6v.74h-3.32Z"/><path class="cls-6" d="M375.89,83.85c.34-.34.69-.63.92-.91l.74-.74a2.14,2.14,0,0,0,.4-.68,1.1,1.1,0,0,0,.17-.57.78.78,0,0,0-.23-.63.67.67,0,0,0-.57-.23.93.93,0,0,0-.52.17,2.88,2.88,0,0,0-.46.4l-.46-.51a6,6,0,0,1,.69-.57,1.92,1.92,0,0,1,.86-.17,1.14,1.14,0,0,1,.63.11,2.38,2.38,0,0,1,.52.28,1.24,1.24,0,0,1,.29.46,2.41,2.41,0,0,1,.11.63,1.51,1.51,0,0,1-.17.68,2.33,2.33,0,0,1-.34.63c-.17.23-.34.46-.57.74a8.69,8.69,0,0,0-.69.74c.11,0,.29-.06.4-.06h1.6v.74h-3.32Z"/><rect class="cls-8" x="236.47" y="3.44" width="76.81" height="103.65"/><rect class="cls-9" x="235.14" y="1.84" width="79" height="104.95"/><path class="cls-10" d="M236.5,1.41h76.94a1,1,0,0,1,1,1V107.38a1,1,0,0,1-1,1H236.5a1,1,0,0,1-1-1V2.44a1,1,0,0,1,1-1Z"/><path class="cls-5" d="M251.15,63.8c0-9.34,4.41-16.86,9.85-16.86"/><path class="cls-11" d="M251.15,63.8c0-9.34,4.41-16.86,9.85-16.86"/><path class="cls-5" d="M251.15,63.8c0-5.76,4.24-10.48,9.39-10.48"/><path class="cls-11" d="M251.15,63.8c0-5.76,4.24-10.48,9.39-10.48"/><path class="cls-5" d="M251.15,63.8c0-2.91,3.61-5.24,8.07-5.24"/><path class="cls-11" d="M251.15,63.8c0-2.91,3.61-5.24,8.07-5.24"/><path class="cls-5" d="M251.15,63.8c0-9.34-4.41-16.86-9.85-16.86"/><path class="cls-11" d="M251.15,63.8c0-9.34-4.41-16.86-9.85-16.86"/><path class="cls-5" d="M251.15,63.8c0-5.76-4.18-10.48-9.39-10.48"/><path class="cls-11" d="M251.15,63.8c0-5.76-4.18-10.48-9.39-10.48"/><path class="cls-5" d="M251.15,63.8c0-2.91-3.61-5.24-8.07-5.24"/><path class="cls-11" d="M251.15,63.8c0-2.91-3.61-5.24-8.07-5.24"/><line class="cls-5" x1="251.15" y1="63.8" x2="251.15" y2="42.26"/><line class="cls-11" x1="251.15" y1="63.8" x2="251.15" y2="42.26"/><path class="cls-4" d="M247.83,75.65c-.69-.51-.92-1.6-1.37-5.75-.46-4.56-.4-5.36.46-5.87.52-.34,3.43-.86,16.77-3.08,8.42-1.42,12-2.17,12.82-2.62s.86-.74,3.38-10.2c1.83-6.67,2-7.29,2.46-7.46.69-.17,1.14.4,1.26,1.42,0,.51-.17,3.59-.4,7-.63,8.38-.63,8.26-.23,8.43s13.8-1.14,21.87-2.05l3.49-.4.34.68a4.8,4.8,0,0,1,.4,1.82c.11,1.42-.17,1.88-1.72,2.51-1.95.74-11.22,3.25-19.52,5.24-26,6.27-26,6.27-33.95,8.89-5.5,1.82-5.61,1.82-6.07,1.48Z"/><path class="cls-5" d="M295.41,49a3.27,3.27,0,0,0-.86-1.31,4.09,4.09,0,0,0-1.14-.8,4.53,4.53,0,0,0-1.26-.4,4,4,0,0,0-1.14-.17h-1.14a19.07,19.07,0,0,0,3.32-2.11l.11.17a1.88,1.88,0,0,0,.34.46l.57.57a2.57,2.57,0,0,0,.74.57,5.11,5.11,0,0,0,1,.46,3,3,0,0,0,1.09.28,9.32,9.32,0,0,0,1.26-.11A4.41,4.41,0,0,0,299.7,46a9,9,0,0,0,1.55-1.14,4.65,4.65,0,0,0-.86-1.37,5.82,5.82,0,0,0-1.09-.8,4.8,4.8,0,0,0-1.2-.34,9,9,0,0,0-1.14-.06,4.9,4.9,0,0,0-1,.17,2.86,2.86,0,0,0-.69.17c-.11,0-.17.06-.29.06l.69-.68c.34-.28.46-.46.52-.46l.17-.11a1.77,1.77,0,0,0,.57-.28c.23-.11.46-.23.74-.4a8.12,8.12,0,0,0,.86-.63c.29-.28.52-.51.8-.85a3.24,3.24,0,0,0,.69-1,7.33,7.33,0,0,0,.4-1.2,4,4,0,0,0,0-1.42A5.94,5.94,0,0,0,300,34a5.33,5.33,0,0,0-1.95.74,5.14,5.14,0,0,0-1.32,1.08,7.83,7.83,0,0,0-.8,1.37,9.25,9.25,0,0,0-.57,2.56v.86a.72.72,0,0,0,.06.34c-.52.46-1.14,1-2,1.77l.11-.17a2.29,2.29,0,0,1,.29-.51,6.86,6.86,0,0,1,.29-.8,4.82,4.82,0,0,0,.23-1,6.25,6.25,0,0,0,.11-1,7,7,0,0,0-.11-1.08,3.78,3.78,0,0,0-.52-1.08,3.91,3.91,0,0,0-1-1,6.7,6.7,0,0,0-1.43-.74,5.49,5.49,0,0,0-1,1.48,3.23,3.23,0,0,0-.46,1.37,4.59,4.59,0,0,0,0,1.25,6,6,0,0,0,.29,1.08,8.57,8.57,0,0,0,.57,1,9.74,9.74,0,0,0,.57.8,5.42,5.42,0,0,1,.57.57,3.52,3.52,0,0,1,.4.34c.11.06.17.11.23.11a21.67,21.67,0,0,1-3.49,2.17,5.13,5.13,0,0,0,.34-1.25,4.4,4.4,0,0,0-.06-1.48,4,4,0,0,0-.52-1.6,5,5,0,0,0-1.32-1.48,8.24,8.24,0,0,0-2.35-1.2,11.18,11.18,0,0,0-.8,2,6.31,6.31,0,0,0-.23,1.65,4.87,4.87,0,0,0,.23,1.37,2.89,2.89,0,0,0,.52,1,3.26,3.26,0,0,0,.74.8c.29.23.57.4.8.57s.57.28.86.4a11.21,11.21,0,0,1-5,.68s-1.72.86.46,1a25.68,25.68,0,0,0,5.38-.85l.06.23a1.72,1.72,0,0,0,.17.63c.06.23.17.51.29.86s.34.63.52.91.52.57.74.86a3.39,3.39,0,0,0,1,.74,8.08,8.08,0,0,0,1.26.4,5.32,5.32,0,0,0,1.6-.11,7.59,7.59,0,0,0,2-.68,4.55,4.55,0,0,0-.46-1.88Z"/><path class="cls-6" d="M292.26,75.14h1.43a.18.18,0,0,1,.17.17v8.95a.18.18,0,0,1-.17.17h-1.43a.15.15,0,0,1-.17-.17V75.31a.15.15,0,0,1,.17-.17Z"/><path class="cls-6" d="M296.72,75.14h-1.14a.18.18,0,0,0-.17.17v8.95a.18.18,0,0,0,.17.17h1.14a.15.15,0,0,0,.17-.17V75.31a.15.15,0,0,0-.17-.17Z"/><path class="cls-6" d="M298.27,75.14h2.18c.06,0,.11.06.11.17v9c0,.11-.06.17-.11.17h-2.18a.15.15,0,0,1-.17-.17v-9a.15.15,0,0,1,.17-.17Z"/><path class="cls-6" d="M302,75.14h1a.15.15,0,0,1,.17.17v9a.15.15,0,0,1-.17.17h-1c-.06,0-.11-.06-.11-.17v-9c0-.11.06-.17.11-.17Z"/><path class="cls-6" d="M289.28,75.14h1c.06,0,.11.06.11.17v9c0,.11-.06.17-.11.17h-1a.15.15,0,0,1-.17-.17v-9a.15.15,0,0,1,.17-.17Z"/><path class="cls-6" d="M289.85,74a1.65,1.65,0,0,1-1-.23,2.05,2.05,0,0,1-.69-.46l.46-.57a2,2,0,0,0,.52.34,1.17,1.17,0,0,0,.63.17,1,1,0,0,0,.63-.17.79.79,0,0,0,.29-.57.81.81,0,0,0-.11-.34c0-.11-.11-.17-.23-.23a.52.52,0,0,0-.4-.17,2.82,2.82,0,0,0-.69-.06V71a1.76,1.76,0,0,0,.57-.06.82.82,0,0,0,.4-.11,1,1,0,0,0,.23-.28c0-.11.06-.17.06-.28a.55.55,0,0,0-.23-.51.7.7,0,0,0-.52-.17,1.66,1.66,0,0,0-.52.11c-.17.11-.29.23-.46.34l-.46-.51a2.39,2.39,0,0,1,.69-.46,1.83,1.83,0,0,1,.8-.17,2.14,2.14,0,0,1,.63.06,2.3,2.3,0,0,1,.52.28,1,1,0,0,1,.29.4.93.93,0,0,1,.11.57,1.09,1.09,0,0,1-.23.68,1.47,1.47,0,0,1-.57.4v.06a1.38,1.38,0,0,1,.69.4,1,1,0,0,1,.29.8,1.68,1.68,0,0,1-.11.57,1.53,1.53,0,0,1-.4.46,1.11,1.11,0,0,1-.52.29,2.91,2.91,0,0,1-.69.11Z"/><path class="cls-6" d="M293.8,74a1.76,1.76,0,0,1-1-.23,2.05,2.05,0,0,1-.69-.46l.46-.57a2,2,0,0,0,.52.34,1.16,1.16,0,0,0,.63.17,1,1,0,0,0,.63-.17.79.79,0,0,0,.29-.57c0-.11-.06-.23-.06-.34a.57.57,0,0,0-.29-.23.52.52,0,0,0-.4-.17,2.82,2.82,0,0,0-.69-.06V71a1.76,1.76,0,0,0,.57-.06.82.82,0,0,0,.4-.11,1,1,0,0,0,.23-.28.51.51,0,0,0,.06-.28.69.69,0,0,0-.17-.51,1,1,0,0,0-.57-.17,1.66,1.66,0,0,0-.52.11c-.17.11-.29.23-.46.34l-.46-.51a2.39,2.39,0,0,1,.69-.46,1.83,1.83,0,0,1,.8-.17,2.14,2.14,0,0,1,.63.06,1.49,1.49,0,0,1,.52.28,1,1,0,0,1,.29.4,1,1,0,0,1,.17.57,1.18,1.18,0,0,1-.29.68,1.47,1.47,0,0,1-.57.4v.06a1.38,1.38,0,0,1,.69.4,1,1,0,0,1,.29.8.93.93,0,0,1-.11.57,1.53,1.53,0,0,1-.4.46,1.11,1.11,0,0,1-.52.29,2.91,2.91,0,0,1-.69.11Z"/><path class="cls-6" d="M297.75,74a1.76,1.76,0,0,1-1-.23,2.05,2.05,0,0,1-.69-.46l.46-.57a2,2,0,0,0,.52.34,1.17,1.17,0,0,0,.63.17,1,1,0,0,0,.63-.17.79.79,0,0,0,.29-.57c0-.11-.06-.23-.06-.34a.57.57,0,0,0-.29-.23.45.45,0,0,0-.4-.17,2.39,2.39,0,0,0-.69-.06V71a1.76,1.76,0,0,0,.57-.06.82.82,0,0,0,.4-.11,1,1,0,0,0,.23-.28.51.51,0,0,0,.06-.28.69.69,0,0,0-.17-.51,1,1,0,0,0-.57-.17,1.66,1.66,0,0,0-.52.11c-.17.11-.29.23-.46.34l-.46-.51a2.39,2.39,0,0,1,.69-.46,1.83,1.83,0,0,1,.8-.17,2.14,2.14,0,0,1,.63.06,1.49,1.49,0,0,1,.52.28,2.5,2.5,0,0,1,.34.4,1.68,1.68,0,0,1,.11.57,1.62,1.62,0,0,1-.23.68,2.38,2.38,0,0,1-.63.4v.06a1.38,1.38,0,0,1,.69.4,1,1,0,0,1,.29.8.93.93,0,0,1-.11.57,3.13,3.13,0,0,1-.34.46,1.8,1.8,0,0,1-.57.29,2.49,2.49,0,0,1-.69.11Z"/><path class="cls-6" d="M301.7,74a1.76,1.76,0,0,1-1-.23,2.05,2.05,0,0,1-.69-.46l.46-.57a2,2,0,0,0,.52.34,1.16,1.16,0,0,0,.63.17.93.93,0,0,0,.63-.17.79.79,0,0,0,.29-.57c0-.11-.06-.23-.06-.34a.57.57,0,0,0-.29-.23.45.45,0,0,0-.4-.17,2.39,2.39,0,0,0-.69-.06V71a1.76,1.76,0,0,0,.57-.06.82.82,0,0,0,.4-.11,1,1,0,0,0,.23-.28.51.51,0,0,0,.06-.28.69.69,0,0,0-.17-.51,1,1,0,0,0-.57-.17,1.66,1.66,0,0,0-.52.11c-.17.11-.29.23-.46.34l-.46-.51a2.39,2.39,0,0,1,.69-.46,1.83,1.83,0,0,1,.8-.17,2.14,2.14,0,0,1,.63.06,1.1,1.1,0,0,1,.52.28,2.5,2.5,0,0,1,.34.4,1.68,1.68,0,0,1,.11.57,1.62,1.62,0,0,1-.23.68,2.38,2.38,0,0,1-.63.4v.06a1.38,1.38,0,0,1,.69.4,1,1,0,0,1,.29.8.93.93,0,0,1-.11.57,1.36,1.36,0,0,1-.34.46,1.8,1.8,0,0,1-.57.29,2.49,2.49,0,0,1-.69.11Z"/><path class="cls-6" d="M250.47,85.62h1.43a.15.15,0,0,1,.17.17v8.95a.15.15,0,0,1-.17.17h-1.43a.15.15,0,0,1-.17-.17V85.79a.15.15,0,0,1,.17-.17Z"/><path class="cls-6" d="M254.93,85.62h-1.14a.18.18,0,0,0-.17.17v8.95a.18.18,0,0,0,.17.17h1.14a.15.15,0,0,0,.17-.17V85.79a.15.15,0,0,0-.17-.17Z"/><path class="cls-6" d="M256.48,85.62h2.18a.18.18,0,0,1,.17.17v9a.18.18,0,0,1-.17.17h-2.18a.15.15,0,0,1-.17-.17v-9a.15.15,0,0,1,.17-.17Z"/><path class="cls-6" d="M260.2,85.62h1.09c.06,0,.11.06.11.17v9c0,.11-.06.17-.11.17H260.2c-.06,0-.11-.06-.11-.17v-9c0-.11.06-.17.11-.17Z"/><path class="cls-6" d="M247.49,85.62h1a.18.18,0,0,1,.17.17v9a.18.18,0,0,1-.17.17h-1a.15.15,0,0,1-.17-.17v-9a.15.15,0,0,1,.17-.17Z"/><path class="cls-6" d="M246.52,83.85l.92-.91a7.53,7.53,0,0,0,.69-.74,2.39,2.39,0,0,0,.46-.68,1.1,1.1,0,0,0,.17-.57.78.78,0,0,0-.23-.63.67.67,0,0,0-.57-.23.7.7,0,0,0-.52.17,1.55,1.55,0,0,0-.46.4l-.46-.51a2.28,2.28,0,0,1,.69-.57,1.92,1.92,0,0,1,.86-.17,1.14,1.14,0,0,1,.63.11,1.26,1.26,0,0,1,.46.28.89.89,0,0,1,.34.46,2.41,2.41,0,0,1,.11.63,1.51,1.51,0,0,1-.17.68c-.06.17-.23.4-.34.63s-.34.46-.57.74a8.69,8.69,0,0,0-.69.74c.11,0,.23-.06.4-.06h1.6v.74h-3.32Z"/><path class="cls-6" d="M250.47,83.85c.34-.34.69-.63.92-.91a7.53,7.53,0,0,0,.69-.74,2.39,2.39,0,0,0,.46-.68,1.1,1.1,0,0,0,.17-.57.78.78,0,0,0-.23-.63.67.67,0,0,0-.57-.23.8.8,0,0,0-.52.17,2.88,2.88,0,0,0-.46.4l-.46-.51a6,6,0,0,1,.69-.57,1.92,1.92,0,0,1,.86-.17,1.14,1.14,0,0,1,.63.11,2.38,2.38,0,0,1,.52.28,1.24,1.24,0,0,1,.29.46,2.41,2.41,0,0,1,.11.63,1.51,1.51,0,0,1-.17.68c-.06.17-.23.4-.34.63s-.34.46-.57.74a8.69,8.69,0,0,0-.69.74c.11,0,.29-.06.4-.06h1.6v.74h-3.32Z"/><path class="cls-6" d="M254.42,83.85c.34-.34.69-.63.92-.91l.74-.74a2.14,2.14,0,0,0,.4-.68,1.1,1.1,0,0,0,.17-.57.78.78,0,0,0-.23-.63.67.67,0,0,0-.57-.23.92.92,0,0,0-.52.17,2.88,2.88,0,0,0-.46.4l-.46-.51a6,6,0,0,1,.69-.57,1.92,1.92,0,0,1,.86-.17,1.14,1.14,0,0,1,.63.11,2.38,2.38,0,0,1,.52.28,1.25,1.25,0,0,1,.29.46,2.41,2.41,0,0,1,.11.63,1.51,1.51,0,0,1-.17.68,2.33,2.33,0,0,1-.34.63c-.17.23-.34.46-.57.74a8.69,8.69,0,0,0-.69.74c.11,0,.29-.06.4-.06h1.6v.74h-3.32Z"/><path class="cls-6" d="M258.37,83.85c.34-.34.69-.63.92-.91l.74-.74a2.14,2.14,0,0,0,.4-.68,1.1,1.1,0,0,0,.17-.57.78.78,0,0,0-.23-.63.6.6,0,0,0-.57-.23.93.93,0,0,0-.52.17,2.88,2.88,0,0,0-.46.4l-.46-.51a6,6,0,0,1,.69-.57,1.92,1.92,0,0,1,.86-.17,1.14,1.14,0,0,1,.63.11,2.38,2.38,0,0,1,.52.28,1.24,1.24,0,0,1,.29.46,2.41,2.41,0,0,1,.11.63,1.51,1.51,0,0,1-.17.68,2.33,2.33,0,0,1-.34.63c-.17.23-.34.46-.57.74a8.69,8.69,0,0,0-.69.74c.11,0,.29-.06.4-.06h1.6v.74h-3.32Z"/></svg>