<svg id="Layer_1" data-name="Layer 1" xmlns="http://www.w3.org/2000/svg" viewBox="0 0 432.08 109.82"><defs><style>.cls-1,.cls-12,.cls-6{fill:#fff;}.cls-1,.cls-6{stroke:#010101;}.cls-1,.cls-11,.cls-13,.cls-4,.cls-6,.cls-9{stroke-linecap:round;}.cls-1,.cls-13,.cls-6{stroke-linejoin:round;}.cls-1{stroke-width:0.84px;}.cls-10,.cls-13,.cls-2,.cls-3,.cls-4,.cls-5{fill:#69bd45;}.cls-11,.cls-13,.cls-3,.cls-4,.cls-5{stroke:#69bd45;}.cls-11,.cls-3,.cls-4,.cls-5,.cls-9{stroke-miterlimit:10;}.cls-11,.cls-4,.cls-9{stroke-width:1.08px;}.cls-10,.cls-5{fill-rule:evenodd;}.cls-6{stroke-width:0.84px;}.cls-7{fill:#010101;}.cls-8{fill:#f26722;}.cls-11,.cls-9{fill:none;}.cls-9{stroke:#f26722;}.cls-13{fill-opacity:0.2;stroke-width:2.82px;}</style></defs><title>case-g</title><path class="cls-1" d="M1.45.42H78.39a1,1,0,0,1,1,1V106.4a1,1,0,0,1-1,1H1.45a1,1,0,0,1-1-1V1.45a1,1,0,0,1,1-1Z"/><path class="cls-2" d="M66.37,92.66H65.22a.15.15,0,0,0-.17.17v8.95a.15.15,0,0,0,.17.17h1.14c.06,0,.11-.06.11-.17V92.84c0-.11-.06-.17-.11-.17Z"/><path class="cls-2" d="M67.86,92.66H70a.15.15,0,0,1,.17.17v9A.15.15,0,0,1,70,102H67.86c-.06,0-.11-.06-.11-.17v-9c0-.11.06-.17.11-.17Z"/><path class="cls-2" d="M71.63,92.66h1a.15.15,0,0,1,.17.17v9a.15.15,0,0,1-.17.17h-1a.15.15,0,0,1-.17-.17v-9a.15.15,0,0,1,.17-.17Z"/><path class="cls-2" d="M58.87,92.66h1a.15.15,0,0,1,.17.17v9a.15.15,0,0,1-.17.17h-1c-.06,0-.11-.06-.11-.17v-9c0-.11.06-.17.11-.17Z"/><path class="cls-2" d="M61.85,92.66h1.49c.06,0,.11.06.11.17v8.95c0,.11-.06.17-.11.17H61.85c-.06,0-.11-.06-.11-.17V92.84c0-.11.06-.17.11-.17Z"/><path class="cls-2" d="M58.24,90.67h1.09V87.48h-.92v-.57A2.08,2.08,0,0,0,59,86.8c.17-.06.34-.17.52-.23h.63v4.1h1v.74H58.24Z"/><path class="cls-2" d="M61.9,90.9l.92-.91a7.53,7.53,0,0,0,.69-.74,4.8,4.8,0,0,0,.46-.68,1.34,1.34,0,0,0-.06-1.2.78.78,0,0,0-.63-.23.92.92,0,0,0-.52.17,2.66,2.66,0,0,0-.4.4l-.52-.51a6,6,0,0,1,.69-.57,1.92,1.92,0,0,1,.86-.17,2.49,2.49,0,0,1,.69.11,1.26,1.26,0,0,1,.46.28,1.24,1.24,0,0,1,.29.46,1.22,1.22,0,0,1,.11.63,1.44,1.44,0,0,1-.11.68c-.11.23-.23.4-.4.68s-.34.46-.57.68a7.53,7.53,0,0,1-.69.74c.17,0,.29-.06.46-.06h1.6v.74H61.9Z"/><path class="cls-2" d="M67.4,91.53a2.22,2.22,0,0,1-1-.23,2.05,2.05,0,0,1-.69-.46l.4-.57.52.34a1.37,1.37,0,0,0,.69.17,1.16,1.16,0,0,0,.63-.17A.73.73,0,0,0,68.2,90a.72.72,0,0,0-.06-.34,1,1,0,0,0-.23-.28.89.89,0,0,0-.46-.11,2.39,2.39,0,0,0-.69-.06v-.68a2.14,2.14,0,0,0,.63-.06.82.82,0,0,0,.4-.11c.06-.11.17-.17.17-.28s.11-.17.11-.28a.72.72,0,0,0-.23-.51.7.7,0,0,0-.52-.17,1.36,1.36,0,0,0-.52.11,3.11,3.11,0,0,0-.46.34l-.46-.51a1.62,1.62,0,0,1,.63-.46,2,2,0,0,1,.8-.17,2.56,2.56,0,0,1,.69.06,1.24,1.24,0,0,1,.46.28.77.77,0,0,1,.34.4,1.66,1.66,0,0,1,.11.51,1.14,1.14,0,0,1-.23.74,1.34,1.34,0,0,1-.63.4v.06a1.2,1.2,0,0,1,.74.4,1.23,1.23,0,0,1,.29.8,1.68,1.68,0,0,1-.11.57,1.53,1.53,0,0,1-.4.46,2.34,2.34,0,0,1-.52.29,2.91,2.91,0,0,1-.69.11Z"/><path class="cls-2" d="M71.81,89.47v-1.6a1.26,1.26,0,0,1,.06-.51h-.06l-.17.34a2.49,2.49,0,0,1-.23.4l-.86,1.37Zm1.43.68h-.57v1.25h-.86V90.16H69.63v-.63l1.95-3h1.09v2.91h.57Z"/><path class="cls-3" d="M16.11,62.81c0-9.34,4.41-16.86,9.9-16.86"/><path class="cls-4" d="M16.11,62.81c0-9.34,4.41-16.86,9.9-16.86"/><path class="cls-3" d="M16.11,62.81c0-5.76,4.24-10.48,9.45-10.48"/><path class="cls-4" d="M16.11,62.81c0-5.76,4.24-10.48,9.45-10.48"/><path class="cls-3" d="M16.11,62.81c0-2.91,3.61-5.24,8.07-5.24"/><path class="cls-4" d="M16.11,62.81c0-2.91,3.61-5.24,8.07-5.24"/><path class="cls-3" d="M16.11,62.81c0-9.34-4.35-16.86-9.85-16.86"/><path class="cls-4" d="M16.11,62.81c0-9.34-4.35-16.86-9.85-16.86"/><path class="cls-3" d="M16.11,62.81c0-5.76-4.18-10.48-9.39-10.48"/><path class="cls-4" d="M16.11,62.81c0-5.76-4.18-10.48-9.39-10.48"/><path class="cls-3" d="M16.11,62.81c0-2.91-3.55-5.24-8-5.24"/><path class="cls-4" d="M16.11,62.81c0-2.91-3.55-5.24-8-5.24"/><line class="cls-3" x1="16.11" y1="62.81" x2="16.11" y2="41.27"/><line class="cls-4" x1="16.11" y1="62.81" x2="16.11" y2="41.27"/><path class="cls-5" d="M12.79,74.66c-.69-.51-.92-1.6-1.32-5.75-.46-4.56-.4-5.36.4-5.87.52-.34,3.43-.86,16.77-3.08,8.42-1.42,12-2.17,12.88-2.62.74-.4.86-.74,3.38-10.2,1.77-6.67,1.95-7.29,2.4-7.46.69-.17,1.14.4,1.26,1.42.06.51-.17,3.59-.4,7-.63,8.38-.63,8.26-.17,8.43s13.74-1.14,21.81-2.05l3.49-.4.34.68a6,6,0,0,1,.46,1.82c.11,1.42-.23,1.88-1.77,2.51-1.95.74-11.22,3.25-19.52,5.24-25.93,6.27-26,6.27-33.95,8.89C13.36,75,13.24,75,12.79,74.66Z"/><path class="cls-2" d="M60.41,48.05a4.05,4.05,0,0,0-.92-1.31,3.4,3.4,0,0,0-1.14-.8,4,4,0,0,0-1.26-.4,3.73,3.73,0,0,0-1.14-.17H54.8a19.07,19.07,0,0,0,3.32-2.11l.11.17a1.88,1.88,0,0,0,.34.46l.57.57a3.69,3.69,0,0,0,.74.57,5.11,5.11,0,0,0,1,.46,3.4,3.4,0,0,0,1.09.28,10.17,10.17,0,0,0,1.32-.11A5,5,0,0,0,64.71,45a8.7,8.7,0,0,0,1.49-1.14,4.65,4.65,0,0,0-.86-1.37,5.82,5.82,0,0,0-1.09-.8,4.8,4.8,0,0,0-1.2-.34,8.57,8.57,0,0,0-1.14-.06,5.76,5.76,0,0,0-1,.17,2.86,2.86,0,0,0-.69.17c-.11,0-.17.06-.23.06L60.7,41l.46-.46.23-.11a2.5,2.5,0,0,0,.52-.28c.23-.11.46-.23.74-.4a8.12,8.12,0,0,0,.86-.63,5.7,5.7,0,0,0,.8-.85,3.24,3.24,0,0,0,.69-1,4.21,4.21,0,0,0,.4-1.2,3,3,0,0,0,0-1.42A6,6,0,0,0,64.94,33a5.33,5.33,0,0,0-1.95.74,6.36,6.36,0,0,0-1.32,1.08,5.23,5.23,0,0,0-.74,1.37,5.46,5.46,0,0,0-.46,1.37l-.17,1.2v.86c0,.11.06.23.06.34-.46.46-1.14,1-2,1.77l.17-.17a2,2,0,0,1,.23-.51,6.86,6.86,0,0,1,.29-.8,4.82,4.82,0,0,0,.23-1,6.25,6.25,0,0,0,.11-1,2.34,2.34,0,0,0-.11-1.08,3.78,3.78,0,0,0-.52-1.08,4.77,4.77,0,0,0-.92-1,7.25,7.25,0,0,0-1.49-.74,7.31,7.31,0,0,0-1,1.48,4.28,4.28,0,0,0-.46,1.37,4.59,4.59,0,0,0,0,1.25,3.42,3.42,0,0,0,.34,1.08,4,4,0,0,0,.52,1c.23.28.4.57.57.8a5.42,5.42,0,0,1,.57.57,4.42,4.42,0,0,0,.46.34c.06.06.11.11.17.11a24.12,24.12,0,0,1-3.43,2.17,9.92,9.92,0,0,0,.29-1.25,6.39,6.39,0,0,0,0-1.48,7.44,7.44,0,0,0-.52-1.6,6.37,6.37,0,0,0-1.37-1.48,8.24,8.24,0,0,0-2.35-1.2,10.74,10.74,0,0,0-.74,2,6.67,6.67,0,0,0-.29,1.65,8.49,8.49,0,0,0,.23,1.37,8.55,8.55,0,0,0,.52,1,5,5,0,0,0,.74.8,7.52,7.52,0,0,0,.86.57c.23.11.52.28.8.4a11.07,11.07,0,0,1-4.92.68s-1.77.86.46,1a25.8,25.8,0,0,0,5.32-.85l.06.23a1.72,1.72,0,0,0,.17.63,4.39,4.39,0,0,0,.34.86,3.68,3.68,0,0,0,.52.91,9.92,9.92,0,0,0,.74.86,2.59,2.59,0,0,0,1,.74,8.08,8.08,0,0,0,1.26.4,5.82,5.82,0,0,0,1.66-.11,8,8,0,0,0,1.95-.68,5.73,5.73,0,0,0-.4-1.88Z"/><path class="cls-6" d="M118.86.42H195.8a1,1,0,0,1,1,1V106.4a1,1,0,0,1-1,1H118.86a1,1,0,0,1-1-1V1.45a1,1,0,0,1,1-1Z"/><path class="cls-7" d="M179.32,92.66h1.43c.06,0,.11.06.11.17v8.95c0,.11-.06.17-.11.17h-1.43a.15.15,0,0,1-.17-.17V92.84a.15.15,0,0,1,.17-.17Z"/><path class="cls-7" d="M183.78,92.66h-1.14a.15.15,0,0,0-.17.17v8.95a.15.15,0,0,0,.17.17h1.14c.06,0,.11-.06.11-.17V92.84c0-.11-.06-.17-.11-.17Z"/><path class="cls-7" d="M185.27,92.66h2.18a.15.15,0,0,1,.17.17v9a.15.15,0,0,1-.17.17h-2.18c-.06,0-.11-.06-.11-.17v-9c0-.11.06-.17.11-.17Z"/><path class="cls-7" d="M189,92.66h1a.15.15,0,0,1,.17.17v9a.15.15,0,0,1-.17.17h-1a.18.18,0,0,1-.17-.17v-9a.18.18,0,0,1,.17-.17Z"/><path class="cls-7" d="M176.28,92.66h1a.15.15,0,0,1,.17.17v9a.15.15,0,0,1-.17.17h-1c-.06,0-.11-.06-.11-.17v-9c0-.11.06-.17.11-.17Z"/><path class="cls-7" d="M175.65,90.67h1.09V87.48h-.92v-.57a2.08,2.08,0,0,0,.63-.11c.17-.06.34-.17.52-.23h.63v4.1h1v.74h-2.92Z"/><path class="cls-7" d="M179.32,90.9l.92-.91a7.53,7.53,0,0,0,.69-.74,4.8,4.8,0,0,0,.46-.68,1.1,1.1,0,0,0,.17-.57,1,1,0,0,0-.23-.63.72.72,0,0,0-.63-.23.93.93,0,0,0-.52.17,2.66,2.66,0,0,0-.4.4l-.52-.51a6,6,0,0,1,.69-.57,2.1,2.1,0,0,1,.86-.17,2.49,2.49,0,0,1,.69.11,1.26,1.26,0,0,1,.46.28,1.24,1.24,0,0,1,.29.46,1.29,1.29,0,0,1,.17.63,1.51,1.51,0,0,1-.17.68c-.11.23-.23.4-.4.68s-.34.46-.57.68a7.53,7.53,0,0,1-.69.74c.17,0,.29-.06.46-.06h1.6v.74h-3.32Z"/><path class="cls-7" d="M184.81,91.53a2.22,2.22,0,0,1-1-.23,2.05,2.05,0,0,1-.69-.46l.4-.57.52.34a1.37,1.37,0,0,0,.69.17,1.17,1.17,0,0,0,.63-.17.73.73,0,0,0,.23-.57.72.72,0,0,0-.06-.34,1,1,0,0,0-.23-.28.89.89,0,0,0-.46-.11,2.39,2.39,0,0,0-.69-.06v-.68a2,2,0,0,0,.63-.06.82.82,0,0,0,.4-.11c.06-.11.17-.17.17-.28s.11-.17.11-.28a.55.55,0,0,0-.23-.51.7.7,0,0,0-.52-.17,1.66,1.66,0,0,0-.52.11,3.11,3.11,0,0,0-.46.34l-.46-.51a1.81,1.81,0,0,1,.69-.46,1.67,1.67,0,0,1,.8-.17,2.34,2.34,0,0,1,.63.06,2.3,2.3,0,0,1,.52.28,1,1,0,0,1,.29.4.84.84,0,0,1,.11.51,1.14,1.14,0,0,1-.23.74,1.33,1.33,0,0,1-.63.4v.06a1.2,1.2,0,0,1,.74.4,1.23,1.23,0,0,1,.29.8,1.68,1.68,0,0,1-.11.57,1.53,1.53,0,0,1-.4.46,1.51,1.51,0,0,1-.52.29,2.91,2.91,0,0,1-.69.11Z"/><path class="cls-7" d="M189.22,89.47v-1.6c0-.23.06-.4.06-.51h-.06l-.17.34a2.49,2.49,0,0,1-.23.4L188,89.47Zm1.43.68h-.57v1.25h-.86V90.16H187v-.63l1.95-3h1.09v2.91h.57Z"/><path class="cls-8" d="M133.58,62.81c0-9.34,4.41-16.86,9.85-16.86"/><path class="cls-9" d="M133.58,62.81c0-9.34,4.41-16.86,9.85-16.86"/><path class="cls-8" d="M133.58,62.81c0-5.76,4.18-10.48,9.39-10.48"/><path class="cls-9" d="M133.58,62.81c0-5.76,4.18-10.48,9.39-10.48"/><path class="cls-8" d="M133.58,62.81c0-2.91,3.61-5.24,8-5.24"/><path class="cls-9" d="M133.58,62.81c0-2.91,3.61-5.24,8-5.24"/><path class="cls-8" d="M133.58,62.81c0-9.34-4.41-16.86-9.85-16.86"/><path class="cls-9" d="M133.58,62.81c0-9.34-4.41-16.86-9.85-16.86"/><path class="cls-8" d="M133.58,62.81c0-5.76-4.24-10.48-9.45-10.48"/><path class="cls-9" d="M133.58,62.81c0-5.76-4.24-10.48-9.45-10.48"/><path class="cls-8" d="M133.58,62.81c0-2.91-3.61-5.24-8.07-5.24"/><path class="cls-9" d="M133.58,62.81c0-2.91-3.61-5.24-8.07-5.24"/><line class="cls-8" x1="133.58" y1="62.81" x2="133.58" y2="41.27"/><line class="cls-9" x1="133.58" y1="62.81" x2="133.58" y2="41.27"/><path class="cls-10" d="M130.2,74.66c-.69-.51-.92-1.6-1.32-5.75-.46-4.56-.4-5.36.4-5.87.52-.34,3.43-.86,16.77-3.08,8.42-1.42,12-2.17,12.88-2.62.74-.4.86-.74,3.38-10.2,1.77-6.67,2-7.29,2.4-7.46.69-.17,1.2.4,1.26,1.42.06.51-.17,3.59-.4,7-.63,8.38-.63,8.26-.17,8.43s13.74-1.14,21.81-2.05l3.49-.4.34.68a6,6,0,0,1,.46,1.82c.11,1.42-.23,1.88-1.77,2.51-1.95.74-11.22,3.25-19.52,5.24-25.93,6.27-26,6.27-33.95,8.89-5.5,1.82-5.61,1.82-6.07,1.48Z"/><path class="cls-2" d="M177.83,48.05a5.19,5.19,0,0,0-.86-1.31,4.39,4.39,0,0,0-1.2-.8,4,4,0,0,0-1.26-.4,3.73,3.73,0,0,0-1.14-.17h-1.14a19.07,19.07,0,0,0,3.32-2.11l.11.17a1.88,1.88,0,0,0,.34.46l.57.57a3.69,3.69,0,0,0,.74.57,7.52,7.52,0,0,0,1,.46,3.37,3.37,0,0,0,1.14.28,10.23,10.23,0,0,0,1.26-.11,5,5,0,0,0,1.43-.63,6.94,6.94,0,0,0,1.49-1.14,4.65,4.65,0,0,0-.86-1.37,4.42,4.42,0,0,0-1.09-.8,4.8,4.8,0,0,0-1.2-.34,8.57,8.57,0,0,0-1.14-.06,7,7,0,0,0-1,.17,2.86,2.86,0,0,0-.69.17c-.11,0-.17.06-.23.06l.69-.68.46-.46.23-.11a2.5,2.5,0,0,0,.52-.28c.23-.11.46-.23.74-.4a8.12,8.12,0,0,0,.86-.63,5.7,5.7,0,0,0,.8-.85,3.24,3.24,0,0,0,.69-1,4.21,4.21,0,0,0,.4-1.2,3.87,3.87,0,0,0,.06-1.42,9.15,9.15,0,0,0-.52-1.65,4.7,4.7,0,0,0-1.89.74,4.31,4.31,0,0,0-1.32,1.08,4.1,4.1,0,0,0-.8,1.37,5.46,5.46,0,0,0-.46,1.37,8.46,8.46,0,0,0-.11,1.2,6,6,0,0,0-.06.86.72.72,0,0,1,.06.34c-.46.46-1.14,1-1.95,1.77l.11-.17a2,2,0,0,1,.23-.51,6.86,6.86,0,0,1,.29-.8,4.82,4.82,0,0,0,.23-1,6.25,6.25,0,0,0,.11-1,2.34,2.34,0,0,0-.11-1.08,3.78,3.78,0,0,0-.52-1.08,4.77,4.77,0,0,0-.92-1,7.25,7.25,0,0,0-1.49-.74,7.31,7.31,0,0,0-1,1.48,4.28,4.28,0,0,0-.46,1.37,4.59,4.59,0,0,0,0,1.25,6,6,0,0,0,.34,1.08,4,4,0,0,0,.52,1c.23.28.4.57.57.8a5.73,5.73,0,0,1,.63.57c.17.17.34.29.4.34s.11.11.17.11a21.3,21.3,0,0,1-3.43,2.17,9.92,9.92,0,0,0,.29-1.25,6.39,6.39,0,0,0,0-1.48,7.44,7.44,0,0,0-.52-1.6,6.37,6.37,0,0,0-1.37-1.48,7.54,7.54,0,0,0-2.35-1.2,10.74,10.74,0,0,0-.74,2,6.67,6.67,0,0,0-.29,1.65,8.49,8.49,0,0,0,.23,1.37,8.55,8.55,0,0,0,.52,1,5,5,0,0,0,.74.8,7.52,7.52,0,0,0,.86.57c.23.11.52.28.8.4a11.07,11.07,0,0,1-4.92.68s-1.77.86.46,1a25.8,25.8,0,0,0,5.32-.85l.06.23a1.72,1.72,0,0,0,.17.63c.11.23.17.51.34.86a3.68,3.68,0,0,0,.52.91,9.92,9.92,0,0,0,.74.86,2.59,2.59,0,0,0,1,.74,8.08,8.08,0,0,0,1.26.4,5.82,5.82,0,0,0,1.66-.11,8,8,0,0,0,1.95-.68,5.73,5.73,0,0,0-.4-1.88Z"/><path class="cls-6" d="M353.69,1.41h77a1,1,0,0,1,1,1V107.38a1,1,0,0,1-1,1h-77a1,1,0,0,1-1-1V2.44a1,1,0,0,1,1-1Z"/><path class="cls-7" d="M414.14,93.65h1.43c.06,0,.11.06.11.17v8.95c0,.11-.06.17-.11.17h-1.43a.15.15,0,0,1-.17-.17V93.82a.15.15,0,0,1,.17-.17Z"/><path class="cls-7" d="M418.61,93.65h-1.14a.15.15,0,0,0-.17.17v8.95a.15.15,0,0,0,.17.17h1.14a.18.18,0,0,0,.17-.17V93.82a.18.18,0,0,0-.17-.17Z"/><path class="cls-7" d="M420.09,93.65h2.23c.06,0,.11.06.11.17v9c0,.11-.06.17-.11.17h-2.23c-.06,0-.11-.06-.11-.17v-9c0-.11.06-.17.11-.17Z"/><path class="cls-7" d="M423.87,93.65h1a.15.15,0,0,1,.17.17v9a.15.15,0,0,1-.17.17h-1a.18.18,0,0,1-.17-.17v-9a.18.18,0,0,1,.17-.17Z"/><path class="cls-7" d="M411.11,93.65h1.09c.06,0,.11.06.11.17v9c0,.11-.06.17-.11.17h-1.09c-.06,0-.11-.06-.11-.17v-9c0-.11.06-.17.11-.17Z"/><path class="cls-7" d="M410.48,91.66h1.09V88.47h-.92V87.9a2.08,2.08,0,0,0,.63-.11c.17-.06.34-.17.52-.23h.63v4.1h1v.74h-2.92Z"/><path class="cls-7" d="M414.14,91.89l.92-.91a7.53,7.53,0,0,0,.69-.74,2.39,2.39,0,0,0,.46-.68,1.1,1.1,0,0,0,.17-.57,1,1,0,0,0-.23-.63.67.67,0,0,0-.57-.23,1,1,0,0,0-.57.17,2.66,2.66,0,0,0-.4.4l-.52-.51a6,6,0,0,1,.69-.57,2.38,2.38,0,0,1,.92-.17,2.46,2.46,0,0,1,.63.11,1.27,1.27,0,0,1,.46.28,1.38,1.38,0,0,1,.34.46,2.41,2.41,0,0,1,.11.63,1.51,1.51,0,0,1-.17.68c-.11.23-.23.4-.4.68a5.11,5.11,0,0,1-.57.68c-.17.23-.4.46-.63.74.11,0,.23-.06.4-.06h1.6v.74h-3.32Z"/><path class="cls-7" d="M419.64,92.51a2.22,2.22,0,0,1-1-.23,2.05,2.05,0,0,1-.69-.46l.46-.57a3.17,3.17,0,0,0,.46.34,1.54,1.54,0,0,0,.69.17,1.16,1.16,0,0,0,.63-.17.79.79,0,0,0,.29-.57.81.81,0,0,0-.11-.34c0-.11-.11-.17-.23-.28a.83.83,0,0,0-.4-.11,3.06,3.06,0,0,0-.74-.06v-.68a2,2,0,0,0,.63-.06.82.82,0,0,0,.4-.11,1,1,0,0,0,.23-.28c0-.11.06-.17.06-.28a.55.55,0,0,0-.23-.51.7.7,0,0,0-.52-.17,1.66,1.66,0,0,0-.52.11,3.11,3.11,0,0,0-.46.34l-.46-.51a2.39,2.39,0,0,1,.69-.46,1.83,1.83,0,0,1,.8-.17,2.14,2.14,0,0,1,.63.06,2.3,2.3,0,0,1,.52.28,1,1,0,0,1,.29.4.84.84,0,0,1,.11.51,1.14,1.14,0,0,1-.23.74,1.33,1.33,0,0,1-.63.4v.06a1.07,1.07,0,0,1,.74.4,1.23,1.23,0,0,1,.29.8,1.68,1.68,0,0,1-.11.57,1.53,1.53,0,0,1-.4.46,1.51,1.51,0,0,1-.52.29,2.91,2.91,0,0,1-.69.11Z"/><path class="cls-7" d="M424,90.46v-1.6c0-.23.06-.4.06-.51H424l-.17.34a.92.92,0,0,1-.23.4l-.86,1.37Zm1.43.68h-.57V92.4H424V91.15h-2.18v-.63l1.95-3h1.09v2.91h.57Z"/><path class="cls-2" d="M368.4,63.8c0-9.34,4.41-16.86,9.85-16.86"/><path class="cls-11" d="M368.4,63.8c0-9.34,4.41-16.86,9.85-16.86"/><path class="cls-2" d="M368.4,63.8c0-5.76,4.18-10.48,9.39-10.48"/><path class="cls-11" d="M368.4,63.8c0-5.76,4.18-10.48,9.39-10.48"/><path class="cls-2" d="M368.4,63.8c0-2.91,3.61-5.24,8-5.24"/><path class="cls-11" d="M368.4,63.8c0-2.91,3.61-5.24,8-5.24"/><path class="cls-2" d="M368.4,63.8c0-9.34-4.41-16.86-9.85-16.86"/><path class="cls-11" d="M368.4,63.8c0-9.34-4.41-16.86-9.85-16.86"/><path class="cls-2" d="M368.4,63.8c0-5.76-4.24-10.48-9.45-10.48"/><path class="cls-11" d="M368.4,63.8c0-5.76-4.24-10.48-9.45-10.48"/><path class="cls-2" d="M368.4,63.8c0-2.91-3.61-5.24-8.07-5.24"/><path class="cls-11" d="M368.4,63.8c0-2.91-3.61-5.24-8.07-5.24"/><line class="cls-2" x1="368.4" y1="63.8" x2="368.4" y2="42.26"/><line class="cls-11" x1="368.4" y1="63.8" x2="368.4" y2="42.26"/><path class="cls-10" d="M365,75.65c-.69-.51-.92-1.6-1.32-5.75-.46-4.56-.4-5.36.4-5.87.52-.34,3.43-.86,16.77-3.08,8.47-1.42,12-2.17,12.88-2.62.74-.4.86-.74,3.38-10.2,1.77-6.67,2-7.29,2.4-7.46.69-.17,1.2.4,1.26,1.42.06.51-.11,3.59-.4,7-.63,8.38-.63,8.26-.17,8.43S414,56.33,422,55.42l3.49-.4.34.68a4.7,4.7,0,0,1,.46,1.82c.11,1.42-.23,1.88-1.77,2.51-1.95.74-11.22,3.25-19.52,5.24-25.93,6.27-25.93,6.27-33.89,8.89C365.6,76,365.48,76,365,75.65Z"/><path class="cls-2" d="M412.65,49a4,4,0,0,0-.86-1.31,4.39,4.39,0,0,0-1.2-.8,4,4,0,0,0-1.26-.4,3.73,3.73,0,0,0-1.14-.17H407a17.14,17.14,0,0,0,3.32-2.11l.11.17a3.14,3.14,0,0,1,.34.46l.57.57a3.69,3.69,0,0,0,.74.57,7.52,7.52,0,0,0,1,.46,3.37,3.37,0,0,0,1.14.28,10.23,10.23,0,0,0,1.26-.11,5,5,0,0,0,1.43-.63,6.94,6.94,0,0,0,1.49-1.14,4.65,4.65,0,0,0-.86-1.37,4.42,4.42,0,0,0-1.09-.8,3.73,3.73,0,0,0-1.2-.34,8.57,8.57,0,0,0-1.14-.06,7,7,0,0,0-1,.17,2.86,2.86,0,0,0-.69.17c-.11,0-.17.06-.23.06l.69-.68.46-.46.23-.11a2.5,2.5,0,0,0,.52-.28,4.77,4.77,0,0,0,.74-.4,8.12,8.12,0,0,0,.86-.63,5.7,5.7,0,0,0,.8-.85,3.24,3.24,0,0,0,.69-1,3,3,0,0,0,.4-1.2,3.87,3.87,0,0,0,.06-1.42,9.15,9.15,0,0,0-.52-1.65,5.05,5.05,0,0,0-1.89.74A4.31,4.31,0,0,0,414,35.82a4.1,4.1,0,0,0-.8,1.37,9.54,9.54,0,0,0-.46,1.37,8.46,8.46,0,0,0-.11,1.2,6,6,0,0,0-.06.86.72.72,0,0,1,.06.34c-.46.46-1.14,1-1.95,1.77l.11-.17A2,2,0,0,1,411,42c.11-.23.17-.51.29-.8a4.81,4.81,0,0,0,.29-1,6.16,6.16,0,0,0,.06-1,2.34,2.34,0,0,0-.11-1.08,3.78,3.78,0,0,0-.52-1.08,3.58,3.58,0,0,0-.92-1,7.24,7.24,0,0,0-1.49-.74,7.31,7.31,0,0,0-1,1.48,4.28,4.28,0,0,0-.46,1.37,3.14,3.14,0,0,0,.06,1.25,3.35,3.35,0,0,0,.29,1.08,4,4,0,0,0,.52,1c.23.28.4.57.57.8a5.72,5.72,0,0,1,.63.57c.17.17.34.29.4.34s.11.11.17.11a19.07,19.07,0,0,1-3.43,2.17,9.92,9.92,0,0,0,.29-1.25,6.39,6.39,0,0,0,0-1.48,4,4,0,0,0-.52-1.6,6.37,6.37,0,0,0-1.37-1.48,7.54,7.54,0,0,0-2.35-1.2,10.74,10.74,0,0,0-.74,2,4.56,4.56,0,0,0-.23,1.65,5,5,0,0,0,.17,1.37,8.55,8.55,0,0,0,.52,1,5,5,0,0,0,.74.8,7.52,7.52,0,0,0,.86.57c.23.11.52.28.8.4a11.07,11.07,0,0,1-4.92.68s-1.77.86.46,1a25.8,25.8,0,0,0,5.32-.85l.06.23a4.58,4.58,0,0,1,.17.63,6.62,6.62,0,0,1,.34.86,3.68,3.68,0,0,0,.52.91,9.93,9.93,0,0,0,.74.86,2.59,2.59,0,0,0,1,.74,8.82,8.82,0,0,0,1.32.4,5.44,5.44,0,0,0,1.6-.11,7.25,7.25,0,0,0,1.95-.68,5.73,5.73,0,0,0-.4-1.88Z"/><rect class="cls-12" x="236.43" y="2.61" width="76.63" height="105.51"/><rect class="cls-12" x="235.25" y="2.89" width="79" height="104.95"/><path class="cls-13" d="M236.28,1.41h76.94a1,1,0,0,1,1,1V107.38a1,1,0,0,1-1,1H236.28a1,1,0,0,1-1-1V2.44a1,1,0,0,1,1-1Z"/><path class="cls-7" d="M296.68,93.65h1.43a.18.18,0,0,1,.17.17v8.95a.18.18,0,0,1-.17.17h-1.43a.15.15,0,0,1-.17-.17V93.82a.15.15,0,0,1,.17-.17Z"/><path class="cls-7" d="M301.15,93.65H300a.15.15,0,0,0-.17.17v8.95a.15.15,0,0,0,.17.17h1.14a.18.18,0,0,0,.17-.17V93.82a.18.18,0,0,0-.17-.17Z"/><path class="cls-7" d="M302.69,93.65h2.17c.06,0,.11.06.11.17v9c0,.11-.06.17-.11.17h-2.17a.15.15,0,0,1-.17-.17v-9a.15.15,0,0,1,.17-.17Z"/><path class="cls-7" d="M306.41,93.65h1a.15.15,0,0,1,.17.17v9a.15.15,0,0,1-.17.17h-1c-.06,0-.11-.06-.11-.17v-9c0-.11.06-.17.11-.17Z"/><path class="cls-7" d="M293.71,93.65h1c.06,0,.11.06.11.17v9c0,.11-.06.17-.11.17h-1a.15.15,0,0,1-.17-.17v-9a.15.15,0,0,1,.17-.17Z"/><path class="cls-7" d="M293,91.66h1.09V88.47h-.92V87.9a2.08,2.08,0,0,0,.63-.11c.17-.06.34-.17.51-.23H295v4.1h1v.74H293Z"/><path class="cls-7" d="M296.68,91.89l.92-.91a7.53,7.53,0,0,0,.69-.74,2.39,2.39,0,0,0,.46-.68,1.1,1.1,0,0,0,.17-.57.78.78,0,0,0-.23-.63.66.66,0,0,0-.57-.23,1,1,0,0,0-.57.17,2.66,2.66,0,0,0-.4.4l-.51-.51a6,6,0,0,1,.69-.57,2.38,2.38,0,0,1,.92-.17,2.46,2.46,0,0,1,.63.11,1.26,1.26,0,0,1,.46.28,1.38,1.38,0,0,1,.34.46,2.42,2.42,0,0,1,.11.63,1.51,1.51,0,0,1-.17.68,3,3,0,0,1-.4.68c-.11.17-.34.46-.51.68a8.68,8.68,0,0,0-.69.74c.11,0,.23-.06.4-.06H300v.74h-3.32Z"/><path class="cls-7" d="M302.18,92.51a2.22,2.22,0,0,1-1-.23,2.05,2.05,0,0,1-.69-.46l.46-.57a3.17,3.17,0,0,0,.46.34,1.54,1.54,0,0,0,.69.17,1,1,0,0,0,.63-.17A.79.79,0,0,0,303,91a.81.81,0,0,0-.11-.34c0-.11-.11-.17-.23-.28a.83.83,0,0,0-.4-.11,3.06,3.06,0,0,0-.74-.06v-.68a2,2,0,0,0,.63-.06.82.82,0,0,0,.4-.11,1,1,0,0,0,.23-.28c0-.11.06-.17.06-.28a.55.55,0,0,0-.23-.51.7.7,0,0,0-.51-.17,1.66,1.66,0,0,0-.51.11c-.17.11-.29.23-.46.34l-.46-.51a2.39,2.39,0,0,1,.69-.46,1.83,1.83,0,0,1,.8-.17,2.13,2.13,0,0,1,.63.06,2.3,2.3,0,0,1,.51.28,1,1,0,0,1,.29.4.84.84,0,0,1,.11.51,1.14,1.14,0,0,1-.23.74,1.33,1.33,0,0,1-.63.4v.06a1.07,1.07,0,0,1,.74.4,1,1,0,0,1,.29.8,1.68,1.68,0,0,1-.11.57,1.53,1.53,0,0,1-.4.46,1.51,1.51,0,0,1-.51.29,2.9,2.9,0,0,1-.69.11Z"/><path class="cls-7" d="M306.58,90.46v-1.6a2,2,0,0,0,.06-.51h-.06l-.17.34a.92.92,0,0,1-.23.4l-.86,1.37Zm1.49.68h-.63V92.4h-.86V91.15h-2.17v-.63l1.94-3h1.09v2.91h.63Z"/><path class="cls-2" d="M251,63.8c0-9.34,4.4-16.86,9.84-16.86"/><path class="cls-4" d="M251,63.8c0-9.34,4.4-16.86,9.84-16.86"/><path class="cls-2" d="M251,63.8c0-5.76,4.18-10.48,9.38-10.48"/><path class="cls-4" d="M251,63.8c0-5.76,4.18-10.48,9.38-10.48"/><path class="cls-2" d="M251,63.8c0-2.91,3.6-5.24,8.07-5.24"/><path class="cls-4" d="M251,63.8c0-2.91,3.6-5.24,8.07-5.24"/><path class="cls-2" d="M251,63.8c0-9.34-4.4-16.86-9.84-16.86"/><path class="cls-4" d="M251,63.8c0-9.34-4.4-16.86-9.84-16.86"/><path class="cls-2" d="M251,63.8c0-5.76-4.23-10.48-9.38-10.48"/><path class="cls-4" d="M251,63.8c0-5.76-4.23-10.48-9.38-10.48"/><path class="cls-2" d="M251,63.8c0-2.91-3.6-5.24-8.07-5.24"/><path class="cls-4" d="M251,63.8c0-2.91-3.6-5.24-8.07-5.24"/><line class="cls-2" x1="250.98" y1="63.8" x2="250.98" y2="42.26"/><line class="cls-4" x1="250.98" y1="63.8" x2="250.98" y2="42.26"/><path class="cls-10" d="M247.6,75.65c-.63-.51-.92-1.6-1.32-5.75-.46-4.56-.4-5.36.4-5.87.51-.34,3.43-.86,16.76-3.08,8.47-1.42,12-2.17,12.87-2.62.74-.4.86-.74,3.38-10.2,1.77-6.67,2-7.29,2.46-7.46.63-.17,1.14.4,1.2,1.42.06.51-.11,3.59-.4,7-.63,8.38-.63,8.26-.17,8.43s13.73-1.14,21.8-2.05l3.49-.4.34.68a4.7,4.7,0,0,1,.46,1.82c.11,1.42-.23,1.88-1.77,2.51-1.94.74-11.21,3.25-19.51,5.24-25.91,6.27-25.91,6.27-33.87,8.89-5.55,1.82-5.66,1.82-6.12,1.48Z"/><path class="cls-2" d="M295.2,49a3.27,3.27,0,0,0-.86-1.31,4.39,4.39,0,0,0-1.2-.8,4,4,0,0,0-1.26-.4,3.73,3.73,0,0,0-1.14-.17h-1.14a17.13,17.13,0,0,0,3.32-2.11l.11.17a3.14,3.14,0,0,1,.34.46l.57.57a2.88,2.88,0,0,0,.8.57,4.59,4.59,0,0,0,.92.46,3.37,3.37,0,0,0,1.14.28,10.21,10.21,0,0,0,1.26-.11,5,5,0,0,0,1.43-.63A9,9,0,0,0,301,44.88a6.33,6.33,0,0,0-.92-1.37,4.42,4.42,0,0,0-1.09-.8,3.73,3.73,0,0,0-1.2-.34,8.15,8.15,0,0,0-1.14-.06,6.94,6.94,0,0,0-1,.17,2.85,2.85,0,0,0-.69.17c-.06,0-.17.06-.23.06l.69-.68.46-.46.23-.11a2.5,2.5,0,0,0,.51-.28,4.77,4.77,0,0,0,.74-.4,8.11,8.11,0,0,0,.86-.63c.29-.28.57-.51.86-.85a4.48,4.48,0,0,0,.63-1,3,3,0,0,0,.4-1.2,3.87,3.87,0,0,0,.06-1.42,6.12,6.12,0,0,0-.51-1.65,5,5,0,0,0-1.89.74,4.31,4.31,0,0,0-1.32,1.08,4.1,4.1,0,0,0-.8,1.37,9.55,9.55,0,0,0-.46,1.37,8.46,8.46,0,0,0-.11,1.2,2,2,0,0,0,0,.86V41c-.46.46-1.14,1-1.94,1.77l.11-.17a2,2,0,0,1,.23-.51c.11-.23.17-.51.29-.8a4.81,4.81,0,0,0,.29-1c.06-.34.06-.68.11-1a3.56,3.56,0,0,0-.17-1.08,3.78,3.78,0,0,0-.51-1.08,3.58,3.58,0,0,0-.92-1,7.24,7.24,0,0,0-1.49-.74,7.31,7.31,0,0,0-1,1.48,4.28,4.28,0,0,0-.46,1.37,3.14,3.14,0,0,0,.06,1.25,6,6,0,0,0,.29,1.08,4,4,0,0,0,.51,1,9.82,9.82,0,0,0,.63.8l.57.57c.17.17.34.29.4.34s.11.11.17.11a19.05,19.05,0,0,1-3.43,2.17,9.93,9.93,0,0,0,.29-1.25,6.4,6.4,0,0,0,0-1.48,4,4,0,0,0-.51-1.6,6.37,6.37,0,0,0-1.37-1.48A7.53,7.53,0,0,0,285,38.5a10.74,10.74,0,0,0-.74,2,6.31,6.31,0,0,0-.23,1.65,5,5,0,0,0,.17,1.37,8.55,8.55,0,0,0,.51,1,4.94,4.94,0,0,0,.74.8c.34.23.57.4.86.57s.51.28.8.4a11,11,0,0,1-4.92.68s-1.77.86.46,1a25.77,25.77,0,0,0,5.32-.85l.06.23a4.59,4.59,0,0,1,.17.63,6.62,6.62,0,0,1,.34.86,3.68,3.68,0,0,0,.51.91,9.92,9.92,0,0,0,.74.86,2.59,2.59,0,0,0,1,.74,8.81,8.81,0,0,0,1.32.4,5.43,5.43,0,0,0,1.6-.11,7.24,7.24,0,0,0,1.94-.68,4.57,4.57,0,0,0-.4-1.88Z"/></svg>