<svg id="Layer_1" data-name="Layer 1" xmlns="http://www.w3.org/2000/svg" viewBox="0 0 432.68 226.73"><defs><style>.cls-1,.cls-2,.cls-7{fill:#fff;}.cls-10,.cls-2,.cls-5,.cls-9{stroke:#010101;}.cls-11,.cls-2,.cls-5,.cls-8{stroke-linecap:round;stroke-linejoin:round;}.cls-2{stroke-width:0.84px;}.cls-10,.cls-3,.cls-5{fill:#010101;}.cls-11,.cls-4{fill:#f26722;}.cls-5{stroke-width:0.06px;}.cls-6,.cls-8{fill:#69bd45;}.cls-7{stroke:#231f20;}.cls-10,.cls-7,.cls-9{stroke-miterlimit:10;}.cls-11,.cls-8{fill-opacity:0.2;stroke-width:2.82px;}.cls-8{stroke:#69bd45;}.cls-9{fill:none;}.cls-10,.cls-9{stroke-width:0.72px;}.cls-11{stroke:#f57e2e;}</style></defs><title>case-e</title><rect class="cls-1" x="235.4" y="2.9" width="76.63" height="105.51"/><path class="cls-2" d="M354.19,117.84h76.94a1,1,0,0,1,1,1V223.81a1,1,0,0,1-1,1H354.19a1,1,0,0,1-1-1V118.86a1,1,0,0,1,1-1Z"/><path class="cls-3" d="M414.6,210.08H416a.26.26,0,0,1,.17.17v8.95a.18.18,0,0,1-.17.17H414.6a.15.15,0,0,1-.17-.17v-8.95a.18.18,0,0,1,.17-.17Z"/><path class="cls-3" d="M419.06,210.08h-1.14a.18.18,0,0,0-.17.17v9c0,.06.06.11.17.11h1.14c.06,0,.17-.06.17-.11v-9a.26.26,0,0,0-.17-.17Z"/><path class="cls-3" d="M420.61,210.14h2.17a.12.12,0,0,1,.11.11v9.06a.12.12,0,0,1-.11.11h-2.17c-.11,0-.17-.06-.17-.11v-9.06c0-.06.06-.11.17-.11Z"/><path class="cls-3" d="M424.33,210.08h1a.18.18,0,0,1,.17.17v9.06c0,.06-.06.11-.17.11h-1a.12.12,0,0,1-.11-.11v-9.06c0-.06.06-.17.11-.17Z"/><path class="cls-3" d="M411.63,210.08h1c.06,0,.11.11.11.17v9.06a.12.12,0,0,1-.11.11h-1c-.11,0-.17-.06-.17-.11v-9.06a.18.18,0,0,1,.17-.17Z"/><path class="cls-3" d="M410.94,208.14H412V205h-.92v-.57l.63-.17a2.09,2.09,0,0,0,.51-.23h.69v4.16h.92v.68h-2.92Z"/><path class="cls-3" d="M414.6,208.32c.34-.29.63-.63.92-.86a7.45,7.45,0,0,0,.69-.8,3.4,3.4,0,0,0,.46-.63,1.3,1.3,0,0,0,.17-.63.78.78,0,0,0-.8-.8c-.23,0-.4,0-.51.11a1.56,1.56,0,0,0-.46.4l-.51-.51a2.71,2.71,0,0,1,.69-.51,1.69,1.69,0,0,1,.92-.23,2,2,0,0,1,.63.11.89.89,0,0,1,.46.34,1.39,1.39,0,0,1,.34.46,2,2,0,0,1,.11.63,1.48,1.48,0,0,1-.17.63,2.11,2.11,0,0,1-.4.68,5.35,5.35,0,0,1-.51.68c-.23.23-.46.51-.69.74h.4a1.15,1.15,0,0,1,.4-.06h1.2v.74H414.6Z"/><path class="cls-3" d="M420.09,208.94a2.27,2.27,0,0,1-1-.17,3.56,3.56,0,0,1-.69-.51l.46-.57a1.26,1.26,0,0,0,.51.4,1.14,1.14,0,0,0,.63.11,1,1,0,0,0,.63-.17.63.63,0,0,0,.29-.57.81.81,0,0,0-.11-.34c0-.06-.11-.17-.23-.23a2.78,2.78,0,0,0-.4-.17,2.86,2.86,0,0,0-.69-.06V206c.23,0,.4-.06.57-.06a2.8,2.8,0,0,0,.4-.17.57.57,0,0,0,.23-.29,2.41,2.41,0,0,0,.06-.28.46.46,0,0,0-.23-.46.7.7,0,0,0-.51-.17.86.86,0,0,0-.51.11,1.19,1.19,0,0,0-.46.34l-.46-.57a4.72,4.72,0,0,1,.69-.45,1.82,1.82,0,0,1,.8-.17,2,2,0,0,1,.63.11,2,2,0,0,1,.51.23,1,1,0,0,1,.29.4.93.93,0,0,1,.11.57.91.91,0,0,1-.23.68,1.55,1.55,0,0,1-.57.45h0a1.38,1.38,0,0,1,.69.4,1.07,1.07,0,0,1,.29.8,2,2,0,0,1-.11.63,2.78,2.78,0,0,1-.4.46,1.08,1.08,0,0,1-.51.23,1.47,1.47,0,0,1-.69.11Z"/><path class="cls-3" d="M424.5,206.89v-1.6a1.57,1.57,0,0,0,.06-.51h-.06a2.75,2.75,0,0,1-.17.4,3.3,3.3,0,0,1-.23.4l-.86,1.31Zm1.49.68h-.63v1.25h-.86v-1.25h-2.12V207l1.89-3h1.09v2.91H426Z"/><path class="cls-4" d="M391.26,155.73V193.5a1.42,1.42,0,0,0,1.54,1.25,1.4,1.4,0,0,0,1.49-1.25l-.23-42.84c0-.68-.34-.17-1.49,2.28Z"/><path class="cls-4" d="M372.9,164.39c4.18,2.34,11.61,3.08,15.56-.11.63-5-3.83-10.94-8-13.28s-11.56-3.08-15.5.11c-.69,5,3.83,10.94,8,13.27Z"/><path class="cls-4" d="M412.43,163.36c4.12-2.34,8.64-8.26,8-13.27-3.95-3.19-11.38-2.45-15.5-.11s-8.64,8.26-8,13.28c3.95,3.19,11.33,2.45,15.5.11Z"/><path class="cls-4" d="M372.27,183.87c4.63,2.45,12.81,3.25,17.22-.11.74-5.3-4.23-11.57-8.87-14s-12.81-3.25-17.22.11c-.74,5.3,4.23,11.57,8.87,14Z"/><path class="cls-4" d="M413.23,183.13c4.52-2.51,9.44-8.77,8.7-14.07-4.29-3.36-12.36-2.56-16.88-.11s-9.38,8.72-8.7,14.07c4.29,3.36,12.36,2.56,16.88.11Z"/><path class="cls-2" d="M354.29,1.41h76.94a1,1,0,0,1,1,1v105a1,1,0,0,1-1,1H354.29a1,1,0,0,1-1-1V2.38a1,1,0,0,1,1-1Z"/><path class="cls-5" d="M414.7,93.7h1.43c.06,0,.17.06.17.12v9c0,.06-.11.11-.17.11H414.7c-.11,0-.17-.06-.17-.11v-9c0-.06.06-.12.17-.12Z"/><path class="cls-3" d="M419.16,93.7H418c-.11,0-.17.06-.17.12v9a.18.18,0,0,0,.17.17h1.14a.26.26,0,0,0,.17-.17v-9c0-.06-.11-.12-.17-.12Z"/><path class="cls-5" d="M420.71,93.7h2.17a.12.12,0,0,1,.11.12v9.06a.12.12,0,0,1-.11.12h-2.17c-.11,0-.17-.06-.17-.12V93.82c0-.06.06-.12.17-.12Z"/><path class="cls-5" d="M424.43,93.7h1c.11,0,.17.06.17.12v9.06a.18.18,0,0,1-.17.17h-1c-.06,0-.11-.12-.11-.17V93.82a.12.12,0,0,1,.11-.12Z"/><path class="cls-5" d="M411.73,93.7h1a.12.12,0,0,1,.11.12v9.06c0,.06-.06.17-.11.17h-1a.18.18,0,0,1-.17-.17V93.82c0-.06.06-.12.17-.12Z"/><path class="cls-3" d="M411,91.71h1.09V88.52h-.92v-.57l.63-.17a2.09,2.09,0,0,0,.51-.23H413v4.16H414v.74H411Z"/><path class="cls-3" d="M414.7,91.94l.92-.91a7.64,7.64,0,0,0,.69-.8,3.4,3.4,0,0,0,.46-.63,1.3,1.3,0,0,0,.17-.63.78.78,0,0,0-.8-.8.7.7,0,0,0-.51.17,1.37,1.37,0,0,0-.46.34l-.51-.46a2,2,0,0,1,.69-.57,2.42,2.42,0,0,1,.92-.23,2,2,0,0,1,.63.12,2,2,0,0,1,.8.8,2,2,0,0,1,.11.63,1.48,1.48,0,0,1-.17.63,2.15,2.15,0,0,1-.4.68,5.35,5.35,0,0,1-.51.68,9,9,0,0,1-.69.74h.4c.17,0,.29-.06.4-.06H418v.8H414.7Z"/><path class="cls-3" d="M420.19,92.51a2.27,2.27,0,0,1-1-.17,2.15,2.15,0,0,1-.69-.51l.46-.57a1.24,1.24,0,0,0,.51.4,1.16,1.16,0,0,0,.63.17,1,1,0,0,0,.63-.23.6.6,0,0,0,.29-.51.48.48,0,0,0-.11-.34.38.38,0,0,0-.23-.29,3,3,0,0,0-.4-.17,2.86,2.86,0,0,0-.69-.06V89.6a1.75,1.75,0,0,0,.57-.06,3,3,0,0,0,.4-.17c.11-.06.17-.17.23-.23s.06-.23.06-.34a.52.52,0,0,0-.23-.46.7.7,0,0,0-.51-.17.86.86,0,0,0-.51.11,1.21,1.21,0,0,0-.46.34l-.46-.57a4.89,4.89,0,0,1,.69-.46,1.84,1.84,0,0,1,.8-.17,2,2,0,0,1,.63.12,2,2,0,0,1,.51.23,1.23,1.23,0,0,1,.29.45c.11.12.11.29.11.51a.91.91,0,0,1-.23.68,1.53,1.53,0,0,1-.57.46h0a1.47,1.47,0,0,1,.69.46.87.87,0,0,1,.29.74,2,2,0,0,1-.11.63,1.53,1.53,0,0,1-.4.46,2.12,2.12,0,0,1-.51.29,2.86,2.86,0,0,1-.69.06Z"/><path class="cls-3" d="M424.6,90.51V88.86a1.57,1.57,0,0,0,.06-.51h-.06a2.84,2.84,0,0,1-.17.4,3.3,3.3,0,0,1-.23.4l-.86,1.37Zm1.49.68h-.63v1.25h-.86V91.19h-2.12v-.63l1.89-3h1.09v3h.63Z"/><path class="cls-6" d="M400.46,35.33c0-4.73-3-11.57-7.67-13.45-4.75,1.88-7.72,8.72-7.72,13.45s3,11.57,7.72,13.4c4.69-1.82,7.67-8.66,7.67-13.4Z"/><path class="cls-6" d="M396.51,55.34c3.95,3.19,11.33,2.45,15.5.11s8.64-8.21,8-13.23c-3.95-3.19-11.33-2.45-15.5-.11s-8.64,8.21-8,13.23Z"/><path class="cls-6" d="M412,74.95c4.12-2.28,8.64-8.21,8-13.23-3.95-3.19-11.33-2.45-15.5-.12s-8.64,8.21-8,13.23c3.95,3.19,11.33,2.45,15.5.12Z"/><path class="cls-6" d="M373.51,55.45c4.18,2.34,11.56,3.08,15.5-.11.69-5-3.78-10.94-8-13.23s-11.56-3.08-15.5.11c-.69,5,3.83,10.89,8,13.23Z"/><path class="cls-6" d="M373.51,75.75c4.18,2.34,11.56,3.08,15.5-.12.69-5-3.78-10.94-8-13.28s-11.56-3.08-15.5.12c-.69,5,3.83,10.94,8,13.28Z"/><path class="cls-6" d="M391.25,52.6l.4,35.06c0,.57.17.51,1.49-3.19,1.09-3.08.86-1.54.86-2.05l.29-29.82c0-.57-.69-1-1.49-1s-1.54.46-1.54,1Z"/><path class="cls-2" d="M119.06,1.41h77a1,1,0,0,1,1,1v105a1,1,0,0,1-1,1h-77a1,1,0,0,1-1-1V2.38a1,1,0,0,1,1-1Z"/><path class="cls-2" d="M119.06,1.41h77a1,1,0,0,1,1,1v105a1,1,0,0,1-1,1h-77a1,1,0,0,1-1-1V2.38a1,1,0,0,1,1-1Z"/><path class="cls-3" d="M175.85,91.71h1.09V88.52H176v-.57l.63-.17a2.09,2.09,0,0,0,.52-.23h.63v4.16h1v.74h-2.92Z"/><path class="cls-3" d="M179.52,91.94l.92-.91a7.65,7.65,0,0,0,.69-.8,3.4,3.4,0,0,0,.46-.63,1.3,1.3,0,0,0,.17-.63.87.87,0,0,0-.23-.57.66.66,0,0,0-.57-.23,1,1,0,0,0-.57.17,2.11,2.11,0,0,0-.4.34l-.52-.46a2.05,2.05,0,0,1,.69-.57,1.88,1.88,0,0,1,1.55-.11,2,2,0,0,1,.8.8,2,2,0,0,1,.11.63,1.48,1.48,0,0,1-.17.63,4.32,4.32,0,0,1-.4.68,5.35,5.35,0,0,1-.52.68,9,9,0,0,1-.69.74h.4c.11,0,.29-.06.4-.06h1.2v.8h-3.32Z"/><path class="cls-3" d="M185,92.51a2.27,2.27,0,0,1-1-.17,2.15,2.15,0,0,1-.69-.51l.46-.57a1.4,1.4,0,0,0,1.14.57,1,1,0,0,0,.63-.23.6.6,0,0,0,.29-.51.48.48,0,0,0-.11-.34.38.38,0,0,0-.23-.29,3,3,0,0,0-.4-.17,3.11,3.11,0,0,0-.74-.06V89.6a2,2,0,0,0,.63-.06,3,3,0,0,0,.4-.17c.11-.06.17-.17.23-.23s.06-.23.06-.34a.52.52,0,0,0-.23-.46.7.7,0,0,0-.52-.17.86.86,0,0,0-.52.11,1.21,1.21,0,0,0-.46.34l-.46-.57a4.89,4.89,0,0,1,.69-.46,1.85,1.85,0,0,1,.8-.17,2,2,0,0,1,.63.12,2,2,0,0,1,.52.23,1.69,1.69,0,0,1,.29.4.93.93,0,0,1,.11.57.9.9,0,0,1-.23.68,1.37,1.37,0,0,1-.63.46h0a1.39,1.39,0,0,1,.74.46,1.08,1.08,0,0,1,.29.74,2,2,0,0,1-.11.63,1.53,1.53,0,0,1-.4.46,4.41,4.41,0,0,1-.52.29,2.86,2.86,0,0,1-.69.06Z"/><path class="cls-3" d="M189.42,90.51V88.86a1.57,1.57,0,0,0,.06-.51h-.06a2.84,2.84,0,0,1-.17.4,3.31,3.31,0,0,1-.23.4l-.86,1.37Zm1.43.68h-.57v1.25h-.86V91.19h-2.18v-.63l1.95-3h1.09v3h.57Z"/><path class="cls-3" d="M179.52,93.7h1.43a.12.12,0,0,1,.11.12v9a.12.12,0,0,1-.11.11h-1.43c-.11,0-.17-.06-.17-.11v-9c0-.06.06-.12.17-.12Z"/><path class="cls-3" d="M184,93.7h-1.14c-.11,0-.17.06-.17.12v9a.18.18,0,0,0,.17.17H184a.26.26,0,0,0,.17-.17v-9c0-.06-.11-.12-.17-.12Z"/><path class="cls-3" d="M185.53,93.7h2.18a.12.12,0,0,1,.11.12v9.06a.12.12,0,0,1-.11.12h-2.18c-.11,0-.17-.06-.17-.12V93.82c0-.06.06-.12.17-.12Z"/><path class="cls-3" d="M189.25,93.7h1c.11,0,.17.06.17.12v9.06a.18.18,0,0,1-.17.17h-1a.26.26,0,0,1-.17-.17V93.82c0-.06.11-.12.17-.12Z"/><path class="cls-3" d="M176.48,93.7h1.09a.12.12,0,0,1,.11.12v9.06c0,.06-.06.17-.11.17h-1.09c-.06,0-.11-.12-.11-.17V93.82a.12.12,0,0,1,.11-.12Z"/><path class="cls-3" d="M179.52,93.7h1.43a.12.12,0,0,1,.11.12v9a.12.12,0,0,1-.11.11h-1.43c-.11,0-.17-.06-.17-.11v-9c0-.06.06-.12.17-.12Z"/><path class="cls-3" d="M184,93.7h-1.14c-.11,0-.17.06-.17.12v9a.18.18,0,0,0,.17.17H184a.26.26,0,0,0,.17-.17v-9c0-.06-.11-.12-.17-.12Z"/><path class="cls-3" d="M185.47,93.7h2.23a.12.12,0,0,1,.11.12v9.06a.12.12,0,0,1-.11.12h-2.23a.12.12,0,0,1-.11-.12V93.82a.12.12,0,0,1,.11-.12Z"/><path class="cls-3" d="M189.25,93.7h1c.11,0,.17.06.17.12v9.06a.18.18,0,0,1-.17.17h-1a.26.26,0,0,1-.17-.17V93.82c0-.06.11-.12.17-.12Z"/><path class="cls-3" d="M176.48,93.7h1.09a.12.12,0,0,1,.11.12v9.06c0,.06-.06.17-.11.17h-1.09c-.06,0-.11-.12-.11-.17V93.82a.12.12,0,0,1,.11-.12Z"/><path class="cls-3" d="M175.85,91.71h1.09V88.52H176v-.57l.63-.17a2.09,2.09,0,0,0,.52-.23h.63v4.16h1v.74h-2.92Z"/><path class="cls-3" d="M179.52,91.94l.92-.91a7.65,7.65,0,0,0,.69-.8,3.4,3.4,0,0,0,.46-.63,1.3,1.3,0,0,0,.17-.63.87.87,0,0,0-.23-.57.66.66,0,0,0-.57-.23,1,1,0,0,0-.57.17,2.11,2.11,0,0,0-.4.34l-.52-.46a2.05,2.05,0,0,1,.69-.57,1.88,1.88,0,0,1,1.55-.11,2,2,0,0,1,.8.8,2,2,0,0,1,.11.63,1.48,1.48,0,0,1-.17.63,4.32,4.32,0,0,1-.4.68,5.35,5.35,0,0,1-.52.68,9,9,0,0,1-.69.74h.4c.11,0,.29-.06.4-.06h1.2v.8h-3.32Z"/><path class="cls-3" d="M185,92.51a2.27,2.27,0,0,1-1-.17,2.15,2.15,0,0,1-.69-.51l.46-.57a1.4,1.4,0,0,0,1.14.57,1,1,0,0,0,.63-.23.6.6,0,0,0,.29-.51.48.48,0,0,0-.11-.34.38.38,0,0,0-.23-.29,3,3,0,0,0-.4-.17,3.11,3.11,0,0,0-.74-.06V89.6a2,2,0,0,0,.63-.06,3,3,0,0,0,.4-.17c.11-.06.17-.17.23-.23s.06-.23.06-.34a.52.52,0,0,0-.23-.46.7.7,0,0,0-.52-.17.86.86,0,0,0-.52.11,1.21,1.21,0,0,0-.46.34l-.46-.57a4.89,4.89,0,0,1,.69-.46,1.85,1.85,0,0,1,.8-.17,2,2,0,0,1,.63.12,2,2,0,0,1,.52.23,1.23,1.23,0,0,1,.29.45c.11.12.11.29.11.51a.9.9,0,0,1-.23.68,1.37,1.37,0,0,1-.63.46h0a1.39,1.39,0,0,1,.74.46,1.08,1.08,0,0,1,.29.74,2,2,0,0,1-.11.63,1.53,1.53,0,0,1-.4.46,4.41,4.41,0,0,1-.52.29,2.86,2.86,0,0,1-.69.06Z"/><path class="cls-3" d="M189.42,90.51V88.86a1.57,1.57,0,0,0,.06-.51h-.06a2.84,2.84,0,0,1-.17.4,3.31,3.31,0,0,1-.23.4l-.86,1.37Zm1.43.68h-.57v1.25h-.86V91.19h-2.18v-.63l1.95-3h1.09v3h.57Z"/><path class="cls-6" d="M165.26,35.33c0-4.73-3-11.57-7.73-13.45-4.69,1.88-7.67,8.72-7.67,13.45s3,11.57,7.67,13.4c4.75-1.82,7.73-8.66,7.73-13.4Z"/><path class="cls-6" d="M161.26,55.34c4,3.19,11.39,2.45,15.57.11s8.64-8.21,8-13.23c-4-3.19-11.33-2.45-15.51-.11s-8.64,8.21-8,13.23Z"/><path class="cls-6" d="M176.83,74.95c4.12-2.28,8.64-8.21,8-13.23-4-3.19-11.33-2.45-15.51-.12s-8.64,8.21-8,13.23c4,3.19,11.39,2.45,15.57.12Z"/><path class="cls-6" d="M138.3,55.45c4.18,2.34,11.56,3.08,15.51-.11.69-5-3.78-10.94-8-13.23s-11.56-3.08-15.51.11c-.69,5,3.84,10.89,8,13.23Z"/><path class="cls-6" d="M138.3,75.75c4.18,2.34,11.56,3.08,15.51-.12.69-5-3.78-10.94-8-13.28s-11.56-3.08-15.51.12c-.69,5,3.84,10.94,8,13.28Z"/><path class="cls-6" d="M156,52.6l.4,35.06c0,.57.17.51,1.49-3.19,1.09-3.08.86-1.54.86-2.05l.29-29.82c0-.57-.69-1-1.55-1S156,52,156,52.6Z"/><path class="cls-2" d="M119.1,117.84h77a1,1,0,0,1,1,1V223.81a1,1,0,0,1-1,1h-77a1,1,0,0,1-1-1V118.86a1,1,0,0,1,1-1Z"/><path class="cls-3" d="M179.55,210.08H181c.06,0,.11.11.11.17v8.95c0,.11-.06.17-.11.17h-1.43a.15.15,0,0,1-.17-.17v-8.95a.18.18,0,0,1,.17-.17Z"/><path class="cls-3" d="M184,210.08h-1.14a.18.18,0,0,0-.17.17v9c0,.06.06.11.17.11H184c.06,0,.17-.06.17-.11v-9a.26.26,0,0,0-.17-.17Z"/><path class="cls-3" d="M185.5,210.14h2.23a.12.12,0,0,1,.11.11v9.06a.12.12,0,0,1-.11.11H185.5a.12.12,0,0,1-.11-.11v-9.06a.12.12,0,0,1,.11-.11Z"/><path class="cls-3" d="M189.28,210.08h1a.18.18,0,0,1,.17.17v9.06c0,.06-.06.11-.17.11h-1c-.06,0-.17-.06-.17-.11v-9.06a.26.26,0,0,1,.17-.17Z"/><path class="cls-3" d="M176.52,210.08h1.09c.06,0,.11.11.11.17v9.06a.12.12,0,0,1-.11.11h-1.09a.12.12,0,0,1-.11-.11v-9.06c0-.06.06-.17.11-.17Z"/><path class="cls-3" d="M175.89,208.14H177V205h-.92v-.57l.63-.17a2.09,2.09,0,0,0,.52-.23h.63v4.16h1v.68h-2.92Z"/><path class="cls-3" d="M179.55,208.32c.34-.29.63-.63.92-.86a7.46,7.46,0,0,0,.69-.8,3.4,3.4,0,0,0,.46-.63,1.29,1.29,0,0,0,.17-.63.87.87,0,0,0-.23-.57.66.66,0,0,0-.57-.23,1,1,0,0,0-.57.11,2.7,2.7,0,0,0-.4.4l-.52-.51a2.72,2.72,0,0,1,.69-.51,1.69,1.69,0,0,1,.92-.23,2.43,2.43,0,0,1,.63.11.89.89,0,0,1,.46.34,1.39,1.39,0,0,1,.34.46,2,2,0,0,1,.11.63,1.48,1.48,0,0,1-.17.63,4.16,4.16,0,0,1-.4.68,5.35,5.35,0,0,1-.52.68c-.23.23-.46.51-.69.74h.4a1,1,0,0,1,.4-.06h1.2v.74h-3.32Z"/><path class="cls-3" d="M185,208.94a2.28,2.28,0,0,1-1-.17,3.57,3.57,0,0,1-.69-.51l.46-.57a1.56,1.56,0,0,0,.46.4,1.47,1.47,0,0,0,.69.11,1,1,0,0,0,.63-.17.63.63,0,0,0,.29-.57.81.81,0,0,0-.11-.34c0-.06-.11-.17-.23-.23a2.78,2.78,0,0,0-.4-.17,3.11,3.11,0,0,0-.74-.06V206c.29,0,.46-.06.63-.06a2.8,2.8,0,0,0,.4-.17.57.57,0,0,0,.23-.29,2.41,2.41,0,0,0,.06-.28.46.46,0,0,0-.23-.46.7.7,0,0,0-.52-.17.86.86,0,0,0-.52.11,1.19,1.19,0,0,0-.46.34l-.46-.57a4.72,4.72,0,0,1,.69-.45,1.82,1.82,0,0,1,.8-.17,2.05,2.05,0,0,1,.63.11,2,2,0,0,1,.52.23,1,1,0,0,1,.29.4.93.93,0,0,1,.11.57.91.91,0,0,1-.23.68,1.38,1.38,0,0,1-.63.45h0a1.34,1.34,0,0,1,.74.4,1.36,1.36,0,0,1,.29.8,2,2,0,0,1-.11.63,2.78,2.78,0,0,1-.4.46,1.41,1.41,0,0,1-.52.23,1.47,1.47,0,0,1-.69.11Z"/><path class="cls-3" d="M189.45,206.89v-1.6a1.57,1.57,0,0,0,.06-.51h-.06a2.74,2.74,0,0,1-.17.4,3.31,3.31,0,0,1-.23.4l-.86,1.31Zm1.43.68h-.57v1.25h-.86v-1.25h-2.18V207l1.95-3h1.09v2.91h.57Z"/><path class="cls-4" d="M156.19,155.73V193.5a1.41,1.41,0,0,0,1.49,1.25,1.43,1.43,0,0,0,1.55-1.25L159,150.66c0-.68-.34-.17-1.49,2.28Z"/><path class="cls-4" d="M137.82,164.39c4.18,2.34,11.56,3.08,15.51-.11.69-5-3.84-10.94-8-13.28s-11.56-3.08-15.51.11c-.69,5,3.84,10.94,8,13.27Z"/><path class="cls-4" d="M177.37,163.36c4.12-2.34,8.64-8.26,8-13.27-3.95-3.19-11.39-2.45-15.51-.11s-8.64,8.26-8,13.28c3.95,3.19,11.39,2.45,15.57.11Z"/><path class="cls-4" d="M137.19,183.87c4.58,2.45,12.82,3.25,17.23-.11.74-5.3-4.24-11.57-8.87-14s-12.82-3.25-17.23.11c-.74,5.3,4.24,11.57,8.87,14Z"/><path class="cls-4" d="M178.18,183.13c4.52-2.51,9.45-8.77,8.7-14.07-4.29-3.36-12.37-2.56-16.89-.11s-9.39,8.72-8.7,14.07c4.29,3.36,12.37,2.56,16.89.11Z"/><path class="cls-2" d="M1.45,1.41H78.39a1,1,0,0,1,1,1v105a1,1,0,0,1-1,1H1.45a1,1,0,0,1-1-1V2.38a1,1,0,0,1,1-1Z"/><path class="cls-6" d="M61.9,93.7h1.43a.12.12,0,0,1,.11.12v9a.12.12,0,0,1-.11.11H61.9c-.11,0-.17-.06-.17-.11v-9c0-.06.06-.12.17-.12Z"/><path class="cls-6" d="M66.37,93.7H65.22c-.11,0-.17.06-.17.12v9a.18.18,0,0,0,.17.17h1.14a.26.26,0,0,0,.17-.17v-9c0-.06-.11-.12-.17-.12Z"/><path class="cls-6" d="M67.86,93.7h2.23a.12.12,0,0,1,.11.12v9.06a.12.12,0,0,1-.11.12H67.86a.12.12,0,0,1-.11-.12V93.82a.12.12,0,0,1,.11-.12Z"/><path class="cls-6" d="M71.63,93.7h1c.11,0,.17.06.17.12v9.06a.18.18,0,0,1-.17.17h-1a.26.26,0,0,1-.17-.17V93.82c0-.06.11-.12.17-.12Z"/><path class="cls-6" d="M58.87,93.7H60a.12.12,0,0,1,.11.12v9.06c0,.06-.06.17-.11.17H58.87c-.06,0-.11-.12-.11-.17V93.82a.12.12,0,0,1,.11-.12Z"/><path class="cls-6" d="M58.24,91.71h1.09V88.52h-.92v-.57l.63-.17a2.09,2.09,0,0,0,.52-.23h.63v4.16h1v.74H58.24Z"/><path class="cls-6" d="M61.9,91.94l.92-.91a7.65,7.65,0,0,0,.69-.8A3.4,3.4,0,0,0,64,89.6a1.3,1.3,0,0,0,.17-.63.87.87,0,0,0-.23-.57.72.72,0,0,0-.63-.23.92.92,0,0,0-.52.17,2.11,2.11,0,0,0-.4.34l-.52-.46a2.05,2.05,0,0,1,.69-.57,1.88,1.88,0,0,1,1.55-.11,1.37,1.37,0,0,1,.46.34,3.14,3.14,0,0,1,.34.46A2,2,0,0,1,65,89a1.48,1.48,0,0,1-.17.63,4.32,4.32,0,0,1-.4.68,6,6,0,0,1-.57.68,2.81,2.81,0,0,1-.69.74h.46c.11,0,.29-.06.4-.06h1.2v.8H61.9Z"/><path class="cls-6" d="M67.4,92.51a2.27,2.27,0,0,1-1-.17,2.15,2.15,0,0,1-.69-.51l.4-.57a3.13,3.13,0,0,0,.52.4,1.37,1.37,0,0,0,.69.17,1.21,1.21,0,0,0,.63-.23.6.6,0,0,0,.29-.51.48.48,0,0,0-.11-.34.58.58,0,0,0-.23-.29,2,2,0,0,0-.46-.17,2.42,2.42,0,0,0-.69-.06V89.6a2,2,0,0,0,.63-.06,3,3,0,0,0,.4-.17c.06-.06.17-.17.17-.23a.81.81,0,0,0,.11-.34.52.52,0,0,0-.23-.46.7.7,0,0,0-.52-.17.86.86,0,0,0-.52.11.89.89,0,0,0-.46.34l-.46-.57a2.92,2.92,0,0,1,.69-.46,1.68,1.68,0,0,1,.8-.17,2.42,2.42,0,0,1,.63.12,2,2,0,0,1,.52.23,1.23,1.23,0,0,1,.29.45c.11.12.11.29.11.51a.9.9,0,0,1-.23.68,1.37,1.37,0,0,1-.63.46h0a1.65,1.65,0,0,1,.74.46,1.08,1.08,0,0,1,.29.74,2,2,0,0,1-.11.63,1.53,1.53,0,0,1-.4.46,4.41,4.41,0,0,1-.52.29,2.86,2.86,0,0,1-.69.06Z"/><path class="cls-6" d="M71.81,90.51V88.86c0-.17.06-.34.06-.51h-.06a2.84,2.84,0,0,1-.17.4,3.31,3.31,0,0,1-.23.4l-.86,1.37Zm1.43.68h-.57v1.25h-.86V91.19H69.63v-.63l1.95-3h1.09v3h.57Z"/><path class="cls-6" d="M47.65,35.33c0-4.73-3-11.57-7.73-13.45-4.69,1.88-7.67,8.72-7.67,13.45s3,11.57,7.67,13.4c4.75-1.82,7.73-8.66,7.73-13.4Z"/><path class="cls-6" d="M43.64,55.34c3.95,3.19,11.39,2.45,15.57.11s8.64-8.21,8-13.23c-3.95-3.19-11.33-2.45-15.51-.11s-8.64,8.21-8,13.23Z"/><path class="cls-6" d="M59.21,74.95c4.12-2.28,8.64-8.21,8-13.23-3.95-3.19-11.33-2.45-15.51-.12s-8.64,8.21-8,13.23C47.59,78,55,77.28,59.21,74.95Z"/><path class="cls-6" d="M20.69,55.45c4.18,2.34,11.56,3.08,15.51-.11.69-5-3.84-10.94-8-13.23S16.68,39,12.73,42.23c-.69,5,3.84,10.89,8,13.23Z"/><path class="cls-6" d="M20.69,75.75c4.18,2.34,11.56,3.08,15.51-.12.69-5-3.84-10.94-8-13.28s-11.56-3.08-15.51.12c-.69,5,3.78,10.94,8,13.28Z"/><path class="cls-6" d="M38.43,52.6l.34,35.06c.06.57.23.51,1.55-3.19,1-3.08.86-1.54.86-2.05l.23-29.82c.06-.57-.63-1-1.49-1s-1.49.46-1.49,1Z"/><path class="cls-2" d="M1.55,117.84H78.49a1,1,0,0,1,1,1V223.81a1,1,0,0,1-1,1H1.55a1,1,0,0,1-1-1V118.86a1,1,0,0,1,1-1Z"/><path class="cls-6" d="M62,210.08h1.43c.06,0,.11.11.11.17v8.95c0,.11-.06.17-.11.17H62a.15.15,0,0,1-.17-.17v-8.95a.18.18,0,0,1,.17-.17Z"/><path class="cls-6" d="M66.47,210.08H65.32a.18.18,0,0,0-.17.17v9c0,.06.06.11.17.11h1.14c.06,0,.17-.06.17-.11v-9a.26.26,0,0,0-.17-.17Z"/><path class="cls-6" d="M68,210.14h2.23a.12.12,0,0,1,.11.11v9.06a.12.12,0,0,1-.11.11H68a.12.12,0,0,1-.11-.11v-9.06a.12.12,0,0,1,.11-.11Z"/><path class="cls-6" d="M71.73,210.08h1a.18.18,0,0,1,.17.17v9.06c0,.06-.06.11-.17.11h-1c-.06,0-.17-.06-.17-.11v-9.06a.26.26,0,0,1,.17-.17Z"/><path class="cls-6" d="M59,210.08h1.09c.06,0,.11.11.11.17v9.06a.12.12,0,0,1-.11.11H59a.12.12,0,0,1-.11-.11v-9.06c0-.06.06-.17.11-.17Z"/><path class="cls-6" d="M58.34,208.14h1.09V205h-.92v-.57l.63-.17a2.09,2.09,0,0,0,.52-.23h.63v4.16h1v.68H58.34Z"/><path class="cls-6" d="M62,208.32c.34-.29.63-.63.92-.86a7.46,7.46,0,0,0,.69-.8,3.4,3.4,0,0,0,.46-.63,1.29,1.29,0,0,0,.17-.63.86.86,0,0,0-.23-.57.71.71,0,0,0-.63-.23.86.86,0,0,0-.52.11,2.7,2.7,0,0,0-.4.4l-.52-.51a2.71,2.71,0,0,1,.69-.51,1.69,1.69,0,0,1,.92-.23,2.43,2.43,0,0,1,.63.11.89.89,0,0,1,.46.34,3.24,3.24,0,0,1,.34.46,2,2,0,0,1,.11.63,1.48,1.48,0,0,1-.17.63,4.16,4.16,0,0,1-.4.68,6,6,0,0,1-.57.68,4,4,0,0,1-.69.74h.46a1,1,0,0,1,.4-.06h1.2v.74H62Z"/><path class="cls-6" d="M67.5,208.94a2.28,2.28,0,0,1-1-.17,3.57,3.57,0,0,1-.69-.51l.4-.57a3.22,3.22,0,0,0,.52.4,1.36,1.36,0,0,0,.69.11,1.16,1.16,0,0,0,.63-.17.63.63,0,0,0,.29-.57.81.81,0,0,0-.11-.34c-.06-.06-.11-.17-.23-.23a1.93,1.93,0,0,0-.46-.17,2.42,2.42,0,0,0-.69-.06V206c.29,0,.46-.06.63-.06a2.8,2.8,0,0,0,.4-.17c.06-.06.17-.17.17-.29a.43.43,0,0,0,.11-.28.46.46,0,0,0-.23-.46.7.7,0,0,0-.52-.17.86.86,0,0,0-.52.11.89.89,0,0,0-.46.34L66,204.5a2.86,2.86,0,0,1,.69-.45,1.66,1.66,0,0,1,.8-.17,2.43,2.43,0,0,1,.63.11,2,2,0,0,1,.52.23,1,1,0,0,1,.29.4.93.93,0,0,1,.11.57.91.91,0,0,1-.23.68,1.38,1.38,0,0,1-.63.45h0a1.57,1.57,0,0,1,.74.4,1.36,1.36,0,0,1,.29.8,2,2,0,0,1-.11.63,2.78,2.78,0,0,1-.4.46,1.41,1.41,0,0,1-.52.23,1.47,1.47,0,0,1-.69.11Z"/><path class="cls-6" d="M71.91,206.89v-1.6c0-.17.06-.34.06-.51h-.06a2.74,2.74,0,0,1-.17.4,3.3,3.3,0,0,1-.23.4l-.86,1.31Zm1.43.68h-.57v1.25h-.86v-1.25H69.73V207l1.95-3h1.09v2.91h.57Z"/><path class="cls-6" d="M38.65,155.73V193.5a1.41,1.41,0,0,0,1.49,1.25,1.37,1.37,0,0,0,1.49-1.25l-.17-42.84c0-.68-.34-.17-1.49,2.28Z"/><path class="cls-6" d="M20.27,164.39c4.18,2.34,11.56,3.08,15.51-.11.69-5-3.84-10.94-8-13.28s-11.56-3.08-15.51.11c-.69,5,3.84,10.94,8,13.27Z"/><path class="cls-6" d="M59.83,163.36c4.12-2.34,8.64-8.26,8-13.27-3.95-3.19-11.39-2.45-15.51-.11s-8.64,8.26-8,13.28c4,3.19,11.39,2.45,15.57.11Z"/><path class="cls-6" d="M19.64,183.87c4.58,2.45,12.82,3.25,17.23-.11.74-5.3-4.24-11.57-8.87-14s-12.82-3.25-17.23.11c-.74,5.3,4.24,11.57,8.87,14Z"/><path class="cls-6" d="M60.63,183.13c4.52-2.51,9.45-8.77,8.7-14.07C65,165.7,57,166.49,52.44,168.94S43,177.66,43.74,183c4.29,3.36,12.37,2.56,16.89.11Z"/><rect class="cls-7" x="235.89" y="2.44" width="79" height="104.95"/><path class="cls-8" d="M236.38,1.41h77a1,1,0,0,1,1,1v105a1,1,0,0,1-1,1h-77a1,1,0,0,1-1-1V2.38a1,1,0,0,1,1-1Z"/><path class="cls-3" d="M296.83,93.7h1.43c.06,0,.17.06.17.12v9c0,.06-.11.11-.17.11h-1.43c-.11,0-.17-.06-.17-.11v-9c0-.06.06-.12.17-.12Z"/><path class="cls-3" d="M301.3,93.7h-1.14c-.06,0-.17.06-.17.12v9a.26.26,0,0,0,.17.17h1.14a.18.18,0,0,0,.17-.17v-9c0-.06-.06-.12-.17-.12Z"/><path class="cls-3" d="M302.84,93.7H305a.12.12,0,0,1,.11.12v9.06a.12.12,0,0,1-.11.12h-2.18c-.11,0-.17-.06-.17-.12V93.82c0-.06.06-.12.17-.12Z"/><path class="cls-3" d="M306.56,93.7h1c.11,0,.17.06.17.12v9.06a.18.18,0,0,1-.17.17h-1c-.06,0-.11-.12-.11-.17V93.82a.12.12,0,0,1,.11-.12Z"/><path class="cls-3" d="M293.85,93.7h1a.12.12,0,0,1,.11.12v9.06c0,.06-.06.17-.11.17h-1a.18.18,0,0,1-.17-.17V93.82c0-.06.06-.12.17-.12Z"/><path class="cls-3" d="M293.17,91.71h1.09V88.52h-.92v-.57a5,5,0,0,0,.63-.17,2.09,2.09,0,0,0,.52-.23h.69v4.16h.92v.74h-2.92Z"/><path class="cls-3" d="M296.83,91.94l.92-.91a7.65,7.65,0,0,0,.69-.8,3.4,3.4,0,0,0,.46-.63,1.3,1.3,0,0,0,.17-.63.78.78,0,0,0-.8-.8.7.7,0,0,0-.52.17,1.37,1.37,0,0,0-.46.34l-.52-.46a1.76,1.76,0,0,1,.74-.57,1.91,1.91,0,0,1,.86-.23,2,2,0,0,1,.63.12,1.37,1.37,0,0,1,.46.34.89.89,0,0,1,.34.46,2,2,0,0,1,.11.63,1.48,1.48,0,0,1-.17.63,3.88,3.88,0,0,1-.34.68c-.17.23-.4.46-.57.68a9,9,0,0,1-.69.74h.4c.17,0,.29-.06.4-.06h1.2v.8h-3.32Z"/><path class="cls-3" d="M302.33,92.51a2.46,2.46,0,0,1-1-.17,2.15,2.15,0,0,1-.69-.51l.46-.57a1.24,1.24,0,0,0,.52.4,1.16,1.16,0,0,0,.63.17,1,1,0,0,0,.63-.23.6.6,0,0,0,.29-.51,2,2,0,0,0-.06-.34.7.7,0,0,0-.29-.29,3,3,0,0,0-.4-.17,2.86,2.86,0,0,0-.69-.06V89.6a1.76,1.76,0,0,0,.57-.06,3,3,0,0,0,.4-.17c.11-.06.17-.17.23-.23a.72.72,0,0,0,.06-.34.64.64,0,0,0-.17-.46,1,1,0,0,0-.57-.17.86.86,0,0,0-.52.11,1.21,1.21,0,0,0-.46.34l-.46-.57a4.89,4.89,0,0,1,.69-.46,1.85,1.85,0,0,1,.8-.17,2,2,0,0,1,.63.12,1.38,1.38,0,0,1,.52.23,3.11,3.11,0,0,1,.34.45,1.14,1.14,0,0,1,.11.51.94.94,0,0,1-.29.68,1.53,1.53,0,0,1-.57.46h0a1.47,1.47,0,0,1,.69.46.87.87,0,0,1,.29.74,1.12,1.12,0,0,1-.11.63,1.53,1.53,0,0,1-.4.46,2.12,2.12,0,0,1-.52.29,2.86,2.86,0,0,1-.69.06Z"/><path class="cls-3" d="M306.73,90.51V89.37a2,2,0,0,1,.06-.51v-.51h0a3.17,3.17,0,0,0-.23.4,2.75,2.75,0,0,0-.17.4l-.92,1.37Zm1.49.68h-.63v1.25h-.86V91.19h-2.12v-.63l1.89-3h1.09v3h.63Z"/><path class="cls-6" d="M282.58,35.33c0-4.73-3-11.57-7.67-13.45-4.75,1.88-7.73,8.72-7.73,13.45s3,11.57,7.73,13.4c4.69-1.82,7.67-8.66,7.67-13.4Z"/><path class="cls-6" d="M278.63,55.34c3.95,3.19,11.33,2.45,15.51.11s8.64-8.21,8-13.23c-4-3.19-11.33-2.45-15.51-.11s-8.64,8.21-8,13.23Z"/><path class="cls-6" d="M294.14,74.95c4.18-2.28,8.64-8.21,8-13.23-4-3.19-11.33-2.45-15.51-.12s-8.64,8.21-8,13.23c3.95,3.19,11.33,2.45,15.51.12Z"/><path class="cls-6" d="M255.61,55.45c4.18,2.34,11.62,3.08,15.57-.11.63-5-3.84-10.94-8-13.23s-11.56-3.08-15.51.11c-.69,5,3.84,10.89,8,13.23Z"/><path class="cls-6" d="M255.61,75.75c4.18,2.34,11.62,3.08,15.57-.12.63-5-3.84-10.94-8-13.28s-11.56-3.08-15.51.12c-.69,5,3.84,10.94,8,13.28Z"/><path class="cls-6" d="M273.42,52.6l.34,35.06c0,.57.17.51,1.49-3.19,1.09-3.08.86-1.54.86-2.05l.29-29.82c0-.57-.69-1-1.49-1s-1.55.46-1.49,1Z"/><path class="cls-9" d="M274.9,23.59Z"/><path class="cls-10" d="M274.9,23.59"/><rect class="cls-1" x="235.4" y="119.81" width="76.63" height="105.51"/><rect class="cls-1" x="235.4" y="120.37" width="79" height="104.95"/><path class="cls-11" d="M236.38,118.32h77a1,1,0,0,1,1,1V224.3a1,1,0,0,1-1,1h-77a1,1,0,0,1-1-1V119.35a1,1,0,0,1,1-1Z"/><path class="cls-3" d="M296.83,210.56h1.43a.26.26,0,0,1,.17.17v8.95a.18.18,0,0,1-.17.17h-1.43a.15.15,0,0,1-.17-.17v-8.95a.18.18,0,0,1,.17-.17Z"/><path class="cls-3" d="M301.3,210.56h-1.14a.26.26,0,0,0-.17.17v9c0,.06.11.11.17.11h1.14c.11,0,.17-.06.17-.11v-9a.18.18,0,0,0-.17-.17Z"/><path class="cls-3" d="M302.84,210.62H305a.12.12,0,0,1,.11.11v9.06a.12.12,0,0,1-.11.11h-2.18c-.11,0-.17-.06-.17-.11v-9.06c0-.06.06-.11.17-.11Z"/><path class="cls-3" d="M306.56,210.56h1a.18.18,0,0,1,.17.17v9.06c0,.06-.06.11-.17.11h-1a.12.12,0,0,1-.11-.11v-9.06c0-.06.06-.17.11-.17Z"/><path class="cls-3" d="M293.85,210.56h1c.06,0,.11.11.11.17v9.06a.12.12,0,0,1-.11.11h-1c-.11,0-.17-.06-.17-.11v-9.06a.18.18,0,0,1,.17-.17Z"/><path class="cls-3" d="M293.17,208.63h1.09v-3.19h-.92v-.57a5,5,0,0,0,.63-.17,2.09,2.09,0,0,0,.52-.23h.69v4.16h.92v.68h-2.92Z"/><path class="cls-3" d="M296.83,208.8c.34-.29.63-.63.92-.86a7.46,7.46,0,0,0,.69-.8,3.4,3.4,0,0,0,.46-.63,1.29,1.29,0,0,0,.17-.63.78.78,0,0,0-.8-.8c-.23,0-.4,0-.52.11a1.56,1.56,0,0,0-.46.4l-.52-.51a2.19,2.19,0,0,1,.74-.51,1.39,1.39,0,0,1,.86-.23,2,2,0,0,1,.63.11,2,2,0,0,1,.8.8,2,2,0,0,1,.11.63,1.48,1.48,0,0,1-.17.63,3.75,3.75,0,0,1-.34.68c-.17.23-.4.46-.57.68s-.46.51-.69.74h.4a1.15,1.15,0,0,1,.4-.06h1.2v.74h-3.32Z"/><path class="cls-3" d="M302.33,209.42a2.46,2.46,0,0,1-1-.17,3.57,3.57,0,0,1-.69-.51l.46-.57a1.26,1.26,0,0,0,.52.4,1.14,1.14,0,0,0,.63.11,1,1,0,0,0,.63-.17.63.63,0,0,0,.29-.57c0-.11-.06-.23-.06-.34a1.25,1.25,0,0,0-.29-.23,2.79,2.79,0,0,0-.4-.17,2.87,2.87,0,0,0-.69-.06v-.63c.23,0,.4-.06.57-.06a2.8,2.8,0,0,0,.4-.17A.57.57,0,0,0,303,206c.06-.06.06-.17.06-.28a.56.56,0,0,0-.17-.46,1,1,0,0,0-.57-.17.86.86,0,0,0-.52.11,1.19,1.19,0,0,0-.46.34l-.46-.57a4.72,4.72,0,0,1,.69-.45,1.82,1.82,0,0,1,.8-.17,2.05,2.05,0,0,1,.63.11,1.41,1.41,0,0,1,.52.23,2.46,2.46,0,0,1,.34.4,1.67,1.67,0,0,1,.11.57.94.94,0,0,1-.29.68,1.55,1.55,0,0,1-.57.45h0a1.38,1.38,0,0,1,.69.4,1.06,1.06,0,0,1,.29.8,1.12,1.12,0,0,1-.11.63,2.78,2.78,0,0,1-.4.46,1.08,1.08,0,0,1-.52.23,1.47,1.47,0,0,1-.69.11Z"/><path class="cls-3" d="M306.73,207.37v-1.08a2,2,0,0,1,.06-.51v-.51h0a3.3,3.3,0,0,0-.23.4,2.74,2.74,0,0,0-.17.4l-.92,1.31Zm1.49.68h-.63v1.25h-.86v-1.25h-2.12v-.57l1.89-3h1.09v2.91h.63Z"/><path class="cls-4" d="M273.53,156.21V194a1.37,1.37,0,0,0,1.49,1.25,1.41,1.41,0,0,0,1.49-1.25l-.17-42.84c-.06-.68-.34-.17-1.55,2.28Z"/><path class="cls-4" d="M255.1,164.87c4.18,2.34,11.62,3.08,15.57-.11.63-5-3.84-10.94-8-13.28s-11.56-3.08-15.51.11c-.69,5,3.84,10.94,8,13.27Z"/><path class="cls-4" d="M294.65,163.84c4.12-2.34,8.64-8.26,8-13.27-3.95-3.19-11.33-2.45-15.51-.11s-8.64,8.26-8,13.28c4,3.19,11.33,2.45,15.51.11Z"/><path class="cls-4" d="M254.47,184.36c4.64,2.45,12.82,3.25,17.23-.11.74-5.3-4.24-11.57-8.87-14s-12.82-3.25-17.23.11c-.74,5.3,4.24,11.57,8.87,14Z"/><path class="cls-4" d="M295.46,183.61c4.52-2.51,9.45-8.77,8.7-14.07-4.29-3.36-12.37-2.56-16.89-.11s-9.39,8.72-8.7,14.07c4.35,3.36,12.37,2.56,16.89.11Z"/></svg>