<svg id="Layer_1" data-name="Layer 1" xmlns="http://www.w3.org/2000/svg" viewBox="0 0 432.72 109.82"><defs><style>.cls-1,.cls-4{fill:#fff;}.cls-1{stroke:#010101;stroke-width:0.84px;}.cls-1,.cls-5{stroke-linecap:round;stroke-linejoin:round;}.cls-2,.cls-5,.cls-6{fill:#69bd45;}.cls-3{fill:#010101;}.cls-5{fill-opacity:0.2;stroke-width:2.82px;}.cls-5,.cls-6{stroke:#69bd45;}.cls-6{stroke-miterlimit:10;}</style></defs><title>case-a</title><path class="cls-1" d="M1.45,1.41H78.39a1,1,0,0,1,1,1V107.38a1,1,0,0,1-1,1H1.45a1,1,0,0,1-1-1V2.44a1,1,0,0,1,1-1Z"/><path class="cls-2" d="M61.85,93.65h1.43a.15.15,0,0,1,.17.17v8.95a.15.15,0,0,1-.17.17H61.85a.15.15,0,0,1-.17-.17V93.82a.15.15,0,0,1,.17-.17Z"/><path class="cls-2" d="M66.31,93.65H65.17a.18.18,0,0,0-.17.17v8.95a.18.18,0,0,0,.17.17h1.14a.15.15,0,0,0,.17-.17V93.82a.15.15,0,0,0-.17-.17Z"/><path class="cls-2" d="M67.86,93.65H70a.18.18,0,0,1,.17.17v9A.18.18,0,0,1,70,103H67.86a.15.15,0,0,1-.17-.17v-9a.15.15,0,0,1,.17-.17Z"/><path class="cls-2" d="M71.58,93.65h1.09c.06,0,.11.06.11.17v9c0,.11-.06.17-.11.17H71.58c-.06,0-.11-.06-.11-.17v-9c0-.11.06-.17.11-.17Z"/><path class="cls-2" d="M58.87,93.65h1a.18.18,0,0,1,.17.17v9a.18.18,0,0,1-.17.17h-1a.15.15,0,0,1-.17-.17v-9a.15.15,0,0,1,.17-.17Z"/><path class="cls-2" d="M58.18,91.66h1.09V88.47h-.92V87.9a1.77,1.77,0,0,0,.63-.11,4.64,4.64,0,0,0,.52-.23h.69v4.1h1v.74h-3Z"/><path class="cls-2" d="M61.85,91.89c.34-.34.69-.63.92-.91l.74-.74a2.13,2.13,0,0,0,.4-.68,1.09,1.09,0,0,0,.17-.57.78.78,0,0,0-.23-.63.66.66,0,0,0-.57-.23.93.93,0,0,0-.52.17,2.88,2.88,0,0,0-.46.4l-.46-.51a6.1,6.1,0,0,1,.69-.57,1.92,1.92,0,0,1,.86-.17,2.06,2.06,0,0,1,.63.11,2.3,2.3,0,0,1,.52.28,1.24,1.24,0,0,1,.29.46,2.41,2.41,0,0,1,.11.63,1.51,1.51,0,0,1-.17.68,2.53,2.53,0,0,1-.34.68c-.17.17-.34.46-.57.68a8.78,8.78,0,0,0-.69.74c.11,0,.29-.06.4-.06h1.6v.74H61.85Z"/><path class="cls-2" d="M67.34,92.51a2.71,2.71,0,0,1-1-.23,2.07,2.07,0,0,1-.69-.46l.46-.57a2,2,0,0,0,.52.34,1.16,1.16,0,0,0,.63.17.92.92,0,0,0,.63-.17A.79.79,0,0,0,68.2,91c0-.11-.06-.23-.06-.34s-.17-.17-.23-.28a1.08,1.08,0,0,0-.46-.11,2.37,2.37,0,0,0-.69-.06v-.68a1.77,1.77,0,0,0,.57-.06.83.83,0,0,0,.4-.11,1,1,0,0,0,.23-.29.51.51,0,0,0,.06-.28.69.69,0,0,0-.17-.51,1,1,0,0,0-.57-.17,1.68,1.68,0,0,0-.52.11c-.17.11-.29.23-.46.34l-.46-.51a2.4,2.4,0,0,1,.69-.46,1.84,1.84,0,0,1,.8-.17,2.15,2.15,0,0,1,.63.06,1.11,1.11,0,0,1,.52.28,2.5,2.5,0,0,1,.34.4,1.66,1.66,0,0,1,.11.51,1.61,1.61,0,0,1-.23.74,2.38,2.38,0,0,1-.63.4v.06a1.06,1.06,0,0,1,.69.4,1,1,0,0,1,.29.8.93.93,0,0,1-.11.57,1.37,1.37,0,0,1-.34.46,1.79,1.79,0,0,1-.57.28,2.47,2.47,0,0,1-.69.11Z"/><path class="cls-2" d="M71.75,90.46V89.38c0-.17.06-.34.06-.51v-.51h0c-.06.11-.17.23-.23.34a2.74,2.74,0,0,1-.17.4l-.92,1.37Zm1.49.68h-.63V92.4h-.86V91.15H69.63v-.63l1.95-3h1v2.91h.63Z"/><path class="cls-2" d="M48.22,61.24a2.58,2.58,0,0,1-.63-.06c-.52,1.77-.8,3.19-.8,3.19a.68.68,0,0,1-.69.63h-.17a.77.77,0,0,1-.57-.85c.06-.17.34-1.77,1-3.7a8.17,8.17,0,0,1,.34-8.09A7.33,7.33,0,0,1,54.06,49c.17.06.4.17.46.34a8.12,8.12,0,0,1-.11,8.43,7.4,7.4,0,0,1-6.18,3.42Z"/><path class="cls-2" d="M53.49,50.47a6,6,0,0,0-5.61,2.73,6.49,6.49,0,0,0-.74,5.24A15.49,15.49,0,0,1,48.8,55.6a.73.73,0,0,1,1-.06.72.72,0,0,1,.06,1,12.66,12.66,0,0,0-1.72,3.13,5.82,5.82,0,0,0,5-2.73,6.58,6.58,0,0,0,.29-6.5Z"/><path class="cls-2" d="M46.28,64.6a.44.44,0,0,1-.29.11.7.7,0,0,1-.69-.29,30.24,30.24,0,0,0-2.4-3.13,11.67,11.67,0,0,1-4,1.42,12.11,12.11,0,0,1-9.27-2.17,13.74,13.74,0,0,1-5.21-13.39.57.57,0,0,1,.34-.46,12.13,12.13,0,0,1,13.68.46A13.72,13.72,0,0,1,43.76,60a28.84,28.84,0,0,1,2.69,3.53.73.73,0,0,1-.17,1Z"/><path class="cls-2" d="M37.63,48.42a10.89,10.89,0,0,0-11.91-.63A12.22,12.22,0,0,0,30.42,59.3a10.93,10.93,0,0,0,11.51.85,25.91,25.91,0,0,0-7.27-5.81.8.8,0,0,1-.34-1,.69.69,0,0,1,.92-.34,26,26,0,0,1,7.21,5.58,11.87,11.87,0,0,0-4.81-10.14Z"/><path class="cls-1" d="M119.08,1.41H196a1,1,0,0,1,1,1V107.38a1,1,0,0,1-1,1H119.08a1,1,0,0,1-1-1V2.44a1,1,0,0,1,1-1Z"/><path class="cls-3" d="M180.48,93.65h1.43a.15.15,0,0,1,.17.17v8.95a.15.15,0,0,1-.17.17h-1.43a.18.18,0,0,1-.17-.17V93.82a.18.18,0,0,1,.17-.17Z"/><path class="cls-3" d="M184.94,93.65H183.8c-.06,0-.11.06-.11.17v8.95c0,.11.06.17.11.17h1.14a.15.15,0,0,0,.17-.17V93.82a.15.15,0,0,0-.17-.17Z"/><path class="cls-3" d="M186.49,93.65h2.18a.18.18,0,0,1,.17.17v9a.18.18,0,0,1-.17.17h-2.18a.15.15,0,0,1-.17-.17v-9a.15.15,0,0,1,.17-.17Z"/><path class="cls-3" d="M190.26,93.65h1c.06,0,.11.06.11.17v9c0,.11-.06.17-.11.17h-1a.15.15,0,0,1-.17-.17v-9a.15.15,0,0,1,.17-.17Z"/><path class="cls-3" d="M177.5,93.65h1a.18.18,0,0,1,.17.17v9a.18.18,0,0,1-.17.17h-1a.15.15,0,0,1-.17-.17v-9a.15.15,0,0,1,.17-.17Z"/><path class="cls-3" d="M176.81,91.66h1.09V88.47H177V87.9a2.47,2.47,0,0,0,.69-.11,3.46,3.46,0,0,0,.46-.23h.69v4.1h1v.74h-3Z"/><path class="cls-3" d="M180.48,91.89c.34-.34.69-.63.92-.91l.74-.74a2.13,2.13,0,0,0,.4-.68,1.09,1.09,0,0,0,.17-.57.78.78,0,0,0-.23-.63.6.6,0,0,0-.57-.23.93.93,0,0,0-.52.17,2.88,2.88,0,0,0-.46.4l-.46-.51a6.1,6.1,0,0,1,.69-.57,1.92,1.92,0,0,1,.86-.17,2.06,2.06,0,0,1,.63.11,2.3,2.3,0,0,1,.52.28,1.24,1.24,0,0,1,.29.46,2.41,2.41,0,0,1,.11.63,1.51,1.51,0,0,1-.17.68,2.53,2.53,0,0,1-.34.68c-.17.17-.34.46-.57.68a8.78,8.78,0,0,0-.69.74c.11,0,.29-.06.4-.06h1.6v.74h-3.32Z"/><path class="cls-3" d="M186,92.51a2.75,2.75,0,0,1-1-.23,1.8,1.8,0,0,1-.63-.46l.4-.57a4,4,0,0,0,.52.34,1.16,1.16,0,0,0,.63.17,1.22,1.22,0,0,0,.69-.17,1,1,0,0,0,.23-.57.72.72,0,0,0-.06-.34,1,1,0,0,0-.23-.28,1.08,1.08,0,0,0-.46-.11,2.37,2.37,0,0,0-.69-.06v-.68a1.6,1.6,0,0,0,.57-.06.83.83,0,0,0,.4-.11,1,1,0,0,0,.23-.29.51.51,0,0,0,.06-.28.69.69,0,0,0-.17-.51.8.8,0,0,0-.52-.17,1.7,1.7,0,0,0-.57.11,3.14,3.14,0,0,1-.46.34l-.46-.51a2.4,2.4,0,0,1,.69-.46,1.84,1.84,0,0,1,.8-.17,2.15,2.15,0,0,1,.63.06,1.11,1.11,0,0,1,.52.28,2.5,2.5,0,0,1,.34.4,1.66,1.66,0,0,1,.11.51,1.61,1.61,0,0,1-.23.74,2.38,2.38,0,0,1-.63.4v.06a1.06,1.06,0,0,1,.69.4,1,1,0,0,1,.34.8,1,1,0,0,1-.17.57,1.37,1.37,0,0,1-.34.46,1.79,1.79,0,0,1-.57.28,2.06,2.06,0,0,1-.63.11Z"/><path class="cls-3" d="M190.44,90.46V88.35h0a1.19,1.19,0,0,1-.23.34,2.74,2.74,0,0,1-.17.4l-.92,1.37Zm1.43.68h-.63V92.4h-.8V91.15h-2.18v-.63l1.95-3h1v2.91h.63Z"/><path class="cls-2" d="M165.85,61.24a2.58,2.58,0,0,1-.63-.06c-.52,1.77-.8,3.19-.8,3.19a.68.68,0,0,1-.69.63h-.17a.77.77,0,0,1-.57-.85c.06-.17.34-1.77,1-3.7a8.17,8.17,0,0,1,.34-8.09,7.33,7.33,0,0,1,7.38-3.3c.17.06.4.17.46.34a8.12,8.12,0,0,1-.11,8.43,7.4,7.4,0,0,1-6.18,3.42Z"/><path class="cls-2" d="M171.12,50.47a6,6,0,0,0-5.61,2.73,6.49,6.49,0,0,0-.74,5.24,15.49,15.49,0,0,1,1.66-2.85.73.73,0,0,1,1-.06.72.72,0,0,1,.06,1,12.66,12.66,0,0,0-1.72,3.13,5.82,5.82,0,0,0,5-2.73,6.58,6.58,0,0,0,.29-6.5Z"/><path class="cls-2" d="M163.9,64.6a.44.44,0,0,1-.29.11.7.7,0,0,1-.69-.29,30.24,30.24,0,0,0-2.4-3.13,11.67,11.67,0,0,1-4,1.42,12.11,12.11,0,0,1-9.27-2.17A13.74,13.74,0,0,1,142,47.17a.57.57,0,0,1,.34-.46,12.13,12.13,0,0,1,13.68.46A13.72,13.72,0,0,1,161.39,60a28.84,28.84,0,0,1,2.69,3.53.73.73,0,0,1-.17,1Z"/><path class="cls-2" d="M155.26,48.42a10.89,10.89,0,0,0-11.91-.63A12.22,12.22,0,0,0,148,59.3a10.93,10.93,0,0,0,11.51.85,25.91,25.91,0,0,0-7.27-5.81.8.8,0,0,1-.34-1,.69.69,0,0,1,.92-.34,26,26,0,0,1,7.21,5.58,11.87,11.87,0,0,0-4.81-10.14Z"/><rect class="cls-4" x="235.67" y="1.41" width="79" height="107"/><path class="cls-5" d="M236.7,1.41h76.94a1,1,0,0,1,1,1V107.38a1,1,0,0,1-1,1H236.7a1,1,0,0,1-1-1V2.44a1,1,0,0,1,1-1Z"/><path class="cls-3" d="M296.06,93.42h1.43q.17,0,.17.16v8.62q0,.16-.17.16h-1.43a.18.18,0,0,1-.17-.16V93.59a.18.18,0,0,1,.17-.16Z"/><path class="cls-3" d="M300.52,93.42h-1.14c-.06,0-.11.05-.11.16v8.62c0,.11.06.16.11.16h1.14q.17,0,.17-.16V93.59q0-.16-.17-.16Z"/><path class="cls-3" d="M302.07,93.42h2.18q.17,0,.17.16v8.67q0,.16-.17.16h-2.18a.18.18,0,0,1-.17-.16V93.59a.18.18,0,0,1,.17-.16Z"/><path class="cls-3" d="M305.85,93.42h1a.18.18,0,0,1,.17.16v8.67a.18.18,0,0,1-.17.16h-1q-.17,0-.17-.16V93.59q0-.16.17-.16Z"/><path class="cls-3" d="M293.08,93.42h1q.17,0,.17.16v8.67q0,.16-.17.16h-1a.18.18,0,0,1-.17-.16V93.59a.18.18,0,0,1,.17-.16Z"/><path class="cls-3" d="M292.39,91.5h1.09V88.43h-.86v-.55a2.14,2.14,0,0,0,.63-.11,3.52,3.52,0,0,0,.46-.22h.69v4h1v.71h-3Z"/><path class="cls-3" d="M296.12,91.72c.29-.33.63-.6.92-.88a8.58,8.58,0,0,1,.69-.71,4.57,4.57,0,0,0,.46-.66,1.88,1.88,0,0,0,.11-.55,1,1,0,0,0-.17-.6.8.8,0,0,0-.63-.22,1,1,0,0,0-.52.16,2.85,2.85,0,0,0-.46.38l-.46-.49a6.06,6.06,0,0,1,.69-.55,2,2,0,0,1,.86-.16,2.14,2.14,0,0,1,.63.11,1.51,1.51,0,0,1,.52.27,1.19,1.19,0,0,1,.29.44,2.25,2.25,0,0,1,.11.6,2.65,2.65,0,0,1-.11.66c-.11.22-.23.38-.4.66s-.34.44-.57.66a8.58,8.58,0,0,0-.69.71c.11,0,.29-.05.4-.05h1.6v.71h-3.26Z"/><path class="cls-3" d="M301.61,92.33a2.84,2.84,0,0,1-1-.22,2.55,2.55,0,0,1-.63-.44l.4-.55.52.33a1.19,1.19,0,0,0,.63.16,1.26,1.26,0,0,0,.69-.16.69.69,0,0,0,.23-.55.67.67,0,0,0-.06-.33,1,1,0,0,0-.23-.27,1.11,1.11,0,0,0-.46-.11,2.46,2.46,0,0,0-.69-.05v-.66a1.66,1.66,0,0,0,.57-.05.69.69,0,0,0,.4-.11,1,1,0,0,0,.23-.27.48.48,0,0,0,.06-.27.65.65,0,0,0-.17-.49.72.72,0,0,0-.52-.16,1.76,1.76,0,0,0-.57.11,3.13,3.13,0,0,1-.46.33l-.4-.49a1.63,1.63,0,0,1,.63-.44,1.9,1.9,0,0,1,.8-.16,2.9,2.9,0,0,1,.69.05,1.25,1.25,0,0,1,.46.27.75.75,0,0,1,.34.38,1.55,1.55,0,0,1,.11.49,1.07,1.07,0,0,1-.23.71,1.72,1.72,0,0,1-.63.38v.05a1.39,1.39,0,0,1,.74.38,1.16,1.16,0,0,1,.29.77.9.9,0,0,1-.17.55.86.86,0,0,1-.34.44,1.82,1.82,0,0,1-.57.27,2.14,2.14,0,0,1-.63.11Z"/><path class="cls-3" d="M306,90.35v-2h0l-.17.33a3.15,3.15,0,0,0-.23.38l-.92,1.32Zm1.43.66h-.63v1.21H306V91h-2.18v-.6l1.95-2.85h1v2.8h.63Z"/><path class="cls-6" d="M283.67,61.11a2.27,2.27,0,0,1-.64-.06,30.36,30.36,0,0,0-.87,3.12.68.68,0,0,1-.7.61h-.12a.67.67,0,0,1-.58-.84,18.66,18.66,0,0,1,1-3.63,7.74,7.74,0,0,1,.35-7.92,7.43,7.43,0,0,1,7.45-3.24.85.85,0,0,1,.52.33,7.82,7.82,0,0,1-.17,8.26,7.49,7.49,0,0,1-6.23,3.35Z"/><path class="cls-6" d="M289,50.56a6.08,6.08,0,0,0-6.46,7.81,12.67,12.67,0,0,1,1.75-2.79.71.71,0,0,1,1,.95,12.27,12.27,0,0,0-1.75,3.07,6,6,0,0,0,5.12-2.68,6.1,6.1,0,0,0,.29-6.36Z"/><path class="cls-6" d="M281.63,64.4a.45.45,0,0,1-.29.11.72.72,0,0,1-.7-.28,29.73,29.73,0,0,0-2.44-3.07,12.16,12.16,0,0,1-4.07,1.39,12.74,12.74,0,0,1-9.43-2.12,13.21,13.21,0,0,1-5.3-13.11.7.7,0,0,1,.35-.45,12.82,12.82,0,0,1,14,.45,13.29,13.29,0,0,1,5.36,12.61c1.63,1.84,2.68,3.29,2.79,3.46a.71.71,0,0,1-.23,1Z"/><path class="cls-6" d="M272.85,48.56a11.43,11.43,0,0,0-12.11-.61,11.69,11.69,0,0,0,4.83,11.27,11.35,11.35,0,0,0,11.64.84,26.2,26.2,0,0,0-7.39-5.69.77.77,0,0,1-.35-1,.71.71,0,0,1,.93-.34,26.3,26.3,0,0,1,7.33,5.47,11.47,11.47,0,0,0-4.89-9.93Z"/><path class="cls-1" d="M354.33,1.41h76.94a1,1,0,0,1,1,1V107.38a1,1,0,0,1-1,1H354.33a1,1,0,0,1-1-1V2.44a1,1,0,0,1,1-1Z"/><path class="cls-3" d="M415.73,93.65h1.43a.15.15,0,0,1,.17.17v8.95a.15.15,0,0,1-.17.17h-1.43a.18.18,0,0,1-.17-.17V93.82a.18.18,0,0,1,.17-.17Z"/><path class="cls-3" d="M420.2,93.65h-1.14c-.06,0-.11.06-.11.17v8.95c0,.11.06.17.11.17h1.14a.15.15,0,0,0,.17-.17V93.82a.15.15,0,0,0-.17-.17Z"/><path class="cls-3" d="M421.74,93.65h2.18a.18.18,0,0,1,.17.17v9a.18.18,0,0,1-.17.17h-2.18a.15.15,0,0,1-.17-.17v-9a.15.15,0,0,1,.17-.17Z"/><path class="cls-3" d="M425.52,93.65h1c.06,0,.11.06.11.17v9c0,.11-.06.17-.11.17h-1a.15.15,0,0,1-.17-.17v-9a.15.15,0,0,1,.17-.17Z"/><path class="cls-3" d="M412.75,93.65h1a.18.18,0,0,1,.17.17v9a.18.18,0,0,1-.17.17h-1a.15.15,0,0,1-.17-.17v-9a.15.15,0,0,1,.17-.17Z"/><path class="cls-3" d="M412.07,91.66h1.09V88.47h-.92V87.9a2.47,2.47,0,0,0,.69-.11,3.46,3.46,0,0,0,.46-.23h.69v4.1h1v.74h-3Z"/><path class="cls-3" d="M415.73,91.89c.34-.34.69-.63.92-.91l.74-.74a2.13,2.13,0,0,0,.4-.68A1.09,1.09,0,0,0,418,89a.78.78,0,0,0-.23-.63.6.6,0,0,0-.57-.23.93.93,0,0,0-.52.17,2.88,2.88,0,0,0-.46.4l-.46-.51a6.1,6.1,0,0,1,.69-.57,1.92,1.92,0,0,1,.86-.17,2.06,2.06,0,0,1,.63.11,2.3,2.3,0,0,1,.52.28,1.24,1.24,0,0,1,.29.46,2.41,2.41,0,0,1,.11.63,1.51,1.51,0,0,1-.17.68,2.53,2.53,0,0,1-.34.68c-.17.17-.34.46-.57.68a8.78,8.78,0,0,0-.69.74c.11,0,.29-.06.4-.06h1.6v.74h-3.32Z"/><path class="cls-3" d="M421.28,92.51a2.75,2.75,0,0,1-1-.23,1.8,1.8,0,0,1-.63-.46l.4-.57a4,4,0,0,0,.52.34,1.16,1.16,0,0,0,.63.17,1.22,1.22,0,0,0,.69-.17,1,1,0,0,0,.23-.57.72.72,0,0,0-.06-.34,1,1,0,0,0-.23-.28,1.08,1.08,0,0,0-.46-.11,2.37,2.37,0,0,0-.69-.06v-.68a1.6,1.6,0,0,0,.57-.06.83.83,0,0,0,.4-.11,1,1,0,0,0,.23-.29.51.51,0,0,0,.06-.28.69.69,0,0,0-.17-.51.8.8,0,0,0-.52-.17,1.7,1.7,0,0,0-.57.11,3.14,3.14,0,0,1-.46.34l-.46-.51a2.4,2.4,0,0,1,.69-.46,1.84,1.84,0,0,1,.8-.17,2.15,2.15,0,0,1,.63.06,1.11,1.11,0,0,1,.52.28,2.5,2.5,0,0,1,.34.4,1.66,1.66,0,0,1,.11.51,1.61,1.61,0,0,1-.23.74,2.38,2.38,0,0,1-.63.4v.06a1.06,1.06,0,0,1,.69.4,1,1,0,0,1,.34.8,1,1,0,0,1-.17.57,1.37,1.37,0,0,1-.34.46,1.79,1.79,0,0,1-.57.28,2.06,2.06,0,0,1-.63.11Z"/><path class="cls-3" d="M425.69,90.46V88.35h0a1.19,1.19,0,0,1-.23.34,2.74,2.74,0,0,1-.17.4l-.92,1.37Zm1.43.68h-.63V92.4h-.8V91.15h-2.18v-.63l1.95-3h1v2.91h.63Z"/><path class="cls-2" d="M401.11,61.24a2.58,2.58,0,0,1-.63-.06c-.52,1.77-.8,3.19-.8,3.19A.68.68,0,0,1,399,65h-.17a.77.77,0,0,1-.57-.85c.06-.17.34-1.77,1-3.7a8.17,8.17,0,0,1,.34-8.09,7.33,7.33,0,0,1,7.38-3.3c.17.06.4.17.46.34a8.12,8.12,0,0,1-.11,8.43,7.4,7.4,0,0,1-6.18,3.42Z"/><path class="cls-2" d="M406.37,50.47a6,6,0,0,0-5.61,2.73,6.49,6.49,0,0,0-.74,5.24,15.49,15.49,0,0,1,1.66-2.85.73.73,0,0,1,1-.06.72.72,0,0,1,.06,1A12.66,12.66,0,0,0,401,59.7a5.82,5.82,0,0,0,5-2.73,6.58,6.58,0,0,0,.29-6.5Z"/><path class="cls-2" d="M399.16,64.6a.44.44,0,0,1-.29.11.7.7,0,0,1-.69-.29,30.24,30.24,0,0,0-2.4-3.13,11.67,11.67,0,0,1-4,1.42,12.11,12.11,0,0,1-9.27-2.17,13.74,13.74,0,0,1-5.21-13.39.57.57,0,0,1,.34-.46,12.13,12.13,0,0,1,13.68.46A13.72,13.72,0,0,1,396.64,60a28.84,28.84,0,0,1,2.69,3.53.73.73,0,0,1-.17,1Z"/><path class="cls-2" d="M390.52,48.42a10.89,10.89,0,0,0-11.91-.63A12.22,12.22,0,0,0,383.3,59.3a10.93,10.93,0,0,0,11.51.85,25.91,25.91,0,0,0-7.27-5.81.8.8,0,0,1-.34-1,.69.69,0,0,1,.92-.34,26,26,0,0,1,7.21,5.58,11.87,11.87,0,0,0-4.81-10.14Z"/></svg>